<svg width="495" height="96" xmlns="http://www.w3.org/2000/svg"><g fill="none" fill-rule="evenodd"><path d="M128.18 79V61.56h5.28L142.42 79h15.36L146.5 58.84c2.56-1.387 4.6-3.307 6.12-5.76 1.52-2.453 2.28-5.547 2.28-9.28 0-3.253-.56-5.96-1.68-8.12-1.12-2.16-2.627-3.88-4.52-5.16-1.893-1.28-4.107-2.187-6.64-2.72-2.533-.533-5.187-.8-7.96-.8h-19.68v52h13.76zm4.96-28.32h-4.96v-12.8h4.96c2.72 0 4.787.427 6.2 1.28 1.413.853 2.12 2.4 2.12 4.64 0 4.587-2.773 6.88-8.32 6.88zm46.62 29.28c2.24 0 4.68-.387 7.32-1.16a24.243 24.243 0 007.24-3.48l-4.48-8.16c-1.44.8-2.813 1.4-4.12 1.8-1.307.4-2.653.6-4.04.6-2.24 0-4.187-.467-5.84-1.4-1.653-.933-2.8-2.6-3.44-5h22.8c.107-.48.227-1.253.36-2.32.133-1.067.2-2.213.2-3.44 0-2.667-.36-5.173-1.08-7.52-.72-2.347-1.8-4.4-3.24-6.16-1.44-1.76-3.253-3.147-5.44-4.16-2.187-1.013-4.747-1.52-7.68-1.52-2.453 0-4.827.48-7.12 1.44a18.612 18.612 0 00-6.12 4.16c-1.787 1.813-3.227 4.013-4.32 6.6-1.093 2.587-1.64 5.507-1.64 8.76 0 3.307.533 6.267 1.6 8.88 1.067 2.613 2.52 4.813 4.36 6.6 1.84 1.787 4.013 3.147 6.52 4.08 2.507.933 5.227 1.4 8.16 1.4zm4.32-25.76h-11.84c.427-2.027 1.213-3.493 2.36-4.4 1.147-.907 2.493-1.36 4.04-1.36 2.08 0 3.507.573 4.28 1.72.773 1.147 1.16 2.493 1.16 4.04zm35.58 25.76c2.08 0 4.307-.333 6.68-1 2.373-.667 4.573-1.88 6.6-3.64l-5.28-8.96c-.96.747-1.987 1.36-3.08 1.84s-2.2.72-3.32.72c-2.187 0-4.013-.893-5.48-2.68-1.467-1.787-2.2-4.2-2.2-7.24s.72-5.453 2.16-7.24c1.44-1.787 3.44-2.68 6-2.68.747 0 1.453.133 2.12.4s1.453.773 2.36 1.52l6.4-8.8a18.76 18.76 0 00-5.2-3.04c-1.92-.747-4.08-1.12-6.48-1.12a23.74 23.74 0 00-8.12 1.4c-2.587.933-4.867 2.293-6.84 4.08-1.973 1.787-3.547 3.987-4.72 6.6-1.173 2.613-1.76 5.573-1.76 8.88 0 3.307.52 6.267 1.56 8.88 1.04 2.613 2.467 4.813 4.28 6.6 1.813 1.787 3.947 3.147 6.4 4.08 2.453.933 5.093 1.4 7.92 1.4zm33.34 0c2.56 0 5.027-.467 7.4-1.4a18.936 18.936 0 006.32-4.08c1.84-1.787 3.32-3.987 4.44-6.6 1.12-2.613 1.68-5.573 1.68-8.88 0-3.307-.56-6.267-1.68-8.88-1.12-2.613-2.6-4.813-4.44-6.6a18.936 18.936 0 00-6.32-4.08 20.043 20.043 0 00-7.4-1.4c-2.56 0-5.04.467-7.44 1.4-2.4.933-4.52 2.293-6.36 4.08-1.84 1.787-3.307 3.987-4.4 6.6-1.093 2.613-1.64 5.573-1.64 8.88 0 3.307.547 6.267 1.64 8.88 1.093 2.613 2.56 4.813 4.4 6.6a18.839 18.839 0 006.36 4.08c2.4.933 4.88 1.4 7.44 1.4zm0-11.04c-2.08 0-3.56-.893-4.44-2.68-.88-1.787-1.32-4.2-1.32-7.24s.44-5.453 1.32-7.24c.88-1.787 2.36-2.68 4.44-2.68 2.08 0 3.56.893 4.44 2.68.88 1.787 1.32 4.2 1.32 7.24s-.44 5.453-1.32 7.24c-.88 1.787-2.36 2.68-4.44 2.68zM292.1 79V56.76c.96-2.507 2.227-4.253 3.8-5.24 1.573-.987 3.08-1.48 4.52-1.48.907 0 1.693.067 2.36.2.667.133 1.373.28 2.12.44l2.24-11.84a8.386 8.386 0 00-2-.6c-.747-.133-1.733-.2-2.96-.2-1.973 0-3.987.627-6.04 1.88s-3.827 3.24-5.32 5.96h-.32l-.96-6.88h-11.2v40h13.76zm31.74.96c1.76 0 3.533-.427 5.32-1.28a17.106 17.106 0 004.76-3.36h.32l.96 3.68h11.2V23.32h-13.76v12.96l.48 5.76c-1.227-1.227-2.533-2.2-3.92-2.92-1.387-.72-3.173-1.08-5.36-1.08-2.027 0-4.027.48-6 1.44-1.973.96-3.72 2.333-5.24 4.12s-2.747 3.987-3.68 6.6c-.933 2.613-1.4 5.547-1.4 8.8 0 3.253.387 6.173 1.16 8.76.773 2.587 1.867 4.787 3.28 6.6 1.413 1.813 3.12 3.2 5.12 4.16s4.253 1.44 6.76 1.44zm3.68-11.2c-1.867 0-3.32-.747-4.36-2.24-1.04-1.493-1.56-4.053-1.56-7.68 0-3.52.573-6 1.72-7.44 1.147-1.44 2.44-2.16 3.88-2.16.907 0 1.84.133 2.8.4.96.267 1.84.773 2.64 1.52v14.72c-.747 1.12-1.52 1.88-2.32 2.28-.8.4-1.733.6-2.8.6zM360.366 79V53.888h26.28v-4.234h-26.28v-18.98h28.908V26.44h-33.872V79h4.964zm40.077 0V60.458c0-2.093.183-4.1.548-6.023.365-1.922 1.022-3.589 1.97-5 .95-1.411 2.227-2.53 3.833-3.358 1.606-.827 3.65-1.217 6.132-1.168v-4.745c-3.163 0-5.706.596-7.628 1.788-1.923 1.193-3.492 3.298-4.709 6.315h-.146v-7.081h-4.38V79h4.38zm33.799 1.022c2.385 0 4.477-.316 6.278-.949 1.8-.633 3.358-1.52 4.672-2.664a15.43 15.43 0 003.285-4.016 23.583 23.583 0 002.117-5h-4.891c-.681 2.774-2.044 4.915-4.088 6.424-2.044 1.509-4.502 2.263-7.373 2.263-2.093 0-3.942-.401-5.548-1.204-1.606-.803-2.932-1.874-3.978-3.213-1.047-1.338-1.838-2.92-2.373-4.745-.535-1.825-.803-3.759-.803-5.803h29.346c.049-6.813-1.411-12.009-4.38-15.586s-7.057-5.365-12.264-5.365c-2.725 0-5.159.523-7.3 1.57a15.945 15.945 0 00-5.439 4.306c-1.484 1.825-2.627 3.955-3.43 6.388-.803 2.433-1.205 5.037-1.205 7.811s.34 5.366 1.022 7.774c.681 2.41 1.728 4.502 3.139 6.278 1.411 1.777 3.212 3.176 5.402 4.198 2.19 1.022 4.794 1.533 7.811 1.533zm11.972-22.557H421.54c.195-1.8.608-3.504 1.241-5.11.633-1.606 1.472-3.017 2.519-4.234a11.833 11.833 0 013.796-2.92c1.484-.73 3.2-1.095 5.146-1.095 1.947 0 3.674.353 5.183 1.058 1.509.706 2.762 1.655 3.76 2.847.997 1.193 1.752 2.604 2.262 4.234.512 1.63.767 3.37.767 5.22zm28.616 22.557c2.385 0 4.477-.316 6.278-.949 1.8-.633 3.358-1.52 4.672-2.664a15.43 15.43 0 003.285-4.016 23.583 23.583 0 002.117-5h-4.891c-.681 2.774-2.044 4.915-4.088 6.424-2.044 1.509-4.502 2.263-7.373 2.263-2.093 0-3.942-.401-5.548-1.204-1.606-.803-2.932-1.874-3.978-3.213-1.047-1.338-1.838-2.92-2.373-4.745-.535-1.825-.803-3.759-.803-5.803h29.346c.049-6.813-1.411-12.009-4.38-15.586s-7.057-5.365-12.264-5.365c-2.725 0-5.159.523-7.3 1.57a15.945 15.945 0 00-5.438 4.306c-1.485 1.825-2.628 3.955-3.431 6.388-.803 2.433-1.205 5.037-1.205 7.811s.34 5.366 1.022 7.774c.681 2.41 1.728 4.502 3.139 6.278 1.411 1.777 3.212 3.176 5.402 4.198 2.19 1.022 4.794 1.533 7.811 1.533zm11.972-22.557h-24.674c.195-1.8.608-3.504 1.241-5.11.633-1.606 1.472-3.017 2.518-4.234a11.833 11.833 0 013.796-2.92c1.485-.73 3.2-1.095 5.147-1.095s3.674.353 5.183 1.058c1.509.706 2.762 1.655 3.76 2.847.997 1.193 1.751 2.604 2.262 4.234.511 1.63.767 3.37.767 5.22z" fill="#4F4F4F" fill-rule="nonzero"/><path fill="#FFF" d="M35.746 34.894h30.925v34.188H35.746z"/><path fill="#FFF" d="M63.83 44.915L77.872 36.9v30.33L63.83 59.211z"/><path d="M13.213 34.894C11.14 34.894 9 36.564 9 38.635v26.856c0 2.071 2.14 3.474 4.213 3.474h22.533v-34.07H13.213z" fill="#FF8282" fill-rule="nonzero"/><path d="M99.202 49.057L77.939 36.832l-36.91-21.244c-2.274-1.337-5.283.334-5.283 2.939v16.434h24.54c2.073 0 3.544 1.67 3.544 3.741v6.213L77.872 36.9v30.33L63.83 59.211v6.413c0 2.07-1.471 3.474-3.544 3.474h-24.54v16.5c0 2.606 3.01 4.21 5.283 2.94l36.91-21.177 21.263-12.226c2.273-1.536 2.273-4.81 0-6.079z" fill="#FF8282" fill-rule="nonzero"/></g></svg>