<svg id="Layer_1" data-name="Layer 1" xmlns="http://www.w3.org/2000/svg" viewBox="0 0 421.48 51.66"><defs><style>.cls-1,.cls-2{fill:#fff;}.cls-2{fill-rule:evenodd;}.cls-3{fill:#f48283;}.cls-4{fill:#2c2c2c;}.cls-5{isolation:isolate;}</style></defs><g id="Logo-Final"><g id="Logo"><g id="screencastify-logo"><rect id="Rectangle" class="cls-1" x="18.38" y="14.3" width="21.25" height="23.54"/><polygon id="Rectangle-2" data-name="Rectangle" class="cls-2" points="37.68 21.2 47.34 15.68 47.34 36.57 37.68 31.05 37.68 21.2"/><path class="cls-3" d="M2.9,14.3A2.87,2.87,0,0,0,0,16.88V35.37c0,1.43,1.47,2.4,2.9,2.4H18.38V14.3Z"/><path class="cls-3" d="M62,24.06,47.38,15.64h0L22,1a2.43,2.43,0,0,0-3.63,2V14.35H35.25a2.46,2.46,0,0,1,2.43,2.58V21.2l9.66-5.52V36.57l-9.66-5.52v4.42a2.3,2.3,0,0,1-2.43,2.39H18.38V49.22a2.44,2.44,0,0,0,3.63,2L47.38,36.66h0L62,28.24A2.45,2.45,0,0,0,62,24.06Z"/></g></g></g><path class="cls-4" d="M340.93,11h20.83v3.68H345v9.11h14.74v3.58H345V41.07h-4.07Z"/><path class="cls-4" d="M365.73,19.17h3.5V23a8.1,8.1,0,0,1,2.1-2.69,5.46,5.46,0,0,1,3.86-1.59l.35,0,.84.09v3.88a5,5,0,0,0-.6-.08l-.61,0a5.24,5.24,0,0,0-4.27,1.79,6.25,6.25,0,0,0-1.49,4.12V41.07h-3.68Z"/><path class="cls-4" d="M393.09,19.78a8.29,8.29,0,0,1,3.31,2.83,9.9,9.9,0,0,1,1.47,3.86,26.19,26.19,0,0,1,.32,4.83H382.27a9.46,9.46,0,0,0,1.56,5.36,5.21,5.21,0,0,0,4.52,2,5.84,5.84,0,0,0,4.57-1.91,6.68,6.68,0,0,0,1.35-2.57h3.61a7.69,7.69,0,0,1-.94,2.69,9.8,9.8,0,0,1-1.81,2.42A8.49,8.49,0,0,1,391,41.52a12.46,12.46,0,0,1-3,.32,9.12,9.12,0,0,1-6.88-3q-2.83-3-2.83-8.33A12.63,12.63,0,0,1,381.17,22a9.35,9.35,0,0,1,7.43-3.29A9.86,9.86,0,0,1,393.09,19.78Zm1.32,8.59a9.62,9.62,0,0,0-1-3.82,5.3,5.3,0,0,0-5-2.66,5.54,5.54,0,0,0-4.22,1.83,7,7,0,0,0-1.8,4.65Z"/><path class="cls-4" d="M416.38,19.78a8.35,8.35,0,0,1,3.31,2.83,9.74,9.74,0,0,1,1.46,3.86,25.12,25.12,0,0,1,.33,4.83H405.55a9.53,9.53,0,0,0,1.56,5.36,5.23,5.23,0,0,0,4.53,2,5.83,5.83,0,0,0,4.56-1.91,6.55,6.55,0,0,0,1.35-2.57h3.62a7.73,7.73,0,0,1-.95,2.69,9.78,9.78,0,0,1-1.8,2.42,8.52,8.52,0,0,1-4.12,2.21,12.38,12.38,0,0,1-3,.32,9.14,9.14,0,0,1-6.89-3q-2.82-3-2.82-8.33A12.63,12.63,0,0,1,404.45,22a9.37,9.37,0,0,1,7.44-3.29A9.89,9.89,0,0,1,416.38,19.78Zm1.31,8.59a9.62,9.62,0,0,0-1-3.82,5.3,5.3,0,0,0-5-2.66,5.52,5.52,0,0,0-4.21,1.83,6.94,6.94,0,0,0-1.81,4.65Z"/><g id="Screencastify" class="cls-5"><g class="cls-5"><path class="cls-4" d="M72.41,36.87l4.49-5.4a12.06,12.06,0,0,0,6.95,2.88c2.38,0,3.38-.77,3.38-2.1s-1.51-1.88-4-2.88L79.5,27.81c-3.2-1.28-6-4-6-8.27,0-5.08,4.57-9.24,11.07-9.24a14.31,14.31,0,0,1,9.88,4l-3.94,4.94a9.77,9.77,0,0,0-5.94-2.15c-1.92,0-3.11.68-3.11,2s1.69,1.92,4.39,3l3.61,1.42c3.71,1.46,5.81,4,5.81,8.14,0,5-4.21,9.51-11.62,9.51A17.22,17.22,0,0,1,72.41,36.87Z"/><path class="cls-4" d="M97.25,29.14c0-7.59,5.76-12,12.26-12a10,10,0,0,1,6.67,2.38l-3.66,5a3.79,3.79,0,0,0-2.56-1.1c-2.92,0-4.66,2.19-4.66,5.67s1.92,5.67,4.39,5.67a6.4,6.4,0,0,0,3.66-1.46l3,5.12a11.53,11.53,0,0,1-7.6,2.65C102.28,41.12,97.25,36.73,97.25,29.14Z"/><path class="cls-4" d="M119.07,17.71h6.4l.55,3.93h.18c1.69-3.11,4.25-4.48,6.49-4.48a6.91,6.91,0,0,1,2.84.45l-1.28,6.77a11,11,0,0,0-2.56-.36c-1.65,0-3.66,1-4.76,3.84V40.57h-7.86Z"/><path class="cls-4" d="M135.58,29.14c0-7.41,5.39-12,11-12,6.77,0,10,4.94,10,11.06a16.18,16.18,0,0,1-.32,3.3h-13c.73,2.74,2.74,3.66,5.3,3.66a9.36,9.36,0,0,0,4.67-1.38l2.56,4.67a15.38,15.38,0,0,1-8.32,2.65C140.7,41.12,135.58,36.73,135.58,29.14Zm14.27-2.74c0-1.74-.74-3.3-3.11-3.3-1.74,0-3.21,1-3.66,3.3Z"/><path class="cls-4" d="M158.67,29.14c0-7.41,5.4-12,11-12,6.77,0,10,4.94,10,11.06a16.18,16.18,0,0,1-.32,3.3h-13c.73,2.74,2.74,3.66,5.3,3.66a9.36,9.36,0,0,0,4.67-1.38l2.56,4.67a15.41,15.41,0,0,1-8.33,2.65C163.8,41.12,158.67,36.73,158.67,29.14Zm14.27-2.74c0-1.74-.73-3.3-3.11-3.3-1.73,0-3.2,1-3.66,3.3Z"/><path class="cls-4" d="M183,17.71h6.4l.55,2.74h.19a10.29,10.29,0,0,1,7.22-3.29c5,0,7.14,3.66,7.14,9.33V40.57h-7.87V27.49c0-2.92-.73-3.66-2.29-3.66s-2.28.64-3.47,1.74v15H183Z"/><path class="cls-4" d="M207.43,29.14c0-7.59,5.76-12,12.26-12a10,10,0,0,1,6.67,2.38l-3.65,5a3.83,3.83,0,0,0-2.57-1.1c-2.92,0-4.66,2.19-4.66,5.67s1.92,5.67,4.39,5.67a6.4,6.4,0,0,0,3.66-1.46l3,5.12a11.53,11.53,0,0,1-7.6,2.65C212.46,41.12,207.43,36.73,207.43,29.14Z"/><path class="cls-4" d="M227.87,34.08c0-4.76,3.66-7.41,12.44-8.32-.18-1.65-1.18-2.38-3.2-2.38-1.64,0-3.38.64-5.76,1.92l-2.74-5.12a19.27,19.27,0,0,1,10.06-3c5.94,0,9.51,3.2,9.51,10.7V40.57h-6.4l-.55-2.19h-.18a9.32,9.32,0,0,1-6.32,2.74A6.73,6.73,0,0,1,227.87,34.08Zm12.44-.55V30.42c-3.75.55-4.93,1.74-4.93,3,0,1.05.73,1.65,2.1,1.65A3.58,3.58,0,0,0,240.31,33.53Z"/><path class="cls-4" d="M250.51,37.92,254,33.07a9.75,9.75,0,0,0,5.58,2.29c1.65,0,2.29-.46,2.29-1.37,0-1.19-2.11-1.74-4.39-2.66-2.66-1-5.77-3-5.77-6.76,0-4.49,3.66-7.41,9.06-7.41a13.51,13.51,0,0,1,8.41,3l-3.47,4.66A8.5,8.5,0,0,0,261,22.92c-1.32,0-2,.37-2,1.28,0,1.19,2,1.65,4.3,2.47,2.74,1,5.85,2.74,5.85,6.86,0,4.3-3.38,7.59-9.78,7.59A15.28,15.28,0,0,1,250.51,37.92Z"/><path class="cls-4" d="M272.15,31.79v-8h-3V18l3.48-.27.91-6H280v6h5.21v6.12H280v7.82c0,2.52,1.28,3.34,2.74,3.34a6.67,6.67,0,0,0,2-.36L286,40.3a17.47,17.47,0,0,1-5.4.82C274.62,41.12,272.15,37.37,272.15,31.79Z"/><path class="cls-4" d="M288,10.94C288,8.65,289.85,7,292.41,7s4.39,1.65,4.39,3.94-1.83,3.93-4.39,3.93S288,13.22,288,10.94Zm.46,6.77h7.86V40.57h-7.86Z"/><path class="cls-4" d="M299,18l3.48-.27h11.25v6.12H299Zm3-.55c0-4.89,2.29-9.24,9.06-9.24A14.47,14.47,0,0,1,316,9l-1.38,5.76a6.62,6.62,0,0,0-2.28-.46c-1.47,0-2.38.69-2.38,2.84V40.57h-7.87Z"/><path class="cls-4" d="M316.1,48.71l1.37-5.94a7.79,7.79,0,0,0,1.47.27c2.1,0,3.11-.91,3.57-2.28l.27-1-8.69-22H322l2.74,8.78c.64,2.1,1.1,4.2,1.65,6.49h.18c.46-2.19.92-4.3,1.46-6.49l2.29-8.78h7.5l-7.68,22.5c-2.38,6.17-4.85,9-10.52,9A11.68,11.68,0,0,1,316.1,48.71Z"/></g></g><g id="screencastify-logo-2" data-name="screencastify-logo"><rect id="Rectangle-3" data-name="Rectangle" class="cls-1" x="18.67" y="13.83" width="21.58" height="23.91"/><polygon id="Rectangle-4" data-name="Rectangle" class="cls-2" points="38.27 20.84 48.07 15.23 48.07 36.44 38.27 30.84 38.27 20.84"/><path class="cls-3" d="M2.94,13.83A2.91,2.91,0,0,0,0,16.45V35.23c0,1.45,1.49,2.43,2.94,2.43H18.67V13.83Z"/><path class="cls-3" d="M63,23.74,48.11,15.19h0L22.35.33a2.46,2.46,0,0,0-3.68,2.06V13.88H35.79a2.5,2.5,0,0,1,2.48,2.61v4.35l9.8-5.61V36.44l-9.8-5.6v4.48a2.34,2.34,0,0,1-2.48,2.43H18.67V49.29a2.48,2.48,0,0,0,3.68,2.06L48.11,36.54h0L63,28A2.49,2.49,0,0,0,63,23.74Z"/></g></svg>