<svg xmlns="http://www.w3.org/2000/svg" viewBox="0 0 300 300"><defs><style>.cls-1{fill:none}.cls-2{fill:#fff}</style></defs><g id="Layer_2" data-name="Layer 2"><g id="Layer_1-2" data-name="Layer 1"><path class="cls-1" d="M139.5 274.38a8 8 0 0 0 7.81-6.51 8.42 8.42 0 0 0-6-10.26 7.66 7.66 0 0 0-1.68-.18 14.25 14.25 0 0 0-6.63 2.07.31.31 0 0 1-.16.06h-.06c-.09 0-.17-.14-.24-.26-2.19-5.5-4.53-8.76-9.14-9.81a10.25 10.25 0 0 0-2.27-.25 10.85 10.85 0 0 0-10.54 8.76c-1.36 6 1.44 11.2 2 12.18a.47.47 0 0 1 .07.37.34.34 0 0 1-.14.17c-3.71 2.28-5.37 4.69-6 7.28-1.09 4.8 1.08 5.7 1.89 5.89a3.48 3.48 0 0 0 .64.07 2.59 2.59 0 0 0 2.6-1.86 2.35 2.35 0 0 0 0-1 4.66 4.66 0 0 1 0-1.86c.34-1.49 1.51-2.89 3.66-4.32a.45.45 0 0 1 .25-.09h.07a.85.85 0 0 1 .22.15 41.41 41.41 0 0 0 8.54 7.76c.35.23.34.48.3.87v.05a2.59 2.59 0 0 0 1.82 3.34 2 2 0 0 0 .53.07 2.77 2.77 0 0 0 2.53-2.4c.15-.88.43-2.12.71-3.37s.58-2.55.86-3.55l.05-.19a2.47 2.47 0 0 0-1.86-3.15 2.91 2.91 0 0 0-.68-.08c-1.79 0-2.26 1.88-2.43 2.61 0 .16-.09.25-.2.25-.24 0-5.8-4.5-5.68-5 0-.1.08-.13.26-.25 3.24-1.78 6.66-3.73 9.58-5.44a.45.45 0 0 1 .25-.09.27.27 0 0 1 .21.2c2 4.59 3.71 6.75 7.08 7.52a7.61 7.61 0 0 0 1.78.25Zm-22.17-6.21c-.19-.05-2.78-4.68-1.81-8.9.71-3.14 3-4.87 5.52-4.87a5.49 5.49 0 0 1 1.26.15c4.28 1 6.38 7.06 6.33 7.25-.16.72-11.3 6.37-11.3 6.37Zm17.29-3.84a.58.58 0 0 1-.06-.37s.07-.09.13-.12a8.73 8.73 0 0 1 4.11-1.43 4.36 4.36 0 0 1 .94.1c.67.15 3.69 1.3 3 4.18 0 .17-.6 2.61-3 2.61a4.09 4.09 0 0 1-.93-.12c-1.95-.45-2.81-2.03-4.19-4.85Z"/><path class="cls-1" d="M139.54 266.26h.2a1.09 1.09 0 0 0 .11-.27.58.58 0 0 0 0-.1 2 2 0 0 0-.8-.48 1.18 1.18 0 0 0-.27 0h-.22c.44.59.67.78.98.85ZM177 278.11a5.09 5.09 0 0 0-2.88.84 5.63 5.63 0 0 0-2 2.79 4.11 4.11 0 0 0 .73 3.75c1.63 2.29 3.08 2.29 3.56 2.29a5.92 5.92 0 0 0 3.16-1.16 4.93 4.93 0 0 0 1.07-6.8 4.45 4.45 0 0 0-3.64-1.71ZM121.63 257.47a3.06 3.06 0 0 0-.59-.07c-1.27 0-2.24 1-2.6 2.53a8.41 8.41 0 0 0 .31 4.13c2.37-1.23 4.68-2.48 6.18-3.34-.75-1.34-1.93-2.94-3.3-3.25ZM128.7 271.42a6.27 6.27 0 0 1 1 .09c-.18-.3-.36-.61-.53-.93l-1.69 1a5.62 5.62 0 0 1 1.22-.16ZM43.75 67.12a7.57 7.57 0 0 0-.07-2.65 3.62 3.62 0 0 0-1.41-2.41 3.52 3.52 0 0 0-3.32.15A8.84 8.84 0 0 1 42 64.46a10.34 10.34 0 0 1 1.75 2.66ZM54.54 149.42a3.23 3.23 0 0 0-2.67-1.26 3.55 3.55 0 0 0-2 .62 3.13 3.13 0 0 0-1.09 3v.07c1 13.27 1.56 17.65 2.35 18.77a1.74 1.74 0 0 0 1.44.68 2.23 2.23 0 0 0 1.26-.39 2.12 2.12 0 0 0 .81-1.54c.4-4.11.66-12.36.56-17.7a4.2 4.2 0 0 0-.66-2.25ZM58.89 73.73a3.51 3.51 0 0 0-2.63 1.49 9.2 9.2 0 0 1 1.07-.06 9.74 9.74 0 0 1 2.52.34 10.4 10.4 0 0 1 2.8 1.25 6.85 6.85 0 0 0-1.12-1.65 3.85 3.85 0 0 0-2.64-1.37ZM24.1 211.31c-4.33 2.62-4.61 3.95-4.72 4.44a3.81 3.81 0 0 0 .41 2.36l5.45-.91a1.5 1.5 0 0 1 1.41.54 5.32 5.32 0 0 1 1.35 4.52c-.69 3.07-4.45 4.32-6.81 4.42a8.22 8.22 0 0 1-4-.9c-.37-.17-.78-.36-.89-.31a3 3 0 0 0-1.07 2 3.92 3.92 0 0 0 .47 3.14c.75.78 4.3.21 8.42-.45 1.77-.29 3.55-.64 5.29-1.06a1.5 1.5 0 0 1 1.78 1.93l-2.17 6.49a1.49 1.49 0 0 1-1.25 1c-6.67.78-8.18 2.41-8.49 3.32a5.92 5.92 0 0 0-.17 1 10.31 10.31 0 0 1-1 3.53 9 9 0 0 1-1.39 2.06 4 4 0 0 0-.75 1.11 5.52 5.52 0 0 0 0 4.19c.4.88 1 1.12 2.62 1.7a22.82 22.82 0 0 1 4.36 2 23.36 23.36 0 0 1 5.89 5.2c1.46 1.69 2 2.27 2.91 2.17a3 3 0 0 0 2.12-1.44c.6-1 .23-2.06-.48-3.86s-1.63-4.13-.72-6.69a6.9 6.9 0 0 1 2.92-3.49 5.72 5.72 0 0 0 2.49-3c.67-1.87.73-3.23.17-4.07-.39-.58-1-.78-2.05-1.06a4.74 4.74 0 0 1-3.48-2.39c-1-2.07 0-4.59 1.37-6 2.55-2.59 7.35-2.15 10.51-.23a11.24 11.24 0 0 1 3.71 3.93 5.9 5.9 0 0 0 .9 1.22c.16-.18.38-.51.56-.76a13.12 13.12 0 0 1 2.86-3.2 13.42 13.42 0 0 1 4.15-2.2 32.16 32.16 0 0 0-23.28-24.43 41.91 41.91 0 0 0-9.4 4.18ZM195.53 181.43a4.1 4.1 0 0 0 2.76 1.19 3.45 3.45 0 0 0 2.56-1.16c1.29-1.42 1.37-3.65-.7-5.34-1.06-.87-2-1.74-2.94-2.56-2.78-2.52-5.18-5-8-7.49-1.06-1-2.22-1.92-3.44-2.93-4.24-3.41-8.45-4.81-12.23-4.81a14.61 14.61 0 0 0-10.9 4.81c-4.13 4.56-5 11.48 0 16.79.05 0 .81.74.63.94a.24.24 0 0 1-.17 0 2.08 2.08 0 0 1-1-.48 8.54 8.54 0 0 0-4.79-1.4 11.53 11.53 0 0 0-8.35 3.8c-3.39 3.76-5.11 10.86 3.35 19.53 1 1 2 2 2.95 2.86 2.54 2.29 5 4.25 7.59 6.59.86.78 1.78 1.6 2.64 2.48l.26.23a4 4 0 0 0 2.66 1.12 3.39 3.39 0 0 0 2.51-1.14c1.84-2 .57-4.19-.9-5.52-.71-.64-.59-1.18.14-2 2-2.33 6.78-7.7 11.55-13s9.58-10.5 11.61-12.54a1.78 1.78 0 0 1 1.12-.61 1.45 1.45 0 0 1 1 .46Zm-23.65 12.9c-2.67 2.84-6.1 6.74-7.3 7.87-.44.44-.77.69-1.16.69-.69 0-1.56-.76-3.53-2.54-1.32-1.19-2.59-2.43-2.59-2.43-4.56-4.13-4.46-7.91-2.35-10.24a7.68 7.68 0 0 1 5.67-2.32 8.91 8.91 0 0 1 5.59 2c.95.78 2 1.74 3 2.61 3.33 3.03 3.45 3.5 2.67 4.36Zm16.08-18c-.63.91-2 2.47-9.79 11.14a1.2 1.2 0 0 1-.89.49c-.82 0-2.06-1-4.93-3.63-1.07-1-2.09-2-3.26-3.23-4.4-4.62-3.86-9.29-1.15-12.28a9.68 9.68 0 0 1 7.1-3.1 9.57 9.57 0 0 1 6 2.15c1 .82 2.47 2.06 3.84 3.29 3.77 3.41 3.99 3.84 3.12 5.18ZM257.87 219.08a6.06 6.06 0 0 1-3.67 1.12 8 8 0 0 1-1.36-.11 12.3 12.3 0 0 1-7.85-5.24 1.5 1.5 0 0 1 0-1.77 1.49 1.49 0 0 1 1.7-.49 9.2 9.2 0 0 0 6.12.2 5.87 5.87 0 0 0 3-2.44L246 190.67c-.19.52-.39 1-.62 1.53-4.79 10.63-16.76 14.38-20.7 15.61a50.67 50.67 0 0 1-12.27 2.19c4.06 12.2 9.81 22.67 17.11 31.14 4.72 5.48 8.52 8.19 13.14 9.34 1.29.33 8 1.79 12.82-1.06 6.72-3.93 10.26-16.48 4.56-30.67l-.71-1.41a5.12 5.12 0 0 1-1.46 1.74ZM240 232.62a6.25 6.25 0 0 1-4.62 1.82 9.75 9.75 0 0 1-4.88-1.4 1.51 1.51 0 0 1-.73-1.46 1.49 1.49 0 0 1 1-1.26 6.57 6.57 0 0 0 3.77-3.11 8.7 8.7 0 0 0 .69-5.81 1.5 1.5 0 0 1 2.43-1.46 10.91 10.91 0 0 1 4 7.61 6.72 6.72 0 0 1-1.66 5.07Z"/><path class="cls-1" d="M237.24 228.64a9.57 9.57 0 0 1-2.29 2.78 3.46 3.46 0 0 0 2.9-.87 3.79 3.79 0 0 0 .84-2.83 7.07 7.07 0 0 0-.41-2 10.34 10.34 0 0 1-1.04 2.92ZM179.18 170.22a6.58 6.58 0 0 0-4.14-1.49 6.69 6.69 0 0 0-4.88 2.11c-2.07 2.3-1.67 5.29 1.11 8.22 1.16 1.23 2.12 2.17 3.09 3.05.64.58 1.74 1.58 2.57 2.26 5.08-5.61 7.12-7.93 8-9-.65-.66-1.61-1.53-2.06-1.94-1.09-1.03-2.48-2.22-3.69-3.21ZM250.82 216.23a7.76 7.76 0 0 0 2.5.9 3.58 3.58 0 0 0 2.75-.45 3.53 3.53 0 0 0 1.06-3.15 8.91 8.91 0 0 1-3.21 2.07 9.84 9.84 0 0 1-3.1.63ZM164.32 189.69a5.82 5.82 0 0 0-3.7-1.33 4.73 4.73 0 0 0-3.45 1.33c-1.83 2 .89 4.87 2.14 6a.6.6 0 0 1 .08.08s1.25 1.22 2.51 2.36l1.32 1.17c.8-.83 2-2.12 3.13-3.38.74-.82 1.49-1.65 2.22-2.44-.33-.32-.79-.74-1.39-1.29-.92-.84-1.97-1.78-2.86-2.5ZM80.54 56.84a50.56 50.56 0 0 1-12.42-1.13c-4-.88-16.28-3.57-22-13.73-.27-.48-.52-1-.75-1.48l-7.43 18.87a6.34 6.34 0 0 1 5.93.15 6.59 6.59 0 0 1 2.75 4.33 12.34 12.34 0 0 1-2.06 9.21 1.52 1.52 0 0 1-1.24.66 1.25 1.25 0 0 1-.43-.07 1.49 1.49 0 0 1-1.07-1.41 9.19 9.19 0 0 0-2-5.78 6 6 0 0 0-3.87-2l-2.07 5.26c-4.43 14.64.19 26.82 7.22 30.15 5.11 2.41 11.62.37 12.87-.06 4.5-1.56 8.06-4.59 12.27-10.46 6.51-9.06 11.32-19.99 14.3-32.51Zm-15.2 25.7a1.32 1.32 0 0 1-.39.06 1.53 1.53 0 0 1-1.25-.67 8.76 8.76 0 0 0-4.65-3.54 6.58 6.58 0 0 0-4.86.56A1.5 1.5 0 0 1 52 77.28c.93-3.86 3.75-6.55 6.86-6.55a6.7 6.7 0 0 1 4.8 2.32 10.9 10.9 0 0 1 2.74 8.14 1.51 1.51 0 0 1-1.06 1.35Z"/><circle class="cls-1" cx="119.44" cy="119.24" r=".5"/><path class="cls-1" d="M120.65 164.8c0-5.81-5.81-9.08-6.05-9.22-3.31-1.83-7.9-2-12.3-.47-4.69 1.64-8.46 4.95-10.08 8.86-1.37 3.27-2.51 9.85 1.84 13.73 3.21 2.87 8.39 3.34 12.88 1.15a1.55 1.55 0 0 1 .66-.15 1.52 1.52 0 0 1 1.31.77 8.79 8.79 0 0 0 2.15 2.54 9.76 9.76 0 0 1-.23-1 8.52 8.52 0 0 1 .66-4.84 1.52 1.52 0 0 1 .86-.79c4.98-1.82 8.32-6.07 8.3-10.58ZM276.31 41.26a52.74 52.74 0 0 1 18.62-13.61l-.69-.79a43.73 43.73 0 0 0-24.56 17.23 41.74 41.74 0 0 0-6.59 16.45 7.34 7.34 0 0 1 2.4.49 52.78 52.78 0 0 1 10.82-19.77Z"/><circle class="cls-1" cx="105.44" cy="121.24" r=".5"/><path class="cls-1" d="M238.92 62.67c-13.23 4.4-20.26 17.31-22.1 21.16l.72 1a56.34 56.34 0 0 1 23.4-16 54.35 54.35 0 0 1 15.25-3 7.57 7.57 0 0 1 .87-1.94c-3.76-1.57-10.52-3.76-18.14-1.22Z"/><path class="cls-1" d="M201 22.65a43.5 43.5 0 0 0-18.65 13.62l32.49 44.83c3.09-5.93 10.33-17 23.13-21.28 7.94-2.65 15.12-.7 19.3.89l-32.65-40.1A43.51 43.51 0 0 0 201 22.65ZM164.15 18.83a1.45 1.45 0 0 0 .67-.29.77.77 0 0 0 .32-.54 1 1 0 0 0-.15-.68c-.13-.19-.48-.2-.55-.2a1.06 1.06 0 0 0-.53.13.75.75 0 0 0-.26 1.09c.26.37.45.49.5.49ZM176.7 98.64c-.15.07-.18.47-.09 1.18.24 2.24 1.29 8.4 1.29 8.4s.12.09.39 0l5.12-2.54c.16-.12.24-.2.19-.29s-5.4-5.59-6-6.23c-.47-.43-.75-.6-.9-.52ZM277.87 200.53a2.34 2.34 0 0 0 1.23-.48 1.8 1.8 0 0 0 .37-2.46 1.54 1.54 0 0 0-1.24-.54 1.92 1.92 0 0 0-1.06.29 1.65 1.65 0 0 0-.48 2.3c.63.89 1.05.89 1.18.89ZM107.62 94.11c-8.78 3.76-15.26 10.18-17.76 17.61-.18.55-4.43 13.56 3.69 22.52 6.28 6.92 17.26 8.77 27.32 4.62a1.43 1.43 0 0 1 1.17 0 15.14 15.14 0 0 1 6.66 5.55 14.94 14.94 0 0 1 2.22 5.64 17.74 17.74 0 0 0 1.08-3.15 18 18 0 0 0 0-8.31 1.49 1.49 0 0 1 1-1.78c9.83-2.93 17-10.85 17.93-19.72 1.21-12-9.58-20.43-16.14-23.49-7.79-3.6-17.95-3.45-27.17.51Zm-2.18 30.63a3.5 3.5 0 1 1 3.5-3.5 3.5 3.5 0 0 1-3.5 3.5Zm27-13a3.5 3.5 0 1 1-3.5 3.5 3.5 3.5 0 0 1 3.5-3.5Zm-9.5 7.5a3.5 3.5 0 1 1-3.5-3.5 3.5 3.5 0 0 1 3.5 3.5Z"/><circle class="cls-1" cx="132.44" cy="115.24" r=".5"/><path class="cls-1" d="M141.23 47.79a23.26 23.26 0 0 0-2.21-1 6 6 0 0 0-7.45 3c-1.15 2.23-.74 5.06 2.76 6.86 0 0 1.23.68 2.4 1.29 2.49 1.28 2.64 1.17 3.43.09.47-.81 1.2-2.15 1.92-3.54l2-3.85c.31-.64.17-1.3-2.85-2.85ZM28.44 132.78a5.92 5.92 0 0 0 3.16-1.16 4.93 4.93 0 0 0 1.07-6.8 4.45 4.45 0 0 0-3.67-1.71 5.09 5.09 0 0 0-2.88.84 5.63 5.63 0 0 0-2 2.79 4.11 4.11 0 0 0 .73 3.75c1.66 2.29 3.15 2.29 3.59 2.29Z"/><path class="cls-2" d="M68.66 91.12a84.75 84.75 0 0 0 7.79-13.37h-.23l.44-3q.56.08 1.11.12a107.16 107.16 0 0 0 6.14-19.31 1.51 1.51 0 0 0-.33-1.31 1.47 1.47 0 0 0-1.24-.51 47.79 47.79 0 0 1-13.58-1c-2.62-.58-9.05-2-14.37-6-.63.05-1.22.07-1.75.07a19.58 19.58 0 0 1-2.39-.14l.39-3 .48.05a18.6 18.6 0 0 1-2.37-3.3 19.75 19.75 0 0 1-1.86-4.64 1.5 1.5 0 0 0-2.84-.18l-13 33a.56.56 0 0 0 0 .12c-4.5 14.76-.72 29.29 8.79 33.79a16.34 16.34 0 0 0 7 1.45 25.75 25.75 0 0 0 8.1-1.39c5.13-1.69 9.11-5.03 13.72-11.45ZM54 99.83c-1.25.43-7.76 2.47-12.87.06-7-3.33-11.65-15.51-7.22-30.15l2.07-5.26h-.5a1.5 1.5 0 0 1-1-2.53 11.05 11.05 0 0 1 3.56-2.55l7.34-18.9c.23.5.48 1 .75 1.48 5.71 10.16 18 12.85 22 13.73a50.56 50.56 0 0 0 12.42 1.13c-3 12.52-7.79 23.45-14.32 32.53C62 95.24 58.45 98.27 54 99.83Z"/><path class="cls-2" d="M63.71 73.05a6.7 6.7 0 0 0-4.8-2.32c-3.11 0-5.93 2.69-6.86 6.55A1.5 1.5 0 0 0 54.19 79a6.58 6.58 0 0 1 4.86-.56 8.76 8.76 0 0 1 4.65 3.54 1.53 1.53 0 0 0 1.3.62 1.32 1.32 0 0 0 .39-.06 1.51 1.51 0 0 0 1.11-1.35 10.9 10.9 0 0 0-2.79-8.14Zm-3.87 2.45a9.74 9.74 0 0 0-2.52-.34 9.2 9.2 0 0 0-1.07.06 3.51 3.51 0 0 1 2.63-1.49 3.85 3.85 0 0 1 2.63 1.37 6.85 6.85 0 0 1 1.12 1.65 10.4 10.4 0 0 0-2.79-1.25ZM41.82 72.24a1.49 1.49 0 0 0 1.07 1.41 1.25 1.25 0 0 0 .43.07 1.52 1.52 0 0 0 1.24-.66 12.34 12.34 0 0 0 2.06-9.21 6.59 6.59 0 0 0-2.75-4.33 6.34 6.34 0 0 0-5.93-.15 11.05 11.05 0 0 0-3.56 2.55 1.5 1.5 0 0 0 1 2.53h.5a6 6 0 0 1 3.87 2 9.19 9.19 0 0 1 2.07 5.79Zm.45-10.18a3.62 3.62 0 0 1 1.41 2.41 7.57 7.57 0 0 1 .07 2.65A10.34 10.34 0 0 0 42 64.46a8.84 8.84 0 0 0-3-2.25 3.52 3.52 0 0 1 3.27-.15ZM76.22 77.73h.23A25.89 25.89 0 0 0 80 78a25.62 25.62 0 0 0 3.71-.27c3.34-.5 9.55-1.43 13-6.66 2.17-3.26 3.88-9.39.88-12.81-1.53-1.76-3.81-2.13-5.63-2.44s-2.8-.5-3.14-1.22a2 2 0 0 1 0-1.68 2.87 2.87 0 0 1 2.63-1.18l.06-3a5.76 5.76 0 0 0-5.37 2.83 5 5 0 0 0 0 4.32c1 2.18 3.34 2.56 5.36 2.89 1.56.26 3 .5 3.86 1.45 1.62 1.85.75 6.38-1.12 9.18-2.73 4.12-7.89 4.89-11 5.35a22.07 22.07 0 0 1-5.45.12q-.55 0-1.11-.12ZM50.25 46.73a19.58 19.58 0 0 0 2.39.14c.53 0 1.12 0 1.75-.07a15.27 15.27 0 0 0 10.15-4.54c1-1.07 3.64-3.93 3.4-8.1a10.66 10.66 0 0 0-3.49-7l-2 2.22a7.56 7.56 0 0 1 2.51 5c.17 2.9-1.7 4.92-2.6 5.9-3.61 3.9-9.28 3.76-11.22 3.58l-.48-.05ZM218.58 226.75l-.28 3-.44-.05a84.47 84.47 0 0 0 9.39 13.44c5.15 6 9.41 9 14.68 10.29a26 26 0 0 0 6.23.77A17.56 17.56 0 0 0 257 252c9.08-5.32 11.57-20.12 5.8-34.44a1.17 1.17 0 0 1-.05-.11l-2.9-5.81a8 8 0 0 1-.52 5.69l.71 1.41c5.7 14.19 2.16 26.74-4.56 30.67-4.87 2.85-11.53 1.39-12.82 1.06-4.62-1.15-8.42-3.86-13.14-9.34-7.3-8.47-13.05-18.94-17.11-31.14a50.67 50.67 0 0 0 12.27-2.22c3.94-1.23 15.91-5 20.7-15.61.23-.5.43-1 .62-1.53l9.83 19.68a6.86 6.86 0 0 0 .48-.91 1.47 1.47 0 0 1 1.34-.92 1.41 1.41 0 0 1 .7.15l-11.44-22.91a1.5 1.5 0 0 0-1.57-.81 1.47 1.47 0 0 0-1.25 1.23 20 20 0 0 1-1.44 4.79c-.26.56-.54 1.1-.83 1.61.27.46.57.92.89 1.4l-2.48 1.68c-.1-.13-.18-.27-.27-.41-5.09 6.21-13.17 8.76-16.18 9.69a47.69 47.69 0 0 1-13.43 2.16 1.49 1.49 0 0 0-1.19.62 1.51 1.51 0 0 0-.22 1.33 107.68 107.68 0 0 0 7.15 17.41l1.09.13Z"/><path class="cls-2" d="M237.72 219.94a1.5 1.5 0 0 0-2.43 1.46 8.7 8.7 0 0 1-.69 5.81 6.57 6.57 0 0 1-3.77 3.11 1.49 1.49 0 0 0-1 1.26 1.51 1.51 0 0 0 .73 1.46 9.75 9.75 0 0 0 4.88 1.4 6.25 6.25 0 0 0 4.62-1.82 6.72 6.72 0 0 0 1.66-5.07 10.91 10.91 0 0 0-4-7.61Zm.13 10.61a3.46 3.46 0 0 1-2.9.87 9.57 9.57 0 0 0 2.29-2.78 10.34 10.34 0 0 0 1-2.88 7.07 7.07 0 0 1 .41 2 3.79 3.79 0 0 1-.8 2.79ZM256.31 209.44a6.86 6.86 0 0 1-.48.91 5.87 5.87 0 0 1-3 2.44 9.2 9.2 0 0 1-6.12-.2 1.49 1.49 0 0 0-1.7.49 1.5 1.5 0 0 0 0 1.77 12.3 12.3 0 0 0 7.85 5.24 8 8 0 0 0 1.36.11 6.06 6.06 0 0 0 3.67-1.12 5.12 5.12 0 0 0 1.46-1.71 8 8 0 0 0 .52-5.69 12 12 0 0 0-.8-2.31 1.58 1.58 0 0 0-.7-.7 1.41 1.41 0 0 0-.7-.15 1.47 1.47 0 0 0-1.36.92Zm-.24 7.24a3.58 3.58 0 0 1-2.75.45 7.76 7.76 0 0 1-2.5-.9 9.84 9.84 0 0 0 3.1-.63 8.91 8.91 0 0 0 3.21-2.07 3.53 3.53 0 0 1-1.06 3.15ZM106.44 91.35c-9.57 4.1-16.65 11.18-19.42 19.42-.52 1.54-4.82 15.41 4.31 25.48 7 7.71 19 9.94 30.07 5.63a12 12 0 0 1 4.79 4.19A12.49 12.49 0 0 1 128 155a1.48 1.48 0 0 0 .84 1.62 1.41 1.41 0 0 0 .63.14 1.52 1.52 0 0 0 1.16-.54 21.07 21.07 0 0 0 4.58-16.94c10.31-3.56 17.78-12.2 18.75-21.87 1.38-13.71-10.57-23.11-17.85-26.51-8.6-4.01-19.68-3.84-29.67.45ZM151 117.09c-.89 8.87-8.1 16.79-17.93 19.72a1.49 1.49 0 0 0-1 1.78 18 18 0 0 1 0 8.31 17.74 17.74 0 0 1-1.06 3.16 14.94 14.94 0 0 0-2.22-5.64 15.14 15.14 0 0 0-6.66-5.55 1.43 1.43 0 0 0-1.17 0c-10.06 4.15-21 2.3-27.32-4.62-8.12-9-3.87-22-3.69-22.52 2.5-7.43 9-13.85 17.76-17.61 9.22-4 19.38-4.14 27.19-.51 6.47 3.05 17.26 11.44 16.1 23.48Z"/><path class="cls-2" d="M105.44 117.74a3.5 3.5 0 1 0 3.5 3.5 3.5 3.5 0 0 0-3.5-3.5Zm0 4a.5.5 0 0 1-.5-.5.51.51 0 0 1 .5-.5.5.5 0 0 1 .5.5.5.5 0 0 1-.5.5ZM115.94 119.24a3.5 3.5 0 1 0 3.5-3.5 3.5 3.5 0 0 0-3.5 3.5Zm4 0a.5.5 0 0 1-.5.5.5.5 0 0 1-.5-.5.51.51 0 0 1 .5-.5.5.5 0 0 1 .5.5ZM132.44 118.74a3.5 3.5 0 1 0-3.5-3.5 3.5 3.5 0 0 0 3.5 3.5Zm0-4a.5.5 0 0 1 .5.5.5.5 0 0 1-.5.5.5.5 0 0 1-.5-.5.51.51 0 0 1 .5-.5ZM123.65 164.79c0-7.43-6.83-11.4-7.6-11.83-4.1-2.27-9.47-2.52-14.73-.68-5.49 1.91-9.93 5.85-11.87 10.54-1.67 4-3 12.11 2.61 17.12 3.87 3.46 9.63 4.26 15 2.15a11.45 11.45 0 0 0 2.86 2.78 11.62 11.62 0 0 0 4.94 1.89h.2a1.5 1.5 0 0 0 .92-2.69 5.69 5.69 0 0 1-2.15-3.55A5.43 5.43 0 0 1 114 178c5.83-2.43 9.68-7.64 9.65-13.21Zm-11.3 10.59a1.52 1.52 0 0 0-.86.79 8.52 8.52 0 0 0-.66 4.84 9.76 9.76 0 0 0 .23 1 8.79 8.79 0 0 1-2.15-2.54 1.52 1.52 0 0 0-1.31-.77 1.55 1.55 0 0 0-.66.15c-4.49 2.19-9.67 1.72-12.88-1.15-4.35-3.88-3.21-10.46-1.84-13.73 1.62-3.91 5.39-7.22 10.08-8.86 4.4-1.53 9-1.36 12.3.47.24.14 6 3.41 6.05 9.22.02 4.51-3.32 8.76-8.3 10.58ZM205.86 229.69c3.53-1 8.18-.46 11-.12l1 .12.44.05.28-3-1.4-.16-1.09-.13c-3-.34-7.4-.71-11.06.34s-13.45 3.85-17 12.92c-.82 2.11-4.59 12.9 2.46 18.68a13 13 0 0 0 8.32 2.84 17.17 17.17 0 0 0 10.57-3.82l-1.87-2.35c-4.73 3.76-11.23 4.2-15.12 1-5.44-4.46-2.26-13.49-1.55-15.29 2.99-7.64 11.42-10.05 15.02-11.08ZM242.71 194c-.32-.48-.62-.94-.89-1.4-2.3-3.76-3-6.77-2.1-8.75 1.25-2.63 5.43-3.42 9.48-4.18 4.67-.87 9.49-1.78 11.15-5.66 1.35-3.16.13-7.16-3.74-12.24l-2.39 1.82c3.07 4 4.23 7.22 3.37 9.24-1 2.41-4.87 3.13-8.94 3.89-4.79.9-9.74 1.83-11.64 5.85-1.53 3.23-.56 7.4 3 12.7.09.14.17.28.27.41ZM25.49 273.2A35 35 0 1 0 0 214.15v4.62a32 32 0 0 1 25.49-12.65q1 0 2 .06a48.66 48.66 0 0 1 5.15-1.92l.88 2.87a32.16 32.16 0 0 1 23.34 24.41c.23-.08.46-.17.7-.23l.81 2.89a8.87 8.87 0 0 0-1 .34 33.2 33.2 0 0 1 .21 3.62A32 32 0 0 1 0 257.55v4.63a34.94 34.94 0 0 0 25.49 11.02Z"/><path class="cls-2" d="M36.24 280.52a43.7 43.7 0 0 0-10.75-86.06 44.25 44.25 0 0 0-5.13.3l.13-11.76h-3l-.14 13.51a1.5 1.5 0 0 0 1.73 1.5 40.7 40.7 0 0 1 14.25 80.09 1.51 1.51 0 0 0-1.12.94 1.49 1.49 0 0 0 .22 1.44l15 19.52h3.79ZM79.06 292.36a1.5 1.5 0 0 0-1.62-.92 63.76 63.76 0 0 0-17.13 5.19 72.43 72.43 0 0 0-6.55 3.37h6.43l1.38-.65a59.83 59.83 0 0 1 9.08-3.35l-5.77 4h5.25l8.4-5.85a1.5 1.5 0 0 0 .53-1.79Z"/><path class="cls-2" d="M57.54 231.31c-.24.06-.47.15-.7.23a13.42 13.42 0 0 0-4.15 2.2 13.12 13.12 0 0 0-2.86 3.2c-.18.25-.4.58-.56.76a5.9 5.9 0 0 1-.9-1.22 11.24 11.24 0 0 0-3.71-3.93c-3.16-1.92-8-2.36-10.51.23-1.39 1.42-2.32 3.94-1.37 6a4.74 4.74 0 0 0 3.48 2.39c1 .28 1.66.48 2.05 1.06.56.84.5 2.2-.17 4.07a5.72 5.72 0 0 1-2.49 3 6.9 6.9 0 0 0-2.92 3.49c-.91 2.56 0 4.85.72 6.69s1.08 2.87.48 3.86a3 3 0 0 1-2.12 1.44c-.87.1-1.45-.48-2.91-2.17a23.36 23.36 0 0 0-5.89-5.2 22.82 22.82 0 0 0-4.36-2c-1.63-.58-2.22-.82-2.62-1.7a5.52 5.52 0 0 1 0-4.19 4 4 0 0 1 .75-1.11 9 9 0 0 0 1.39-2.06 10.31 10.31 0 0 0 1-3.53 5.92 5.92 0 0 1 .17-1c.31-.91 1.82-2.54 8.49-3.32a1.49 1.49 0 0 0 1.25-1l2.17-6.49a1.5 1.5 0 0 0-1.78-1.93c-1.74.42-3.52.77-5.29 1.06-4.12.66-7.67 1.23-8.42.45a3.92 3.92 0 0 1-.47-3.14 3 3 0 0 1 1.07-2c.11-.05.52.14.89.31a8.22 8.22 0 0 0 4 .9c2.36-.1 6.12-1.35 6.81-4.42a5.32 5.32 0 0 0-1.38-4.52 1.5 1.5 0 0 0-1.41-.54l-5.45.91a3.81 3.81 0 0 1-.41-2.36c.11-.49.39-1.82 4.72-4.44a41.91 41.91 0 0 1 9.4-4.18l-.88-2.87a48.66 48.66 0 0 0-5.15 1.92 44 44 0 0 0-4.92 2.56c-4.78 2.89-5.76 4.78-6.1 6.38a7.3 7.3 0 0 0 1.28 5.45 1.5 1.5 0 0 0 1.51.68l5.55-.93a1.9 1.9 0 0 1 .31 1.28c-.25 1.14-2.31 2-4 2.08a5.39 5.39 0 0 1-2.62-.63 3.79 3.79 0 0 0-3.34-.33 5.65 5.65 0 0 0-2.8 4.19c-.36 1.79-.22 4.25 1.24 5.79 1.83 1.93 5.11 1.41 11.06.45 1-.16 1.95-.33 2.91-.53l-1 3.09c-5.83.81-9.12 2.52-10 5.22a7.87 7.87 0 0 0-.31 1.58 6.92 6.92 0 0 1-.7 2.56 5.58 5.58 0 0 1-1 1.44 6.48 6.48 0 0 0-1.22 1.88 8.43 8.43 0 0 0 0 6.63c1 2.07 2.6 2.65 4.34 3.27a19.9 19.9 0 0 1 3.78 1.73 19.88 19.88 0 0 1 5.16 4.59c1.43 1.65 2.79 3.21 5 3.21h.53a6 6 0 0 0 4.37-2.88c1.38-2.31.5-4.54-.27-6.5-.65-1.66-1.22-3.09-.68-4.59a4 4 0 0 1 1.84-2.05 8.61 8.61 0 0 0 3.58-4.46c1-2.81 1-5.08-.17-6.75a6 6 0 0 0-3.74-2.28c-1-.27-1.4-.42-1.55-.75a2.8 2.8 0 0 1 .78-2.66c1.42-1.43 4.73-1 6.81.24a8.35 8.35 0 0 1 2.74 3c.76 1.19 1.62 2.55 3.36 2.65s2.39-1.07 3.1-2.11a9.83 9.83 0 0 1 5-4.09 8.87 8.87 0 0 1 1-.34ZM2.69 245.76c1.28-1.17 1.14-3.41.33-5a5.19 5.19 0 0 0-1.83-2 7.57 7.57 0 0 1-1.19-1v3.91a1.67 1.67 0 0 1 .34.47 2.69 2.69 0 0 1 .29 1.43 1.94 1.94 0 0 1-.63-.1v3.06a3.86 3.86 0 0 0 .58 0 3 3 0 0 0 2.11-.77ZM8.48 225.69a3.48 3.48 0 0 0-2.13-1.86 5.6 5.6 0 0 1-1.54-.83 5.9 5.9 0 0 1-1.71-2.6 1.51 1.51 0 0 0-1.76-1 7 7 0 0 0-1.34.46v3.84a2.36 2.36 0 0 1 .52-.64 2.57 2.57 0 0 1 .37-.28 8.33 8.33 0 0 0 2 2.47 8.58 8.58 0 0 0 2.28 1.35l.54.24a2.75 2.75 0 0 1-1.44 2.41 3.15 3.15 0 0 1-1.29.24 5.79 5.79 0 0 0-3 .8v4l.35-.29a1.52 1.52 0 0 0 .41-.39 3 3 0 0 1 .71-.72 2.85 2.85 0 0 1 1.68-.43 6 6 0 0 0 2.47-.54c2.32-1.15 3.72-4.18 2.88-6.23ZM189.35 112.24l-.15.08a1.71 1.71 0 0 0-.87 2.36 1.75 1.75 0 0 0 2.52.65c.72-.39 1.58-.86 2.56-1.35.79-.39 1.6-.76 2.37-1.1l.12-.06a1.74 1.74 0 0 0 .95-2.37 1.78 1.78 0 0 0-2.57-.66c-.48.24-1.2-.2-1.43-.43-3.44-3.19-10.6-10.11-14.51-13.93a3.23 3.23 0 0 0-3.7-.78 3 3 0 0 0-1.5 3.25c.57 4.19 1.69 13.55 2.67 19.94.07.45 0 1.12-.46 1.36l-.12.06a1.69 1.69 0 0 0-.89 2.34 1.74 1.74 0 0 0 2.45.72l.12-.06c.71-.4 1.58-.87 2.55-1.35.8-.39 1.6-.76 2.38-1.11l.12-.06a1.7 1.7 0 0 0 .92-2.35 1.75 1.75 0 0 0-2.6-.64.78.78 0 0 1-1-.27s-.53-2.88-.74-4.07c-.07-.46 0-.58.38-.84l7-3.46a.58.58 0 0 1 .7.18c.91.91 3 3.14 3 3.2a.53.53 0 0 1-.27.75Zm-5.94-6.53-5.12 2.54c-.27.06-.35.06-.39 0s-1.05-6.16-1.29-8.4c-.09-.71-.06-1.11.09-1.18s.43.09.88.55c.62.64 5.92 6 6 6.23s-.01.14-.17.26ZM184.9 171.17c-1.37-1.23-2.84-2.47-3.84-3.29a9.57 9.57 0 0 0-6-2.15 9.68 9.68 0 0 0-7.1 3.1c-2.71 3-3.25 7.66 1.15 12.28 1.17 1.25 2.19 2.26 3.26 3.23 2.87 2.6 4.11 3.63 4.93 3.63a1.2 1.2 0 0 0 .89-.49c7.84-8.67 9.16-10.23 9.79-11.14.89-1.34.67-1.77-3.08-5.17Zm-8 13.2c-.83-.68-1.93-1.68-2.57-2.26-1-.88-1.93-1.82-3.09-3.05-2.78-2.93-3.18-5.92-1.11-8.22a6.69 6.69 0 0 1 4.88-2.11 6.58 6.58 0 0 1 4.14 1.49c1.21 1 2.6 2.18 3.71 3.18.45.41 1.41 1.28 2.06 1.94-.87 1.1-2.92 3.42-7.99 9.03Z"/><path class="cls-2" d="M198.29 185.62a6.51 6.51 0 0 0 4.79-2.15 6.39 6.39 0 0 0 1.67-4.79 7 7 0 0 0-2.75-4.88c-1-.82-1.92-1.66-2.81-2.47-1.37-1.23-2.67-2.48-3.93-3.68s-2.62-2.52-4.05-3.81c-1.06-1-2.19-1.89-3.37-2.87l-.16-.14c-4.49-3.61-9.37-5.5-14.15-5.5a17.68 17.68 0 0 0-13.12 5.8 15 15 0 0 0-3.54 14.92 14.61 14.61 0 0 0-10.14 4.78c-4.57 5-6.07 13.91 3.43 23.64l.15.15c1 1 2 1.95 2.93 2.83 1.3 1.17 2.58 2.27 3.83 3.32s2.5 2.13 3.76 3.27c.84.76 1.71 1.55 2.52 2.37l.12.11.15.14.1.09a6.92 6.92 0 0 0 4.68 1.9 6.41 6.41 0 0 0 4.74-2.13c2.24-2.48 2.22-5.73.08-8.48 2.24-2.56 6.39-7.23 10.7-12 4.49-5 8.49-9.29 10.65-11.54a6.84 6.84 0 0 0 3.72 1.12Zm-4.94-4.13c-2 2-6.84 7.27-11.61 12.54s-9.54 10.64-11.55 13c-.73.81-.85 1.35-.14 2 1.47 1.33 2.74 3.49.9 5.52a3.39 3.39 0 0 1-2.51 1.14 4 4 0 0 1-2.66-1.12l-.26-.23c-.86-.88-1.78-1.7-2.64-2.48-2.58-2.34-5-4.3-7.59-6.59-1-.87-1.93-1.84-2.95-2.86-8.46-8.67-6.74-15.77-3.35-19.53a11.53 11.53 0 0 1 8.35-3.8 8.54 8.54 0 0 1 4.79 1.4 2.08 2.08 0 0 0 1 .48.24.24 0 0 0 .17 0c.18-.2-.58-.89-.63-.94-5.06-5.31-4.15-12.23 0-16.79a14.61 14.61 0 0 1 10.9-4.81c3.78 0 8 1.4 12.23 4.81 1.22 1 2.38 2 3.44 2.93 2.79 2.52 5.19 5 8 7.49.92.82 1.88 1.69 2.94 2.56 2.07 1.69 2 3.92.7 5.34a3.45 3.45 0 0 1-2.56 1.16 4.1 4.1 0 0 1-2.76-1.19l-.1-.09a1.45 1.45 0 0 0-1-.46 1.78 1.78 0 0 0-1.11.52Z"/><path class="cls-2" d="M169.19 190c-1-.87-2-1.83-3-2.61a8.91 8.91 0 0 0-5.59-2 7.68 7.68 0 0 0-5.67 2.32c-2.11 2.33-2.21 6.11 2.35 10.24 0 0 1.27 1.24 2.59 2.43 2 1.78 2.84 2.54 3.53 2.54.39 0 .72-.25 1.16-.69 1.2-1.13 4.63-5 7.3-7.87.8-.89.68-1.36-2.67-4.36Zm-2.84 6c-1.15 1.26-2.33 2.55-3.13 3.38l-1.32-1.17c-1.26-1.14-2.49-2.35-2.51-2.36a.6.6 0 0 0-.08-.08c-1.25-1.13-4-4-2.14-6a4.73 4.73 0 0 1 3.45-1.33 5.82 5.82 0 0 1 3.7 1.33c.89.72 1.94 1.66 2.86 2.5.6.55 1.06 1 1.39 1.29-.73.71-1.48 1.54-2.22 2.36ZM112.6 14.67a1.11 1.11 0 0 0-1.28.39 8.39 8.39 0 0 0-3.47-1.75 8.5 8.5 0 0 0-10.58 6.48c-.92 3.61.26 8.83 6.22 10.33 3.93 1 7.2-.67 7.48-1.78a1.51 1.51 0 0 0-1.09-1.73 1.29 1.29 0 0 0-1.16.3 5.46 5.46 0 0 1-4.69.79c-4.19-1.06-4.87-5-4.24-7.46.73-2.91 3.44-5.65 7.29-4.68 2.6.66 3.37 2.4 3.25 3.23a1.23 1.23 0 0 0 2.41.42v-.08c.08-.44.2-1 .35-1.6s.28-1 .41-1.45v-.06a1.12 1.12 0 0 0-.9-1.35ZM271.78 115.62c1.09-3.57 2.21-7.17 3-9.64.22-.74.26-.73 3 .1 1.79.54 2.11.68 2.15 2.38v1.11a1.94 1.94 0 0 0 3.77.66 2.28 2.28 0 0 0 .1-.81c0-.78-.16-1.67-.2-2.27-.11-2.17-1.29-3.38-4-4.18l-.33-.11c-1.56-.43-4-1.13-6.26-1.82-1.86-.56-3.56-1.11-4.6-1.46l-.64-.2c-3.57-1.08-4.6.23-6.66 3.14a3 3 0 0 0-.43.83 1.83 1.83 0 0 0 1.29 2.3 1.93 1.93 0 0 0 2.21-.84c.25-.36.43-.72.63-1 .88-1.35 1-1.34 3.93-.46 2.32.7 2.32.7 2.1 1.44-.51 1.91-1.13 4-1.75 6-1.26 4.15-2.57 8.24-3.4 11-.22.74-.55.6-1.17.45h-.13a1.82 1.82 0 0 0-2.37 1.27 1.84 1.84 0 0 0 1.41 2.38c.79.2 1.88.49 3 .83.94.29 1.88.61 2.71.9h.13a1.86 1.86 0 0 0 2.4-1.23 1.89 1.89 0 0 0-1.4-2.41c-.61-.19-.94-.32-.71-1.06.7-2.13 1.44-4.7 2.22-7.3ZM146.59 45.63c-.21.42-.33.55-.52.45a3.67 3.67 0 0 1-.34-.27 18.71 18.71 0 0 0-2.8-1.78c-.87-.44-1.74-.8-2.64-1.17a9.88 9.88 0 0 0-12.7 4.54c-2 4-1.3 9.3 4.42 12.73.51.31 1.19.66 2 1 2.07 1.06 4.79 2.37 6.75 3.38.72.37 1.32.68 1.75 1l.23.12a2.13 2.13 0 0 0 3-.84c.41-.79.59-2.18-1.37-3.19-.6-.31-.6-.69-.29-1.29.84-1.72 2.82-5.66 4.84-9.58s4.06-7.79 5-9.38c.27-.43.66-.8 1.26-.49H155.33a2.25 2.25 0 0 0 3.18-.79 2.16 2.16 0 0 0-1.29-3c-.4-.16-1.78-.82-3.32-1.62-1-.52-2.06-1.1-2.94-1.61l-.15-.08a2.24 2.24 0 0 0-3.07.95 2.22 2.22 0 0 0 1.16 3l.49.25c.45.33.66.67.36 1.24-1.12 2.19-2.21 4.58-3.16 6.43Zm-2.53 5-2 3.85a93.94 93.94 0 0 1-1.92 3.54c-.79 1.08-.94 1.19-3.43-.09-1.17-.61-2.4-1.29-2.4-1.29-3.5-1.8-3.91-4.63-2.76-6.86a6 6 0 0 1 7.45-3 23.26 23.26 0 0 1 2.21 1c3.04 1.56 3.18 2.22 2.85 2.85ZM102.62 213.08l-.06.11a1.52 1.52 0 0 0 .84 2 1.55 1.55 0 0 0 2.2-.56c.23-.51.52-1.14.85-1.78s.59-1.07.9-1.58v-.08a1.49 1.49 0 0 0-.89-2 1.87 1.87 0 0 0-1.43-.18.38.38 0 0 1-.29-.05.43.43 0 0 1-.18-.12 8.32 8.32 0 0 0-2.74-2.28c-3.81-2-7.34-.56-8.72 2.11a6.22 6.22 0 0 0 1 6.85c1.13 1.43 2.23 3.11 3.1 4.44a4.18 4.18 0 0 1 .5 4.25c-.65 1.25-2.59 2.54-5.42 1.06-1.64-.85-3.62-2.83-2.79-4.41l.07-.14v-.09a1.51 1.51 0 0 0-.79-2.07 1.53 1.53 0 0 0-2.19.55v.06c-.28.6-.66 1.39-1 2.11s-.64 1.16-.91 1.61l-.06.12a1.54 1.54 0 0 0 .77 2.12 1.71 1.71 0 0 0 1.51.08.48.48 0 0 1 .38-.05.62.62 0 0 1 .2.22 9.5 9.5 0 0 0 3.38 2.81c4.11 2.14 8.46.77 10.11-2.4 1.06-2 1-4.78-1-7.72-1-1.38-2.39-3.22-3.24-4.44a3.33 3.33 0 0 1-.49-3.47c.66-1.28 2.37-1.84 4.2-.89 2 1.06 2.82 2.67 2.4 3.48-.06.12-.15.25-.21.33ZM220.49 152.58c1.89-1.05 2.17-2 1.57-13a2.78 2.78 0 0 0-.32-1.2 2.53 2.53 0 0 0-3.44-.77c-1.16.64-1.73 1-2.46 11.79a4.22 4.22 0 0 0 .39 2.19 3.1 3.1 0 0 0 4.26.99ZM229.76 147.51c2.1-1.16 2-2.34.86-12.68a2.79 2.79 0 0 0-.35-1.12 2.5 2.5 0 0 0-3.47-.82 2.7 2.7 0 0 0-1.36 2 92.09 92.09 0 0 0-.36 9.39 4.7 4.7 0 0 0 .44 2.16 3.09 3.09 0 0 0 4.24 1.07ZM154.32 242.15c.72.25 1.08.37 6-3.51a2.38 2.38 0 0 0 .78-1 1.77 1.77 0 0 0-1.22-2.2c-1.17-.41-1.7-.15-6.17 4.35a1.69 1.69 0 0 0-.38.6 1.46 1.46 0 0 0 .99 1.76ZM155.3 235.65a1.78 1.78 0 0 0-1.17-2.23c-1.31-.45-1.77.05-5.76 4.53a1.86 1.86 0 0 0-.34.58 1.44 1.44 0 0 0 1 1.8 1.56 1.56 0 0 0 1.38-.18 53.61 53.61 0 0 0 4.15-3.48 2.64 2.64 0 0 0 .74-1.02ZM28.44 135.78a8.78 8.78 0 0 0 4.9-1.71 7.93 7.93 0 0 0 1.78-11 7.35 7.35 0 0 0-6.09-3 8 8 0 0 0-4.62 1.4c-2.55 1.81-5.14 6.25-2 10.72 1.92 2.71 4.06 3.59 6.03 3.59Zm-4.29-9a5.63 5.63 0 0 1 2-2.79 5.09 5.09 0 0 1 2.88-.84 4.45 4.45 0 0 1 3.64 1.71 4.93 4.93 0 0 1-1.07 6.8 5.92 5.92 0 0 1-3.16 1.16c-.48 0-1.93 0-3.56-2.29a4.11 4.11 0 0 1-.73-3.79ZM51.87 145.16a6.54 6.54 0 0 0-3.79 1.18 6.06 6.06 0 0 0-2.34 5.77c1.22 16 1.73 18.63 2.9 20.27a4.66 4.66 0 0 0 3.88 2 5.23 5.23 0 0 0 3-.94 5.1 5.1 0 0 0 2.06-3.66c.42-4.41.67-12.94.57-18.08a7.07 7.07 0 0 0-1.17-4 6.23 6.23 0 0 0-5.11-2.54Zm2.72 24.24a2.12 2.12 0 0 1-.81 1.54 2.23 2.23 0 0 1-1.26.39 1.74 1.74 0 0 1-1.44-.68c-.79-1.12-1.34-5.5-2.35-18.77v-.07a3.13 3.13 0 0 1 1.09-3 3.55 3.55 0 0 1 2-.62 3.23 3.23 0 0 1 2.67 1.26 4.2 4.2 0 0 1 .61 2.28c.15 5.27-.1 13.56-.51 17.67ZM177 275.11a8 8 0 0 0-4.62 1.4c-2.55 1.81-5.14 6.25-2 10.72 1.89 2.67 4 3.55 6 3.55a8.78 8.78 0 0 0 4.9-1.71 7.93 7.93 0 0 0 1.78-11 7.35 7.35 0 0 0-6.06-2.96Zm2.57 11.51a5.92 5.92 0 0 1-3.16 1.16c-.48 0-1.93 0-3.56-2.29a4.11 4.11 0 0 1-.73-3.75 5.63 5.63 0 0 1 2-2.79 5.09 5.09 0 0 1 2.88-.84 4.45 4.45 0 0 1 3.64 1.71 4.93 4.93 0 0 1-1.04 6.8ZM164.15 21.83a4.28 4.28 0 0 0 2.41-.85 3.89 3.89 0 0 0 .87-5.4 3.58 3.58 0 0 0-3-1.46 4 4 0 0 0-2.27.69 3.73 3.73 0 0 0-1 5.27 3.58 3.58 0 0 0 2.99 1.75Zm-.24-4.58a1.06 1.06 0 0 1 .53-.13c.07 0 .42 0 .55.2a1 1 0 0 1 .15.68.77.77 0 0 1-.32.54 1.45 1.45 0 0 1-.67.29c-.05 0-.24-.12-.5-.49a.75.75 0 0 1 .26-1.09ZM277.87 203.53a5.31 5.31 0 0 0 3-1 4.8 4.8 0 0 0 1.07-6.65 4.43 4.43 0 0 0-3.68-1.8 4.84 4.84 0 0 0-2.79.85 4.59 4.59 0 0 0-1.2 6.48 4.39 4.39 0 0 0 3.6 2.12Zm-.7-6.19a1.92 1.92 0 0 1 1.06-.29 1.54 1.54 0 0 1 1.24.54 1.8 1.8 0 0 1-.37 2.46 2.34 2.34 0 0 1-1.23.48c-.13 0-.55 0-1.18-.89a1.65 1.65 0 0 1 .48-2.3ZM122.3 254.55a5.49 5.49 0 0 0-1.26-.15c-2.52 0-4.81 1.73-5.52 4.87-1 4.22 1.62 8.85 1.81 8.9 0 0 11.14-5.65 11.3-6.37.05-.19-2.05-6.28-6.33-7.25Zm-3.55 9.51a8.41 8.41 0 0 1-.31-4.13c.36-1.58 1.33-2.53 2.6-2.53a3.06 3.06 0 0 1 .59.07c1.37.31 2.55 1.91 3.3 3.25-1.5.86-3.81 2.11-6.18 3.34ZM139.8 269.3c2.38 0 2.94-2.44 3-2.61.65-2.88-2.37-4-3-4.18a4.36 4.36 0 0 0-.94-.1 8.73 8.73 0 0 0-4.11 1.43c-.06 0-.12.07-.13.12a.58.58 0 0 0 .06.37c1.33 2.82 2.24 4.4 4.25 4.85a4.09 4.09 0 0 0 .87.12Zm-1-3.89a1.18 1.18 0 0 1 .27 0 2 2 0 0 1 .8.48.58.58 0 0 1 0 .1 1.09 1.09 0 0 1-.11.27h-.2c-.31-.07-.57-.25-1-.84Z"/><path class="cls-2" d="M139.5 277.38a11.1 11.1 0 0 0 10.73-8.84 11.69 11.69 0 0 0-1.6-9.17 11.15 11.15 0 0 0-6.66-4.68 10.62 10.62 0 0 0-2.34-.26 14.77 14.77 0 0 0-5.47 1.17c-2-4.17-4.81-7.83-10.14-9a13.19 13.19 0 0 0-2.94-.33 13.91 13.91 0 0 0-13.41 11.15 20.24 20.24 0 0 0 1.27 12.18 13.55 13.55 0 0 0-5.32 7.81c-1.76 7.72 3.15 9.25 4.15 9.48a5.64 5.64 0 0 0 1.3.15 5.55 5.55 0 0 0 5.53-4.2 5.41 5.41 0 0 0 0-2.16 1.59 1.59 0 0 1 0-.66 2.56 2.56 0 0 1 .66-1.06 45.51 45.51 0 0 0 6.36 5.61 5.63 5.63 0 0 0 .85 3.09 5.47 5.47 0 0 0 4.59 2.54 5.75 5.75 0 0 0 5.47-4.83v-.07c.14-.79.42-2 .69-3.21s.56-2.47.82-3.4v-.34a6 6 0 0 0 .1-2.23 11.37 11.37 0 0 0 2.81 1 11.1 11.1 0 0 0 2.55.26Zm-8.84-10.72a.27.27 0 0 0-.21-.2.45.45 0 0 0-.25.09c-2.92 1.71-6.34 3.66-9.58 5.44-.18.12-.24.15-.26.25-.12.53 5.44 5 5.68 5 .11 0 .17-.09.2-.25.17-.73.64-2.61 2.43-2.61a2.91 2.91 0 0 1 .68.08 2.47 2.47 0 0 1 1.86 3.15l-.05.19c-.28 1-.56 2.25-.86 3.55s-.56 2.49-.71 3.37a2.77 2.77 0 0 1-2.53 2.4 2 2 0 0 1-.53-.07 2.59 2.59 0 0 1-1.82-3.34v-.05c0-.39 0-.64-.3-.87a41.41 41.41 0 0 1-8.54-7.76.85.85 0 0 0-.22-.15h-.07a.45.45 0 0 0-.25.09c-2.15 1.43-3.32 2.83-3.66 4.32a4.66 4.66 0 0 0 0 1.86 2.35 2.35 0 0 1 0 1 2.59 2.59 0 0 1-2.6 1.86 3.48 3.48 0 0 1-.64-.07c-.81-.19-3-1.09-1.89-5.89.59-2.59 2.25-5 6-7.28a.34.34 0 0 0 .14-.17.47.47 0 0 0-.07-.37c-.54-1-3.34-6.22-2-12.18a10.85 10.85 0 0 1 10.49-8.81 10.25 10.25 0 0 1 2.27.25c4.61 1.05 7 4.31 9.14 9.81.07.12.15.24.24.26h.06a.31.31 0 0 0 .16-.06 14.25 14.25 0 0 1 6.68-2.07 7.66 7.66 0 0 1 1.68.18 8.42 8.42 0 0 1 6 10.26 8 8 0 0 1-7.81 6.51 7.61 7.61 0 0 1-1.76-.2c-3.39-.77-5.12-2.93-7.1-7.52Zm-.92 4.85a6.27 6.27 0 0 0-1-.09 5.62 5.62 0 0 0-1.18.13l1.69-1c.13.35.31.66.49.96ZM51.23 0h-3.79l2.13 2.76c.84-.61 1.66-1.18 2.47-1.7Z"/><path class="cls-2" d="M40.25 17.16a42 42 0 0 1 3.29-4.62A46.84 46.84 0 0 1 60.19 0h-6.43C53.2.33 52.63.68 52 1.06c-.81.52-1.63 1.09-2.47 1.7a45.61 45.61 0 0 0-8.35 7.88 46.28 46.28 0 0 0-6.49 10.66 1.5 1.5 0 0 0 .42 1.76 1.46 1.46 0 0 0 1 .34 1.51 1.51 0 0 0 .86-.27L70.13 0h-5.25ZM293.93 243.7h-.05l-1.71-2.46a4 4 0 0 1 1.38-.6c-.06-.82-.11-1.66-.11-2.5a31.74 31.74 0 0 1 1.78-10.49 9.42 9.42 0 0 1-1.09.09v-3a3.31 3.31 0 0 0 2.24-.68 3 3 0 0 0 .64-1 6.13 6.13 0 0 1 1.55-2.24l.1-.08c.43-.67.89-1.33 1.38-2v-4.62a34.94 34.94 0 0 0 0 48v-4.63a31.93 31.93 0 0 1-6.11-13.79Z"/><path class="cls-2" d="M298.47 231.65c-.87.61-2.72 2.19-2.62 4.42a5.18 5.18 0 0 0 1.39 3 9.65 9.65 0 0 0 2.18 2.08c.26.2.44.33.58.46v-3.91c-.12-.14-.24-.28-.37-.45-.56-.72-.76-1-.78-1.32a2.49 2.49 0 0 1 1.15-1.68v-4l-.26.16a5.6 5.6 0 0 0-1.27 1.24ZM293.88 243.72h.05a1.34 1.34 0 0 1 .94-.14 1.93 1.93 0 0 1 1.23.84 2 2 0 0 0 .27.31 7.12 7.12 0 0 0 3.63 1.76v-3.06a4.5 4.5 0 0 1-1.53-.86 4.91 4.91 0 0 0-3-1.94 4.57 4.57 0 0 0-1.88 0 4 4 0 0 0-1.38.6ZM297 223.05a3 3 0 0 1-.64 1 3.31 3.31 0 0 1-2.24.68v3a9.42 9.42 0 0 0 1.09-.09 5.62 5.62 0 0 0 3.16-1.4 5.87 5.87 0 0 0 1.31-2c.11-.23.2-.43.31-.62v-3.84a6.12 6.12 0 0 0-1.38.88l-.1.08a6.13 6.13 0 0 0-1.51 2.31ZM0 39.15l8.46-7.8a1.51 1.51 0 0 0 .1-2.11L0 19.75v4.48l5.34 5.92L0 35.07ZM256.38 281.22l1.15-.87-1-1.09a1.49 1.49 0 0 0-1.6-.44 46.2 46.2 0 0 0-21.72 15.51 45.54 45.54 0 0 0-3.69 5.67H233a45.87 45.87 0 0 1 2.61-3.85A43.22 43.22 0 0 1 255 282l15.76 18h4l-15.21-17.39-1.31 1Z"/><path class="cls-2" d="m260.53 278.05-3 2.3-1.15.87 1.82 2.39 1.31-1 1.75-1.34L278.14 300h4.05l-19.63-21.76a1.51 1.51 0 0 0-2.03-.19ZM294.82 26.69l-.58.17.69.79A52.37 52.37 0 0 0 265.49 61a7.34 7.34 0 0 0-2.4-.49c0 .31-.12.62-.16.93l-1.35-.21-2 1.66-.72 1.66-.34-.15c-.42-.18-.9-.39-1.45-.61a7.57 7.57 0 0 0-.87 1.94 54.35 54.35 0 0 0-15.25 3 56.34 56.34 0 0 0-23.4 16l-.72-1-1.38-.59-1.35-.64c.21-.45.47-1 .75-1.5l-32.53-44.73a43.52 43.52 0 0 1 42.3-15.66l-.34-.42 2.33-1.89.37.46A43.52 43.52 0 0 1 233 0h-3.46a46.69 46.69 0 0 0-5.47 17.47 46.48 46.48 0 0 0-44.84 17.87 1.49 1.49 0 0 0 0 1.78l.88 1.21.5-.33 1.66 2.49-.4.27 34.36 47.36a1.47 1.47 0 0 0 1.17.62 1.51 1.51 0 0 0 1.16-.54 53.47 53.47 0 0 1 23.34-16.54 51.72 51.72 0 0 1 15.55-2.92 1.49 1.49 0 0 0 1.44-1.34 4.29 4.29 0 0 1 2.93-3.72 4.41 4.41 0 0 1 3.67.75 1.49 1.49 0 0 0 1.41.23 1.53 1.53 0 0 0 1-1 49.35 49.35 0 0 1 30.08-34 1.49 1.49 0 0 0 .59-2.38L274.72 0h-4l21.32 24.37c.71-.22 1.39-.42 2-.58Z"/><path class="cls-2" d="m226.61 18.3-2.33 1.89.34.42 32.65 40.1c1 .38 1.81.74 2.43 1l.34.15-.47 1.14 2-1.66L260 61c.07-.48.17-1 .26-1.43L227 18.76Z"/><path class="cls-2" d="m261.58 61.26 1.35.21c0-.31.11-.62.16-.93a41.74 41.74 0 0 1 6.59-16.45 43.73 43.73 0 0 1 24.56-17.23l.58-.17-.76-2.9c-.61.16-1.29.36-2 .58a46.59 46.59 0 0 0-24.86 18 44.67 44.67 0 0 0-7 17.19c-.09.47-.19.95-.26 1.43ZM238 59.82c-12.8 4.27-20 15.35-23.13 21.28-.28.54-.54 1.05-.75 1.5l1.35.64 1.38.59c1.84-3.85 8.87-16.76 22.1-21.16 7.62-2.54 14.38-.35 18.14 1.19.55.22 1 .43 1.45.61l.34.15.72-1.66.47-1.09-.34-.15c-.62-.27-1.45-.63-2.43-1-4.21-1.6-11.39-3.55-19.3-.9ZM278.14 0 300 24.23v-4.48L282.19 0h-4.05z"/><path class="cls-2" d="m180.61 38-.5.33-2.5 1.67a1.5 1.5 0 0 0-.64 1 1.47 1.47 0 0 0 .24 1.13l37 54a1.49 1.49 0 0 0 2 .46L258.46 73a8.09 8.09 0 0 0 7.78-.44 8.27 8.27 0 0 0 3.61-5.56L300 39.15v-4.08l-32.57 30.07a1.44 1.44 0 0 0-.48 1 5.41 5.41 0 0 1-2.31 3.86 5.24 5.24 0 0 1-5.43 0 1.49 1.49 0 0 0-1.5 0l-41.8 23.34-35.37-51.69 1.33-.89.4-.27Z"/></g></g></svg>