<svg xmlns="http://www.w3.org/2000/svg" viewBox="0 0 300 300"><defs><style>.cls-1{fill:none;}.cls-2{fill:#fff;}</style></defs><title>Math Madness</title><g id="Layer_2" data-name="Layer 2"><g id="Layer_1-2" data-name="Layer 1"><path class="cls-1" d="M19,163.7a3.72,3.72,0,0,0,3.17.7,3.37,3.37,0,0,0,2.61-1.79,5,5,0,0,0,.39-3.18,5.3,5.3,0,0,0-1.35-2.65,3.39,3.39,0,0,0-3.3-.77A4.08,4.08,0,0,0,18,157.53a4,4,0,0,0-.61,3.31A4.62,4.62,0,0,0,19,163.7Z"/><path class="cls-1" d="M267.43,73.24a5.34,5.34,0,0,0-1.66-1.14,5.11,5.11,0,0,0-2-.41,4.78,4.78,0,0,0-2.07.44A5.57,5.57,0,0,0,260,73.29a5.46,5.46,0,0,0-1.12,1.7,5.1,5.1,0,0,0-.42,2,4.68,4.68,0,0,0,.44,2,6.18,6.18,0,0,0,1.17,1.68,5.59,5.59,0,0,0,1.69,1.14,5,5,0,0,0,2,.41,4.81,4.81,0,0,0,2-.44,5.57,5.57,0,0,0,1.66-1.16A5.81,5.81,0,0,0,268.55,79a5,5,0,0,0,0-4A5.81,5.81,0,0,0,267.43,73.24Z"/><polygon class="cls-1" points="170.94 88.79 185.49 97.44 195.2 103.2 219.45 89.04 195.19 75.11 170.94 88.79"/><path class="cls-1" d="M121.49,212.72c3.86-.09,5.49-.13,7.19-3.3l-11.54-9.12,3.28,12.45Z"/><polygon class="cls-1" points="122.56 39.61 125.66 33.17 118.45 37.64 122.56 39.61"/><circle class="cls-1" cx="116.44" cy="116.24" r="5.5"/><path class="cls-1" d="M212.94,34.09l-11.43-8.26A14.63,14.63,0,0,0,197.71,38Z"/><path class="cls-1" d="M57.84,58c10.68-5.53,17.47-14.49,14.84-19.58L55.16,4.59s0,0,0,0c-.12.36-.26.73-.41,1.1,0,.09-.07.17-.11.26-.15.34-.31.69-.49,1l-.06.13c-.2.37-.41.75-.65,1.14-.05.09-.11.18-.17.27q-.36.59-.78,1.17A39.19,39.19,0,0,1,38.7,21a39.1,39.1,0,0,1-17.17,4.73h-.4c-.55,0-1.08,0-1.59-.07l-.41,0c-.46,0-.91-.11-1.35-.18l-.41-.08c-.48-.09-.95-.21-1.4-.34L15.81,25h0L33.29,58.82C35.93,63.91,47.17,63.53,57.84,58Z"/><polygon class="cls-1" points="236.69 146.86 238.74 145.81 236.94 142.27 236.69 146.86"/><path class="cls-1" d="M239.29,62.77A5.59,5.59,0,0,0,241,63.91a5.21,5.21,0,0,0,4.05,0,5.67,5.67,0,0,0,1.68-1.14,5.59,5.59,0,0,0,1.17-1.67,4.6,4.6,0,0,0,.44-2,5.05,5.05,0,0,0-.41-2,5.36,5.36,0,0,0-1.15-1.67,5.81,5.81,0,0,0-1.71-1.16,5,5,0,0,0-4.07,0,5.39,5.39,0,0,0-1.69,1.13,5.25,5.25,0,0,0-1.14,1.69,5.1,5.1,0,0,0-.42,2,4.88,4.88,0,0,0,.42,2A5.17,5.17,0,0,0,239.29,62.77Z"/><polygon class="cls-1" points="267.16 250.12 273 248.64 270.91 240.37 267.16 250.12"/><path class="cls-1" d="M258.58,134a1.21,1.21,0,0,0-1.08-.16,1.24,1.24,0,0,0-.7.47,1.62,1.62,0,0,0-.12,1.46,1.89,1.89,0,0,0,.66,1.09,1.4,1.4,0,0,0,1.72-.29,1.49,1.49,0,0,0,.21-1.48A1.92,1.92,0,0,0,258.58,134Z"/><path class="cls-1" d="M277.79,165a23.6,23.6,0,0,0-18.14,1.22,23.57,23.57,0,0,0-11.41,12.29l22.44,7.57-1,2.84-22.46-7.57a23.75,23.75,0,1,0,44.21-4.4A23.53,23.53,0,0,0,277.79,165Z"/><polygon class="cls-1" points="169.44 119.73 193.69 133.65 193.69 105.8 169.44 91.39 169.44 119.73"/><polygon class="cls-1" points="196.69 133.65 220.94 119.73 220.94 91.64 196.69 105.81 196.69 133.65"/><path class="cls-2" d="M30.63,60.2c1.79,3.47,6,5.21,11.3,5.21,5.07,0,11.18-1.58,17.29-4.74,12.54-6.49,19.62-16.86,16.12-23.62L56.16,0h-3.6C53,2.2,52.16,5,50,8A36.22,36.22,0,0,1,37.32,18.37a36.23,36.23,0,0,1-15.81,4.39c-4.32,0-7.55-1.27-8.74-3.58C10.2,14.21,16.64,5.55,26.89,0H21.12c-9.26,6.38-14,14.79-11,20.56ZM15.81,25,16,25c.45.13.92.25,1.4.34l.41.08c.44.07.89.14,1.35.18l.41,0c.51,0,1,.07,1.59.07h.4A39.1,39.1,0,0,0,38.7,21,39.19,39.19,0,0,0,52.47,9.74q.42-.59.78-1.17c.06-.09.12-.18.17-.27.24-.39.45-.77.65-1.14L54.13,7c.18-.34.34-.69.49-1,0-.09.08-.17.11-.26.15-.37.29-.74.41-1.1,0,0,0,0,0,0L72.68,38.43c2.63,5.09-4.16,14-14.84,19.58s-21.91,5.9-24.55.81L15.77,25Z"/><path class="cls-2" d="M17.37,165.38a6.35,6.35,0,0,0,5,1.2,6.06,6.06,0,0,0,4.46-2.89,7,7,0,0,0,.86-4.93,5.79,5.79,0,0,0-2.62-4.25,6.34,6.34,0,0,0-4.48-.77,6,6,0,0,0-2.46,1,5.19,5.19,0,0,0-1.75,2.19,10.76,10.76,0,0,1,.35-5.57,3.7,3.7,0,0,1,2.86-2.45,3.08,3.08,0,0,1,2.85.73,4.44,4.44,0,0,1,1,1.65l2.37-.44A5.67,5.67,0,0,0,24,147.66q-1.57-1.44-4.77-.85c-3,.54-4.7,2.49-5.24,5.86a18.75,18.75,0,0,0,.23,6.21C14.76,162.1,15.83,164.26,17.37,165.38Zm.65-7.85A4.08,4.08,0,0,1,20.55,156a3.39,3.39,0,0,1,3.3.77,5.3,5.3,0,0,1,1.35,2.65,5,5,0,0,1-.39,3.18,3.37,3.37,0,0,1-2.61,1.79,3.72,3.72,0,0,1-3.17-.7,4.62,4.62,0,0,1-1.62-2.86A4,4,0,0,1,18,157.53Z"/><path class="cls-2" d="M146.58,280.8l8.52,2.08a27.85,27.85,0,0,0-4.18,3.66,27.15,27.15,0,0,0-5.36,8l2.14.52c.71-1.49,1.26-2.57,1.64-3.23a26.65,26.65,0,0,1,2.31-3.32,26,26,0,0,1,3.12-3.32,18.74,18.74,0,0,1,2.58-2l.42-1.68-10.72-2.62Z"/><path class="cls-2" d="M278.74,162.14a26.75,26.75,0,1,0,16.8,33.9A26.59,26.59,0,0,0,278.74,162.14Zm14,32.94a23.75,23.75,0,0,1-45.44-13.74l22.46,7.57,1-2.84-22.44-7.57a23.73,23.73,0,0,1,21.94-14.77,23.81,23.81,0,0,1,7.61,1.26,23.75,23.75,0,0,1,14.91,30.09Z"/><path class="cls-2" d="M56.9,178.24A47.82,47.82,0,0,0,0,200.14v7a44.73,44.73,0,1,1,1.55,36.24C1,242.2.47,241,0,239.85v7a47.67,47.67,0,0,0,62.84,19.42,47.75,47.75,0,0,0-5.94-88Z"/><path class="cls-2" d="M156.23,51.64l60.56-15.43a1.52,1.52,0,0,0,1.1-1.18,1.49,1.49,0,0,0-.59-1.49L170.88,0h-5.12l33.31,24.07a17.57,17.57,0,0,0-4.28,14.65l-39.31,10Zm45.28-25.81,11.43,8.26L197.71,38A14.63,14.63,0,0,1,201.51,25.83Z"/><path class="cls-2" d="M113.72,195.08a1.51,1.51,0,0,0-.63,1.64l17.69,67,2.9-.76-12.47-47.26h.35c4-.09,7-.18,9.49-4.43l44.46,35.13,1.86-2.35-61.9-48.91A1.5,1.5,0,0,0,113.72,195.08Zm15,14.34c-1.7,3.17-3.33,3.21-7.19,3.3l-1.07,0-3.28-12.45Z"/><path class="cls-2" d="M237.32,64.78a8.09,8.09,0,0,0,2.56,1.73,7.64,7.64,0,0,0,3.12.64,7.82,7.82,0,0,0,3.15-.64,8.23,8.23,0,0,0,2.59-1.73,8.09,8.09,0,0,0,1.73-2.56,7.84,7.84,0,0,0,.63-3.12,8,8,0,0,0-.63-3.15,8.11,8.11,0,0,0-1.73-2.59,8.23,8.23,0,0,0-2.59-1.73A8,8,0,0,0,243,51a7.5,7.5,0,0,0-3.12.66,8.52,8.52,0,0,0-2.56,1.76A8.24,8.24,0,0,0,235.58,56a8.07,8.07,0,0,0,0,6.25A8.12,8.12,0,0,0,237.32,64.78Zm.83-7.72a5.25,5.25,0,0,1,1.14-1.69A5.39,5.39,0,0,1,241,54.24a5,5,0,0,1,4.07,0,5.81,5.81,0,0,1,1.71,1.16,5.36,5.36,0,0,1,1.15,1.67,5.05,5.05,0,0,1,.41,2,4.6,4.6,0,0,1-.44,2,5.59,5.59,0,0,1-1.17,1.67A5.67,5.67,0,0,1,245,63.91a5.21,5.21,0,0,1-4.05,0,5.59,5.59,0,0,1-1.69-1.14,5.17,5.17,0,0,1-1.14-1.67,4.88,4.88,0,0,1-.42-2A5.1,5.1,0,0,1,238.15,57.06Z"/><path class="cls-2" d="M271.75,76.93a8.1,8.1,0,0,0-2.3-5.7,8,8,0,0,0-2.53-1.74,8.07,8.07,0,0,0-6.25,0,8.29,8.29,0,0,0-2.56,1.74,8.7,8.7,0,0,0-1.76,2.57,7.54,7.54,0,0,0-.66,3.13,7.87,7.87,0,0,0,.64,3.16,8.16,8.16,0,0,0,1.73,2.6,8,8,0,0,0,2.59,1.73,7.8,7.8,0,0,0,3.14.64,7.69,7.69,0,0,0,3.13-.64,7.85,7.85,0,0,0,2.53-1.73,8.06,8.06,0,0,0,1.69-2.6A8.39,8.39,0,0,0,271.75,76.93Zm-3.2,2a5.81,5.81,0,0,1-1.12,1.68,5.57,5.57,0,0,1-1.66,1.16,4.81,4.81,0,0,1-2,.44,5,5,0,0,1-2-.41,5.59,5.59,0,0,1-1.69-1.14A6.18,6.18,0,0,1,258.91,79a4.68,4.68,0,0,1-.44-2,5.1,5.1,0,0,1,.42-2,5.46,5.46,0,0,1,1.12-1.7,5.57,5.57,0,0,1,1.66-1.16,4.78,4.78,0,0,1,2.07-.44,5.11,5.11,0,0,1,2,.41,5.34,5.34,0,0,1,1.66,1.14,5.81,5.81,0,0,1,1.12,1.68,5,5,0,0,1,0,4Z"/><polygon class="cls-2" points="261.74 50.65 242.37 85.74 244.91 85.74 264.28 50.65 261.74 50.65"/><rect class="cls-2" x="10.9" y="106.26" width="15.1" height="2.53" transform="translate(-6.64 1.35) rotate(-3.56)"/><rect class="cls-2" x="10.46" y="99.11" width="15.1" height="2.53" transform="translate(-6.2 1.31) rotate(-3.56)"/><polygon class="cls-2" points="55.16 94.62 51.94 94.82 49.41 104.62 49.28 105.15 48.73 105.19 48.67 105.19 48.13 105.22 47.93 104.72 44.21 95.3 41 95.5 47.45 110.45 47.5 110.57 47.51 110.7 47.84 116.08 50.92 115.89 50.59 110.51 50.58 110.38 50.61 110.25 55.16 94.62"/><polygon class="cls-2" points="133.33 20.79 130.52 19.44 103.1 37.91 105.91 39.25 133.33 20.79"/><path class="cls-2" d="M107.69,27.23a6.5,6.5,0,0,0,4.53.55,4.82,4.82,0,0,0,3.24-2.73,3.86,3.86,0,0,0,.3-3.11q-.53-1.39-1.08-1.62a4,4,0,0,0,2.08-.52,3.67,3.67,0,0,0,1.39-1.65,4,4,0,0,0,0-3.56,6.54,6.54,0,0,0-3.28-3,6.6,6.6,0,0,0-3.9-.76,5,5,0,0,0-3.68,3.09l2.95,1.42A4.14,4.14,0,0,1,111.3,14a2.13,2.13,0,0,1,2.29-.06,2.3,2.3,0,0,1,1.31,1.35,2.05,2.05,0,0,1-.07,1.53,2,2,0,0,1-2,1.34,6.84,6.84,0,0,1-2.33-.74l-1,2.1a9.3,9.3,0,0,1,2.35,1.56,2,2,0,0,1,.24,2.42,2.36,2.36,0,0,1-2,1.53,2.89,2.89,0,0,1-1.44-.29,2.4,2.4,0,0,1-1.59-2A3.82,3.82,0,0,1,107.4,21l-3.16-1.51a6.52,6.52,0,0,0-.6,3.47Q104.11,25.5,107.69,27.23Z"/><path class="cls-2" d="M126.62,30,116.2,36.22,115,38.8l6.5,3.12-1.56,3.24,3.29,1.58,1.56-3.24,1.68.81L127.54,42l-1.68-.8,4.51-9.4Zm-4.06,9.61-4.11-2,7.21-4.47Z"/><polygon class="cls-2" points="93.9 97.39 130.55 74.93 128.18 72.97 96.5 92.4 103.17 75.29 94.85 73.8 94.37 76.18 98.96 76.85 91.81 95.66 93.9 97.39"/><polygon class="cls-2" points="219.38 208.05 215.87 205.57 206.78 218.44 193.91 209.35 191.44 212.86 204.31 221.95 195.22 234.82 198.73 237.3 207.81 224.43 220.68 233.52 223.16 230.01 210.29 220.92 219.38 208.05"/><path class="cls-2" d="M83.61,139.05l2,1.92L73.89,153.3l2.5,2.38,11.74-12.32,6.71,6.39-8.62,9.06A9.46,9.46,0,0,0,85,160.3a4.57,4.57,0,0,0-.74,1.48,2.5,2.5,0,0,0,.13,1.5,3.86,3.86,0,0,0,1.11,1.62,14.19,14.19,0,0,0,2.16,1.8l2.06-2.17a5.48,5.48,0,0,1-1.3-1q-1.08-1,.39-2.46l8.52-8.95,2,1.91,2.08-2.18-15.76-15Z"/><path class="cls-2" d="M224.14,153.23a1.33,1.33,0,0,0-.82.07,1.55,1.55,0,0,0,.23-.76,2,2,0,0,0-.41-1.39,2.31,2.31,0,0,0-1.73-1,3.26,3.26,0,0,0-2.13.7,3.71,3.71,0,0,0-.87.85,2.6,2.6,0,0,0-.39.89,2.93,2.93,0,0,0,0,1.22,4.52,4.52,0,0,0,.58,1.19l1.36-1a1.75,1.75,0,0,1-.4-1.05,1.09,1.09,0,0,1,.52-.88,1.12,1.12,0,0,1,.9-.24,1.17,1.17,0,0,1,.75.51,1.06,1.06,0,0,1,.15,1.23,3.54,3.54,0,0,1-.9.86l.76,1a3.66,3.66,0,0,1,1.17-.64,1.19,1.19,0,0,1,1.31.55,1.34,1.34,0,0,1,.29,1.08,1.27,1.27,0,0,1-.54.84,1.22,1.22,0,0,1-1.36.17,2.13,2.13,0,0,1-.68-.64l-1.44,1a3.84,3.84,0,0,0,1.41,1.18,2.88,2.88,0,0,0,2.94-.57,3.07,3.07,0,0,0,1.42-2.12,2.94,2.94,0,0,0-.55-2.14A2.23,2.23,0,0,0,224.14,153.23Z"/><rect class="cls-2" x="227.71" y="153.5" width="1.92" height="1.89" transform="translate(-47.25 150.59) rotate(-33.23)"/><path class="cls-2" d="M230.17,143.83l-1.3.76a1.92,1.92,0,0,1,.13.36,1.57,1.57,0,0,1,0,.74,1.72,1.72,0,0,1-.52.87,7.74,7.74,0,0,1-1,.71l.63,1.06,1.86-1.1,3.22,5.47,1.6-.94Z"/><path class="cls-2" d="M241.25,144.54l-.93.47-2.6-5.13-1.81.92-.49,6.51.71,1.41,3.25-1.64.9,1.76,1.58-.8-.9-1.76.93-.48Zm-4.57,2.32.26-4.59,1.8,3.54Z"/><path class="cls-2" d="M245.86,146.22l1.71-.73L243.93,137l-1.38.6a1.39,1.39,0,0,1,.08.36,1.51,1.51,0,0,1-.06.75,1.71,1.71,0,0,1-.63.79,7.52,7.52,0,0,1-1.06.58l.49,1.13,2-.85Z"/><path class="cls-2" d="M252.38,142.32a1.17,1.17,0,0,1-.94,0,1.8,1.8,0,0,1-.7-.72l-1.7.6a2.74,2.74,0,0,0,1.56,1.57,3.3,3.3,0,0,0,2.27-.06,3,3,0,0,0,2-1.77,3.53,3.53,0,0,0,0-2.42,2.77,2.77,0,0,0-3.69-1.87,2.62,2.62,0,0,0-.85.46,3,3,0,0,0-.5.56l-.36-2L253,135.4l-.51-1.45-4.78,1.7,1.1,5,1.55-.48a1.18,1.18,0,0,1,.42-.74,1.53,1.53,0,0,1,.51-.27,1.15,1.15,0,0,1,1.13.11,2.06,2.06,0,0,1,.71,1,2,2,0,0,1,.07,1.24A1.21,1.21,0,0,1,252.38,142.32Z"/><path class="cls-2" d="M259.22,140.13a1,1,0,0,1-1.29-.58l-1.73.49a2.39,2.39,0,0,0,1.4,1.46,3.15,3.15,0,0,0,4.24-2.79,8,8,0,0,0-.36-2.79,7.31,7.31,0,0,0-1.19-2.55,3.16,3.16,0,0,0-5.16.5,3.38,3.38,0,0,0-.17,2.54,2.81,2.81,0,0,0,1.42,1.86,2.87,2.87,0,0,0,2.09.2,2.42,2.42,0,0,0,1.11-.64,2,2,0,0,0,.38-.6,5.59,5.59,0,0,1,.2,1.6A1.3,1.3,0,0,1,259.22,140.13Zm-.16-3.59a1.4,1.4,0,0,1-1.72.29,1.89,1.89,0,0,1-.66-1.09,1.62,1.62,0,0,1,.12-1.46,1.24,1.24,0,0,1,.7-.47,1.21,1.21,0,0,1,1.08.16,1.92,1.92,0,0,1,.69,1.09A1.49,1.49,0,0,1,259.06,136.54Z"/><path class="cls-2" d="M264.85,136.06a5.11,5.11,0,0,0-1.37,2.29,4.16,4.16,0,0,0,0,1.86l6.16-1.35-.34-1.55-3.93.85a1.76,1.76,0,0,1,.31-.57c.13-.18.38-.47.76-.89l.59-.65a6,6,0,0,0,1-1.43,2.89,2.89,0,0,0,.2-1.9,2.75,2.75,0,0,0-1.3-1.91,3.21,3.21,0,0,0-2.44-.3,2.66,2.66,0,0,0-2.22,1.9,4.63,4.63,0,0,0,0,1.94L264,134a3.07,3.07,0,0,1,0-1.15,1.13,1.13,0,0,1,1-.84,1.1,1.1,0,0,1,1,.18,1.5,1.5,0,0,1,.53.88,1.91,1.91,0,0,1-.27,1.41A14.06,14.06,0,0,1,264.85,136.06Z"/><rect class="cls-2" x="270.66" y="136.64" width="1.92" height="1.89" transform="translate(-19.09 47.07) rotate(-9.57)"/><rect class="cls-2" x="274.19" y="136.1" width="1.92" height="1.89" transform="translate(-15.99 38.42) rotate(-7.76)"/><rect class="cls-2" x="277.74" y="135.67" width="1.92" height="1.89" transform="translate(-12.65 29.6) rotate(-5.95)"/><path class="cls-2" d="M194.46,72.07,167.21,87.45h0l-.12.1a.94.94,0,0,0-.19.14.64.64,0,0,0-.1.13,1.24,1.24,0,0,0-.14.18.94.94,0,0,0-.06.15.78.78,0,0,0-.09.21.86.86,0,0,0,0,.17,1.52,1.52,0,0,0,0,.21h0v31.83a1.51,1.51,0,0,0,.76,1.31l27.24,15.64h0a.88.88,0,0,0,.22.1l.14.05a1.2,1.2,0,0,0,.38.05,1.31,1.31,0,0,0,.39-.05l.14-.05a1.07,1.07,0,0,0,.22-.1h0l27.25-15.64a1.5,1.5,0,0,0,.75-1.31V89h0a1.52,1.52,0,0,0,0-.21.55.55,0,0,0,0-.18c0-.06,0-.11-.07-.17s0-.13-.08-.19a1.47,1.47,0,0,1-.1-.13c0-.06-.09-.12-.14-.17a1,1,0,0,0-.31-.24L195.94,72.08A1.5,1.5,0,0,0,194.46,72.07Zm-.77,61.58-24.25-13.92V91.39l24.25,14.41Zm27.25-13.92-24.25,13.92V105.81l24.25-14.17ZM195.2,103.21l-9.71-5.77-14.55-8.65,24.25-13.68L219.45,89Z"/><path class="cls-2" d="M192.27,180.61l2.43,1.75L205.05,168a1.52,1.52,0,0,0,.19-1.4,1.54,1.54,0,0,0-1.06-.94l-16.39-3.89-.69,2.92,13.15,3.12a74.67,74.67,0,0,1-45.4-5.15c-22.76-10.45-32.59-29.58-36-38.27a8.51,8.51,0,1,0-3.09.31c3.28,8.66,13.43,29.47,37.86,40.69a75.86,75.86,0,0,0,31.79,6.86,79.72,79.72,0,0,0,13.75-1.19Zm-81.33-64.37a5.5,5.5,0,1,1,5.5,5.5A5.51,5.51,0,0,1,110.94,116.24Z"/><path class="cls-2" d="M284.21,13.62,283,8.92,248.83,17.6a12.35,12.35,0,0,1-.22-4.16,13.47,13.47,0,0,1,1-3.72,20.77,20.77,0,0,1,1.82-3.38c.72-1.08,1.47-2.12,2.27-3.12A36.14,36.14,0,0,1,256.56,0h-6.65a48,48,0,0,0-4.82,7.62A17.23,17.23,0,0,0,243,15.55a38,38,0,0,0,1.07,8.25Z"/><polygon class="cls-2" points="159.34 295.37 165.76 300 170.88 300 161.1 292.93 159.34 295.37"/><polygon class="cls-2" points="288.56 108.54 288.75 108.86 288.6 109.2 284.08 119.74 287.28 119.54 290.15 112.41 290.74 110.95 291.5 112.32 295.25 119.05 298.44 118.85 292.65 108.95 292.46 108.63 292.6 108.28 296.91 97.94 293.64 98.14 291.06 105.06 290.47 106.63 289.69 105.14 286.27 98.6 283.02 98.8 288.56 108.54"/><path class="cls-2" d="M270.57,262.81a15,15,0,0,0-5-4.47,18,18,0,0,0-6.83-2.11,25.4,25.4,0,0,0-16.33,4.24,18.26,18.26,0,0,0-5.27,5.69,18.46,18.46,0,0,0-2.39,7.36,24.1,24.1,0,0,0,.69,8.58l5.92-1.5a15.78,15.78,0,0,1-.72-6.12,15.33,15.33,0,0,1,1.51-5.57,14.11,14.11,0,0,1,3.41-4.43,12.31,12.31,0,0,1,5.2-2.66,16.81,16.81,0,0,1,5.52-.52,12.35,12.35,0,0,1,4.89,1.4,12.14,12.14,0,0,1,3.89,3.27,13.4,13.4,0,0,1,2.39,5,13.64,13.64,0,0,1,.26,6.51,16.05,16.05,0,0,1-2.42,5.43,32,32,0,0,1-4.28,5q-2.52,2.44-5.31,5.33t-5.56,6.37l-.25.33h6.65c.46-.47.93-.93,1.43-1.39q2.47-2.3,5-4.75t4.87-5.07a29.36,29.36,0,0,0,3.94-5.64,20.32,20.32,0,0,0,2.16-6.47,18.87,18.87,0,0,0-.49-7.56A18.64,18.64,0,0,0,270.57,262.81Z"/><path class="cls-2" d="M278,247.36l-2.68.68-3-11.84-1.94.49L265,250.43l.57,2.24,8-2,1.13,4.47,2.3-.59-1.14-4.46,2.68-.68Zm-10.87,2.76,3.75-9.75,2.09,8.27Z"/><path class="cls-2" d="M54.82,297.41s0,0,0,0c-3.51-6.73-16-6.93-28.57-.45A46.2,46.2,0,0,0,21.15,300h5.74c.24-.13.47-.27.72-.39,10.67-5.53,21.91-5.9,24.55-.82a5.06,5.06,0,0,1,.4,1.21h3.6l-1.34-2.58Z"/><path class="cls-2" d="M300,207.12v-7a47.7,47.7,0,0,0-1.14,44.55q.54,1.09,1.14,2.16v-7a44.4,44.4,0,0,1-.76-30.66C299.48,208.49,299.73,207.8,300,207.12Z"/></g></g></svg>