<svg xmlns="http://www.w3.org/2000/svg" viewBox="0 0 300 300"><defs><style>.cls-1{fill:none;}.cls-2{fill:#fff;}</style></defs><title>Science Experiment</title><g id="Layer_2" data-name="Layer 2"><g id="Layer_2-2" data-name="Layer 2"><path class="cls-1" d="M274.07,222.4a29.34,29.34,0,0,0,2.3-11.81,23.56,23.56,0,0,1-2.69,5.25,24.46,24.46,0,0,1-6.39,6.4,1.46,1.46,0,0,1-.59.22l-2.15,11.44A27.9,27.9,0,0,0,274.07,222.4Z"/><path class="cls-1" d="M217.21,38.43l-12.87-1-7.27,10.66,5.59,11.63,12.82,1L222.79,50Zm-3.78,20.49h-.15l-9-.83a1.5,1.5,0,0,1,.28-3l9,.83a1.5,1.5,0,0,1-.13,3Z"/><polygon class="cls-1" points="225.46 51.5 218.16 62.2 223.73 73.79 236.6 74.76 243.88 64.1 238.28 52.47 225.46 51.5"/><polygon class="cls-1" points="238.6 48.76 245.88 38.1 240.28 26.47 227.41 25.5 220.14 36.16 225.73 47.79 238.6 48.76"/><path class="cls-1" d="M270,215.81a13.77,13.77,0,0,0-.9-6.25c-3.27-8.11-13.73-9.81-15.79-10.07a23.28,23.28,0,0,0-14.08,2.9,78.29,78.29,0,0,1,19,7.29l.27.15,7.65,9.57A21.67,21.67,0,0,0,270,215.81Z"/><polygon class="cls-1" points="175.34 97.84 188.21 98.81 195.49 88.15 189.89 76.52 177.02 75.55 169.75 86.21 175.34 97.84"/><path class="cls-1" d="M294.44,121.5a2.5,2.5,0,0,0,2.1-3.86l-.17-.2a2.43,2.43,0,0,0-1.35-.86l0,0a2.35,2.35,0,0,0-.54-.06,2.5,2.5,0,0,0-2.5,2.5,2.12,2.12,0,0,0,.05.44,2.25,2.25,0,0,0,.05.22s0,.11,0,.17.08.19.13.29l0,0a2.14,2.14,0,0,0,.2.32l.05.07A2.47,2.47,0,0,0,294.44,121.5Z"/><path class="cls-1" d="M172.25,211.49h-.11c-.8,0-1.87,1.08-2.32,2.12a5.09,5.09,0,0,0,.09,4,1.76,1.76,0,0,0,.92,1,1.74,1.74,0,0,0,1.23-.31,4.39,4.39,0,0,0,1.92-2.58,4.44,4.44,0,0,0-.65-3.35A1.74,1.74,0,0,0,172.25,211.49Z"/><path class="cls-1" d="M190,27.61c.28-1,0-2.13-.29-2.3h0a.62.62,0,0,0-.32-.06,2.7,2.7,0,0,0-2.45,1.95,2.38,2.38,0,0,0,.61,1.77,1.36,1.36,0,0,0,.9.53C189,29.5,189.75,28.5,190,27.61Z"/><path class="cls-1" d="M255.44,111.5a3.27,3.27,0,0,0-.44,0l-.21.06-.18.05-.28.13,0,0a1.55,1.55,0,0,0-.32.2l-.05,0a2.49,2.49,0,0,0,1.52,4.47,2.42,2.42,0,0,0,1.36-.41l.21-.16a2.58,2.58,0,0,0,.86-1.35s0,0,0,0a2.5,2.5,0,0,0-2.44-3Z"/><polygon class="cls-1" points="60.57 272.33 64 281.01 73.23 282.38 78.74 275.43 75.14 266.32 66.37 265.02 60.57 272.33"/><path class="cls-1" d="M253.63,196.51c2.36.3,14.31,2.26,18.2,11.93a15.79,15.79,0,0,1,.88,3.11,22.88,22.88,0,0,0,2.24-9.61,22,22,0,0,0-5.55-8.86c-8.2-7.86-20.06-6-28.72-4.6a55.65,55.65,0,0,0-26.41,12.08,76.73,76.73,0,0,1,13.3-.05,74.43,74.43,0,0,1,7.39,1C237.89,199.42,244.82,195.41,253.63,196.51Z"/><path class="cls-1" d="M173.84,148.52c-3.1-3.37-9.28-4.62-13.24-2.67-1.89.92-2.58,2.22-3.63,4.18a22.27,22.27,0,0,1-11.11,10.68,8.64,8.64,0,0,0-3.75,2.73c-.44.55-4.29,5.51-2.73,10.62h0c2,6.68,11.65,7.94,11.75,7.95,8.13,1,14.57-4.89,17.68-8.49C174.36,167.09,179.34,154.49,173.84,148.52Zm-11.45,26.64a15.67,15.67,0,0,1-9.53,3.44,8.4,8.4,0,0,1-6.55-2.62,8.55,8.55,0,0,1-1.26-8.52c1.59-4.1,5.91-5.32,8-5.9,4.4-1.25,11.69-1.53,13.77,2.79C168.6,168.11,165.05,173,162.39,175.16Zm7.35-12.69a2.72,2.72,0,0,1-.55.06,3.84,3.84,0,0,1-2.58-1.35,7.59,7.59,0,0,0-2.69-1.77h0a7.74,7.74,0,0,0-3.42-.43c-1.08.05-2.42.1-3.28-1.12a3.86,3.86,0,0,1-.37-3.28,9.71,9.71,0,0,1,4.94-5.93c3.41-1.65,8.56-1.14,10.92,2.54a8.68,8.68,0,0,1,.41,7.88C172.32,161,171.09,162.2,169.74,162.47Z"/><path class="cls-1" d="M42.44,158.5A17.5,17.5,0,1,0,24.94,141,17.52,17.52,0,0,0,42.44,158.5Zm0-33A15.5,15.5,0,1,1,26.94,141,15.51,15.51,0,0,1,42.44,125.5Z"/><path class="cls-1" d="M24.06,194.77a7.11,7.11,0,0,0-4.89-2.39,5.82,5.82,0,0,0-1.08.11,6.34,6.34,0,0,0-4.61,4.72c-.7,2.8.44,6.45,3.54,7.72a6.31,6.31,0,0,0,7.38-2.18,6.57,6.57,0,0,0-.34-8Z"/><polygon class="cls-1" points="109.52 80.34 77.56 88.98 90.52 116.57 109.52 80.34"/><path class="cls-1" d="M88.08,235.54a1.36,1.36,0,0,0,.75-.68,3,3,0,0,0,.2-2.33l-5-10.91a1.5,1.5,0,1,1,2.73-1.24l5,11a2.14,2.14,0,0,1,.12.28c.65,1.74,1.58,2.29,3.16,1.89a1.36,1.36,0,0,0,.75-.68,3,3,0,0,0,.2-2.33l-5-10.91a1.5,1.5,0,1,1,2.73-1.24l3.31,7.29a1.46,1.46,0,0,1,.55.47c.86,1.23,1.87,1.58,2.31,1.43s.77-.72,1-1.85c.41-2.13-1.06-4.15-3.08-6.93l-.67-.91a121.65,121.65,0,0,1-7.08-11.14,1.5,1.5,0,0,1,2.07-2L97,207.59a2.38,2.38,0,0,0,2.26-.51,1.85,1.85,0,0,0,.2-1.41,3.62,3.62,0,0,0-1.78-2.38,58.66,58.66,0,0,1-23.13-23.75,27.61,27.61,0,0,0-10.44,2.8,27.2,27.2,0,0,0-7.9,5.93c5.95,13.07,12.19,26.21,18.58,39.06q1.48,3,3,6l.06.12a2.25,2.25,0,0,0,1.37,1.33,1.83,1.83,0,0,0,1.48-.08,1.76,1.76,0,0,0,.78-1.13,2.28,2.28,0,0,0-.29-1.77,1.18,1.18,0,0,1-.11-.19l-4-9a1.51,1.51,0,0,1,.76-2,1.49,1.49,0,0,1,2,.76l4,8.91a5.19,5.19,0,0,1,.74,2.65,1.68,1.68,0,0,1,.41.7C85.57,235.39,86.49,235.94,88.08,235.54Z"/><circle class="cls-1" cx="42.44" cy="141" r="12.5"/><polygon class="cls-1" points="83.73 257.92 78.22 264.86 81.82 273.97 90.59 275.27 96.39 267.96 92.96 259.29 83.73 257.92"/><path class="cls-1" d="M26.13,153.36,13.48,163.1a5.27,5.27,0,0,0,.08,6.9,5.33,5.33,0,0,0,6.84.89l10.31-13.11A20.44,20.44,0,0,1,26.13,153.36Z"/><path class="cls-1" d="M163.09,151.35a6.31,6.31,0,0,0-3.44,4.65l.72,0a11.14,11.14,0,0,1,4.6.61,10.51,10.51,0,0,1,3.69,2.4,7.54,7.54,0,0,0,.57.5,3.76,3.76,0,0,0,1.21-1.79,5.61,5.61,0,0,0-.26-4.89C168.75,150.58,165.36,150.26,163.09,151.35Z"/><path class="cls-1" d="M258.66,237.72c.82-.5,1.63-1,2.42-1.59l2.76-14.73-5.54-6.93-5.06,26.13A44.69,44.69,0,0,0,258.66,237.72Z"/><path class="cls-1" d="M79.41,36.15a10.32,10.32,0,0,0,7.7-8.62,8.12,8.12,0,0,0-5.7-8.88A9.69,9.69,0,0,0,79,18.36a9.1,9.1,0,0,0-6.47,2.51A9.65,9.65,0,0,0,70,30.18,8.12,8.12,0,0,0,79.41,36.15Z"/><polygon class="cls-1" points="129.64 125.82 148.27 90.89 113.19 79.81 92.71 118.84 129.64 125.82"/><path class="cls-1" d="M217.55,230.5c2.23.16,3.84,2.51,5.21,7.6.79.57,1.62,1.11,2.46,1.62a30.69,30.69,0,0,0,8.57,3.82c3.48.83,6.24.43,9.44,0a37.38,37.38,0,0,0,6.72-1.63c0-.06,0-.12,0-.18l5.79-29.89a74,74,0,0,0-60.9-3.76L193,230.82a11.68,11.68,0,0,0,4.33,5.94,12.29,12.29,0,0,0,13.28,0,12.8,12.8,0,0,0,3.2-3.55C214.72,231.83,215.71,230.36,217.55,230.5Z"/><path class="cls-1" d="M153.85,164.44c-1.85.53-5,1.4-6,4.1a5.66,5.66,0,0,0,.74,5.48c2.4,2.79,8.48,1.63,11.91-1.18,2.4-2,4.46-5.4,3.6-7.19C163,163.32,157.33,163.46,153.85,164.44Z"/><path class="cls-1" d="M208.74,262.81a2.86,2.86,0,0,0-1.75-.57,3.73,3.73,0,0,0-1.63.39,3.48,3.48,0,0,0-1.84,4,3.25,3.25,0,0,0,3.34,2.13,3.41,3.41,0,0,0,1.88-5.94Z"/><path class="cls-1" d="M100.23,161.11a4.24,4.24,0,0,0-2.37-.71,3.42,3.42,0,0,0-2.58,1.06,3.67,3.67,0,0,0-.29,4.46,3.83,3.83,0,0,0,6.9-1.36A3.66,3.66,0,0,0,100.23,161.11Z"/><path class="cls-1" d="M41.22,81.28a29.78,29.78,0,0,1-11.76,4l2.07,6.19a31.47,31.47,0,0,0,13.28-2.87C47.32,87.48,59.92,81,62,67.77a24.57,24.57,0,0,0-.64-10.27H55a26.45,26.45,0,0,1-1.12,7.93A28.48,28.48,0,0,1,41.22,81.28Z"/><path class="cls-1" d="M284,159.61c.28-1,0-2.13-.29-2.3h0a.62.62,0,0,0-.32-.06,2.7,2.7,0,0,0-2.45,1.95,2.38,2.38,0,0,0,.61,1.77,1.36,1.36,0,0,0,.9.53C283,161.5,283.75,160.5,284,159.61Z"/><path class="cls-1" d="M292.12,6.69h-.06a.92.92,0,0,0-.68.62,1,1,0,0,0,.37,1.19.9.9,0,0,0,1.05-.23,1,1,0,0,0,.05-1.16A1.09,1.09,0,0,0,292.12,6.69Z"/><path class="cls-1" d="M186.29,292.07a1.34,1.34,0,0,0,1-.45c.33-.49-.1-1.64-.7-2.34a3.06,3.06,0,0,0-1.89-1.09.34.34,0,0,0-.18,0h0a1.73,1.73,0,0,0-.58,1.25,2.43,2.43,0,0,0,.59,2.11A2.4,2.4,0,0,0,186.29,292.07Z"/><path class="cls-1" d="M288,287.23a2,2,0,0,0,1.48-.58c.65-.79.08-2.48-.58-3.41a4,4,0,0,0-2.58-1.7.87.87,0,0,0-.28,0h0a2.45,2.45,0,0,0-1.08,1.73,3.39,3.39,0,0,0,.59,3A3.3,3.3,0,0,0,288,287.23Z"/><circle class="cls-1" cx="273.44" cy="95" r="1.5"/><path class="cls-1" d="M7.24,278.39A6.49,6.49,0,0,0,15,276.85a6.77,6.77,0,0,0,.4-8.19s-2.06-2.92-5.27-2.92a4.54,4.54,0,0,0-.63,0,6.48,6.48,0,0,0-5.15,4.39C3.37,273,4.18,276.8,7.24,278.39Z"/><path class="cls-1" d="M161.19,214.82a6.09,6.09,0,0,0-5-2.52,5.76,5.76,0,0,0-1.37.16,6.67,6.67,0,0,0-4.85,6.49c.1,2.6,2.24,4.73,4.21,5.85s4.36,1.54,5.57.88c.63-.34,2.1-1.68,2.22-6.71a6.77,6.77,0,0,0-.75-4.15Z"/><path class="cls-1" d="M242.6,171.5a3.48,3.48,0,0,0,4.36-.6,3.26,3.26,0,0,0,0-4,3.41,3.41,0,0,0-4-1,3.47,3.47,0,0,0-2,2.61A3.26,3.26,0,0,0,242.6,171.5Z"/><circle class="cls-1" cx="279.44" cy="94" r="1.5"/><circle class="cls-1" cx="276.44" cy="101" r="1.5"/><circle class="cls-1" cx="282.44" cy="100" r="1.5"/><path class="cls-1" d="M276.81,83.33a3.55,3.55,0,0,1-1.42.3,3.44,3.44,0,0,1-1.26-.24,3.56,3.56,0,0,1-1.5-1.12,13.69,13.69,0,0,0-1.46.56,15.5,15.5,0,0,0,.68,28.63,15.61,15.61,0,0,0,6.59,1s0,0,0-.06a3.49,3.49,0,0,1,1.85-1.94,3.44,3.44,0,0,1,2.67-.06,3.48,3.48,0,0,1,1,.63,15.49,15.49,0,0,0-1-28.49,15.82,15.82,0,0,0-4.46-1A3.46,3.46,0,0,1,276.81,83.33ZM283.94,94a4.4,4.4,0,0,1-.33,1.67,4.49,4.49,0,1,1-3.64,8.09,4.48,4.48,0,0,1-8-2.76,4.4,4.4,0,0,1,.33-1.67,4.49,4.49,0,1,1,3.64-8.09,4.48,4.48,0,0,1,8,2.76Z"/><path class="cls-1" d="M262.44,70.5a2.5,2.5,0,0,0-2.5,2.5,2.44,2.44,0,0,0,.43,1.39l.18.22a2.64,2.64,0,0,0,.85.65h0a2.28,2.28,0,0,0,.44.15l.07,0a2.24,2.24,0,0,0,.52.06,2.5,2.5,0,0,0,2.29-3.5h0A2.51,2.51,0,0,0,262.44,70.5Z"/><polygon class="cls-1" points="143.24 269.03 150.82 248.97 135.25 247.94 127.11 267.47 143.24 269.03"/><path class="cls-1" d="M172,14.52a4.87,4.87,0,0,0-1.45-.23,2.87,2.87,0,0,0-2,.7,3.31,3.31,0,0,0-.58,3.47,4.32,4.32,0,0,0,4.21,2.9,3.05,3.05,0,0,0,2.62-2.95A4.26,4.26,0,0,0,172,14.52Z"/><path class="cls-1" d="M227,135.38s-4.73,2.09-5.09,6.74a8.34,8.34,0,0,0,4.26,7.59c3.27,1.91,8.31,1.82,11.07-1.65a8.34,8.34,0,0,0,0-10.15A8.69,8.69,0,0,0,227,135.38Z"/><path class="cls-1" d="M153,246.11a1.52,1.52,0,0,1,1.31,2l-8.71,23a1.51,1.51,0,0,1-1.41,1h-.14l-19.29-1.87a1.48,1.48,0,0,1-1.14-.72,1.5,1.5,0,0,1-.1-1.35l9.33-22.4a1.54,1.54,0,0,1,1.49-.92l3.56.24V244l-6.53-.43-13.8,33.13,27.84,2.7,12.87-34-7.33-.49-.46,1.08Z"/><polygon class="cls-1" points="147.5 245.39 148.65 242.72 148.65 242.71 149.25 241.32 140.94 240.63 140.94 242.6 140.94 244.66 147.5 245.39"/><path class="cls-2" d="M175,166.13a1.49,1.49,0,0,1,1.37-1.62,9.44,9.44,0,0,1,1.18,0c1.5-4,2.22-8.32,1.48-12.08a1.5,1.5,0,0,1-1.49-2.56,6.55,6.55,0,0,1,.53-.39,11.63,11.63,0,0,0-2-3,14.58,14.58,0,0,0-7.2-4c0,.05,0,.1,0,.15a1.5,1.5,0,0,1-1,1.85,1.4,1.4,0,0,1-.41.06,1.5,1.5,0,0,1-1.44-1.09,13.38,13.38,0,0,1-.32-1.44,13.13,13.13,0,0,0-6.4,1.18,9.65,9.65,0,0,0-2,1.33c.13.23.26.46.4.68a1.49,1.49,0,0,1-1.24,2.34,1.47,1.47,0,0,1-1.16-.57c-.34.55-.65,1.11-.95,1.69a20.63,20.63,0,0,1-3.39,4.94l.19.11a1.5,1.5,0,0,1,.65,2,1.53,1.53,0,0,1-1.34.81,1.37,1.37,0,0,1-.68-.17,12,12,0,0,1-1.17-.68,19,19,0,0,1-4,2.34c-.45.21-.9.42-1.35.66.12.14.25.27.37.42a1.5,1.5,0,0,1-1.18,2.43,1.49,1.49,0,0,1-1.17-.57c-.15-.19-.3-.34-.46-.51a11.85,11.85,0,0,0-1,1.14,17.48,17.48,0,0,0-3.73,9,1.49,1.49,0,0,1,.86,2.86l-.71.22a10.63,10.63,0,0,0,.31,1.3h0a11.32,11.32,0,0,0,2.05,3.86c.55-.12,1.12-.22,1.71-.29a1.49,1.49,0,0,1,1.66,1.32,1.51,1.51,0,0,1-.72,1.46,22.81,22.81,0,0,0,9.55,3.7c.4,0,.8.08,1.19.1a1.5,1.5,0,0,1,2.93-.51c0,.14.06.28.1.42a22.81,22.81,0,0,0,11.76-5.3,8.16,8.16,0,0,0-.52-.83,1.5,1.5,0,0,1,2.45-1.74c.12.18.22.37.34.55.79-.77,1.48-1.52,2.07-2.2a36.11,36.11,0,0,0,5.14-8A1.51,1.51,0,0,1,175,166.13Zm-6.14,7.39c-3.11,3.6-9.55,9.48-17.68,8.49-.1,0-9.72-1.27-11.75-7.95h0c-1.56-5.11,2.29-10.07,2.73-10.62a8.64,8.64,0,0,1,3.75-2.73A22.27,22.27,0,0,0,157,150c1.05-2,1.74-3.26,3.63-4.18,4-1.95,10.14-.7,13.24,2.67C179.34,154.49,174.36,167.09,168.81,173.52Z"/><path class="cls-2" d="M153,161.56c-2.07.58-6.39,1.8-8,5.9a8.55,8.55,0,0,0,1.26,8.52,8.4,8.4,0,0,0,6.55,2.62,15.67,15.67,0,0,0,9.53-3.44c2.66-2.18,6.21-7,4.41-10.81C164.72,160,157.43,160.31,153,161.56Zm7.46,11.28c-3.43,2.81-9.51,4-11.91,1.18a5.66,5.66,0,0,1-.74-5.48c1-2.7,4.16-3.57,6-4.1,3.48-1,9.13-1.12,10.24,1.21C165,167.44,162.89,170.88,160.49,172.84Z"/><path class="cls-2" d="M172.71,151.19c-2.36-3.68-7.51-4.19-10.92-2.54a9.71,9.71,0,0,0-4.94,5.93,3.86,3.86,0,0,0,.37,3.28c.86,1.22,2.2,1.17,3.28,1.12a7.74,7.74,0,0,1,3.42.43h0a7.59,7.59,0,0,1,2.69,1.77,3.84,3.84,0,0,0,2.58,1.35,2.72,2.72,0,0,0,.55-.06c1.35-.27,2.58-1.51,3.38-3.4A8.68,8.68,0,0,0,172.71,151.19Zm-2.27,6.51a3.76,3.76,0,0,1-1.21,1.79,7.54,7.54,0,0,1-.57-.5,10.51,10.51,0,0,0-3.69-2.4,11.14,11.14,0,0,0-4.6-.61l-.72,0a6.31,6.31,0,0,1,3.44-4.65c2.27-1.09,5.66-.77,7.09,1.46A5.61,5.61,0,0,1,170.44,157.7Z"/><path class="cls-2" d="M156.44,147.5a1.49,1.49,0,0,0,1.24-2.34c-.14-.22-.27-.45-.4-.68a11.12,11.12,0,0,1-1.36-3.72,10.94,10.94,0,0,1,0-3.52,1.5,1.5,0,0,0-3-.48,14,14,0,0,0,0,4.48,14.2,14.2,0,0,0,2.24,5.6l.08.09A1.47,1.47,0,0,0,156.44,147.5Z"/><path class="cls-2" d="M167.44,144.5a1.4,1.4,0,0,0,.41-.06,1.5,1.5,0,0,0,1-1.85c0-.05,0-.1,0-.15a5.59,5.59,0,0,1,1.22-5.85,8.65,8.65,0,0,0,1.81-3.16,8.82,8.82,0,0,0,0-4.81,1.5,1.5,0,0,0-2.9.76,6,6,0,0,1,0,3.19,5.81,5.81,0,0,1-1.27,2.13,9.14,9.14,0,0,0-1.7,2.78,8.82,8.82,0,0,0-.36,4.49,13.38,13.38,0,0,0,.32,1.44A1.5,1.5,0,0,0,167.44,144.5Z"/><path class="cls-2" d="M177.29,152a1.51,1.51,0,0,0,1.69.44,2,2,0,0,0,.42-.24,3.14,3.14,0,0,1,1.36-.69,4,4,0,0,1,2.33.42,7.64,7.64,0,0,0,2.8.65,5.46,5.46,0,0,0,.79-.06,6.42,6.42,0,0,0,3.93-2.54,1.5,1.5,0,0,0-2.34-1.88,3.53,3.53,0,0,1-2.06,1.46,3.92,3.92,0,0,1-2-.43,6.64,6.64,0,0,0-4-.56,6,6,0,0,0-2.11.92,6.55,6.55,0,0,0-.53.39A1.51,1.51,0,0,0,177.29,152Z"/><path class="cls-2" d="M179.46,168.14a2.78,2.78,0,0,1,.72,1.11,5,5,0,0,0,1.28,1.88,4.81,4.81,0,0,0,3.31,1.1,13.18,13.18,0,0,0,4.15-.81,1.5,1.5,0,1,0-1-2.84c-2.22.75-3.88.86-4.53.29a2.44,2.44,0,0,1-.51-.84,5.66,5.66,0,0,0-1.5-2.17,6.13,6.13,0,0,0-3.92-1.38,9.44,9.44,0,0,0-1.18,0,1.49,1.49,0,0,0-1.37,1.62,1.51,1.51,0,0,0,1.27,1.35,1,1,0,0,0,.35,0A3.82,3.82,0,0,1,179.46,168.14Z"/><path class="cls-2" d="M166.57,176.78a1.5,1.5,0,0,0-.35,2.09,8.16,8.16,0,0,1,.52.83,8.47,8.47,0,0,1,1.21,3.45,9.61,9.61,0,0,1-.06,2.11,7.92,7.92,0,0,0,.1,3.11,8.68,8.68,0,0,0,3.58,4.85,1.48,1.48,0,0,0,.87.28,1.5,1.5,0,0,0,.88-2.72,5.79,5.79,0,0,1-2.42-3.15,5.12,5.12,0,0,1,0-2,11.93,11.93,0,0,0,.06-2.75,11.62,11.62,0,0,0-1.92-5.17c-.12-.18-.22-.37-.34-.55A1.51,1.51,0,0,0,166.57,176.78Z"/><path class="cls-2" d="M153,183.56a1.49,1.49,0,0,0-1.07,1.53,1.26,1.26,0,0,0,.05.33,4.28,4.28,0,0,1-1.66,5.17,7.35,7.35,0,0,0-2.29,2.84c-.81,2-.45,4.46,1.07,7.28a1.49,1.49,0,0,0,1.32.79,1.57,1.57,0,0,0,.72-.18,1.49,1.49,0,0,0,.6-2c-1.08-2-1.39-3.59-.93-4.72a4.62,4.62,0,0,1,1.46-1.7A7.13,7.13,0,0,0,155,185c0-.14-.06-.28-.1-.42A1.5,1.5,0,0,0,153,183.56Z"/><path class="cls-2" d="M141.93,179.83a1.49,1.49,0,0,0-1.66-1.32c-.59.07-1.16.17-1.71.29a12.14,12.14,0,0,0-6.18,3.14,14.27,14.27,0,0,0-2.32,3.21c-.76,1.31-1.24,2.08-2.18,2.46a4.45,4.45,0,0,1-3,0,1.5,1.5,0,1,0-.89,2.86,8.68,8.68,0,0,0,2.58.42,6.37,6.37,0,0,0,2.43-.46c1.94-.79,2.81-2.29,3.65-3.73a11.9,11.9,0,0,1,1.84-2.6,10.08,10.08,0,0,1,6.12-2.57,1.72,1.72,0,0,0,.59-.2A1.51,1.51,0,0,0,141.93,179.83Z"/><path class="cls-2" d="M137.87,171.53a1.5,1.5,0,0,0-1.82-1l-.08,0c-2,.67-3.67.7-4.83.09a5.57,5.57,0,0,1-1.37-1.12,7.25,7.25,0,0,0-2.81-2,7.85,7.85,0,0,0-4.94,0,1.5,1.5,0,1,0,.84,2.88,4.88,4.88,0,0,1,3.07,0,4.36,4.36,0,0,1,1.71,1.25,8.16,8.16,0,0,0,2.1,1.67,7.12,7.12,0,0,0,3.36.78,11.92,11.92,0,0,0,3.1-.47l.71-.22A1.5,1.5,0,0,0,137.87,171.53Z"/><path class="cls-2" d="M142.44,161.5a1.5,1.5,0,0,0,1.18-2.43c-.12-.15-.25-.28-.37-.42a9.25,9.25,0,0,0-6.59-3.53,2.87,2.87,0,0,1-1.39-.37,4,4,0,0,1-1.34-2.94,1.5,1.5,0,1,0-3,.38c.31,2.38,1.2,4.08,2.66,5.06a5.61,5.61,0,0,0,2.71.85,7.51,7.51,0,0,1,1.64.32,6.9,6.9,0,0,1,2.85,2c.16.17.31.32.46.51A1.49,1.49,0,0,0,142.44,161.5Z"/><path class="cls-2" d="M150.44,156.5a1.53,1.53,0,0,0,1.34-.81,1.5,1.5,0,0,0-.65-2l-.19-.11a6.14,6.14,0,0,1-3.09-3.07,6.06,6.06,0,0,1-.28-2.09,4.83,4.83,0,0,0-1-3.38c-1.08-1.25-2.86-1.75-5.29-1.51a1.5,1.5,0,1,0,.3,3c1.36-.13,2.33,0,2.72.49.22.25.24.61.26,1.47a8.74,8.74,0,0,0,.46,3.06,8.43,8.43,0,0,0,3.56,4.14,12,12,0,0,0,1.17.68A1.37,1.37,0,0,0,150.44,156.5Z"/><path class="cls-2" d="M239.64,136.09a11.72,11.72,0,0,0-13.79-3.47h0c-.26.11-6.41,2.82-6.9,9.26a11.35,11.35,0,0,0,5.73,10.41,12.45,12.45,0,0,0,6.24,1.65,10.94,10.94,0,0,0,8.7-4A11.4,11.4,0,0,0,239.64,136.09Zm-2.37,12c-2.76,3.47-7.8,3.56-11.07,1.65a8.34,8.34,0,0,1-4.26-7.59c.36-4.65,5.05-6.72,5.09-6.74a8.69,8.69,0,0,1,10.22,2.53A8.34,8.34,0,0,1,237.27,148.06Z"/><path class="cls-2" d="M77.7,39.34a10.77,10.77,0,0,0,2.35-.26,13.36,13.36,0,0,0,10-11.18,11.11,11.11,0,0,0-7.81-12.13h0c-.28-.08-6.83-1.95-11.87,2.95A12.69,12.69,0,0,0,67.09,31,11.29,11.29,0,0,0,77.7,39.34ZM72.49,20.87A9.1,9.1,0,0,1,79,18.36a9.69,9.69,0,0,1,2.45.29,8.12,8.12,0,0,1,5.7,8.88,10.32,10.32,0,0,1-7.7,8.62,8.12,8.12,0,0,1-9.43-6A9.65,9.65,0,0,1,72.49,20.87Z"/><path class="cls-2" d="M173,11.7a6.55,6.55,0,0,0-6.55,1.11,6.28,6.28,0,0,0-1.34,6.67,7.4,7.4,0,0,0,6.62,4.91,7.13,7.13,0,0,0,.79-.05,6,6,0,0,0,5.23-5.82A7.23,7.23,0,0,0,173,11.7Zm-.86,9.66a4.32,4.32,0,0,1-4.21-2.9,3.31,3.31,0,0,1,.58-3.47,2.87,2.87,0,0,1,2-.7,4.87,4.87,0,0,1,1.45.23,4.26,4.26,0,0,1,2.8,3.89A3.05,3.05,0,0,1,172.15,21.36Z"/><path class="cls-2" d="M241.09,174.09a6.74,6.74,0,0,0,3.4.9,6.09,6.09,0,0,0,4.82-2.22,6.3,6.3,0,0,0,0-7.65,6.41,6.41,0,0,0-11.4,3.21A6.28,6.28,0,0,0,241.09,174.09Zm1.84-8.14a3.41,3.41,0,0,1,4,1,3.26,3.26,0,0,1,0,4,3.48,3.48,0,0,1-4.36.6,3.26,3.26,0,0,1-1.68-2.94A3.47,3.47,0,0,1,242.93,166Z"/><path class="cls-2" d="M17.47,189.56a9.35,9.35,0,0,0-6.9,6.93c-1,4,.71,9.33,5.32,11.22a8.79,8.79,0,0,0,3.34.65,9.48,9.48,0,0,0,7.59-3.83,9.6,9.6,0,0,0-.44-11.66C26.23,192.69,22.68,188.46,17.47,189.56Zm6.93,13.19A6.31,6.31,0,0,1,17,204.93c-3.1-1.27-4.24-4.92-3.54-7.72a6.34,6.34,0,0,1,4.61-4.72,5.82,5.82,0,0,1,1.08-.11,7.11,7.11,0,0,1,4.89,2.39h0A6.57,6.57,0,0,1,24.4,202.75Z"/><path class="cls-2" d="M101.93,158.63a6.93,6.93,0,0,0-8.86.8,6.73,6.73,0,0,0-.59,8.14A6.84,6.84,0,0,0,104.86,165,6.7,6.7,0,0,0,101.93,158.63Zm0,5.93a3.83,3.83,0,0,1-6.9,1.36,3.67,3.67,0,0,1,.29-4.46,3.42,3.42,0,0,1,2.58-1.06,4.24,4.24,0,0,1,2.37.71A3.66,3.66,0,0,1,101.89,164.56Z"/><path class="cls-2" d="M210.55,260.42A6.24,6.24,0,0,0,204,260a6.49,6.49,0,0,0-3.33,7.63,6.31,6.31,0,0,0,5.93,4.17l.5,0a6.44,6.44,0,0,0,5.71-5.35A6.36,6.36,0,0,0,210.55,260.42Zm-.7,5.48a3.42,3.42,0,0,1-3,2.85,3.25,3.25,0,0,1-3.34-2.13,3.48,3.48,0,0,1,1.84-4,3.73,3.73,0,0,1,1.63-.39,2.86,2.86,0,0,1,1.75.57A3.42,3.42,0,0,1,209.85,265.9Z"/><path class="cls-2" d="M282.45,164.5c2.29,0,3.91-2.13,4.44-4.11s.14-4.65-1.71-5.7a4.5,4.5,0,0,0-4.18.15,5.31,5.31,0,0,0-3,4,5.36,5.36,0,0,0,1.32,4.15,4.23,4.23,0,0,0,3.16,1.55Zm-1.52-5.3a2.7,2.7,0,0,1,2.45-1.95.62.62,0,0,1,.32.06h0c.32.17.57,1.27.29,2.3s-.95,1.89-1.55,1.89a1.36,1.36,0,0,1-.9-.53A2.38,2.38,0,0,1,280.93,159.2Z"/><path class="cls-2" d="M188.45,32.5c2.29,0,3.91-2.13,4.44-4.11s.14-4.65-1.71-5.7a4.5,4.5,0,0,0-4.18.15,5.31,5.31,0,0,0-3,4A5.36,5.36,0,0,0,185.28,31a4.23,4.23,0,0,0,3.16,1.55Zm-1.52-5.3a2.7,2.7,0,0,1,2.45-1.95.62.62,0,0,1,.32.06h0c.32.17.57,1.27.29,2.3s-1,1.89-1.55,1.89a1.36,1.36,0,0,1-.9-.53A2.38,2.38,0,0,1,186.93,27.2Z"/><path class="cls-2" d="M186,295.09a5.32,5.32,0,0,0,.69,0,4.23,4.23,0,0,0,3.06-1.74c1.29-1.9.43-4.44-.91-6s-3.77-2.72-5.67-1.78a4.49,4.49,0,0,0-2.23,3.54,5.38,5.38,0,0,0,1.57,4.75A5.32,5.32,0,0,0,186,295.09Zm-2.08-5.61a1.73,1.73,0,0,1,.58-1.25h0a.34.34,0,0,1,.18,0,3.06,3.06,0,0,1,1.89,1.09c.6.7,1,1.85.7,2.34a1.34,1.34,0,0,1-1,.45,2.4,2.4,0,0,1-1.81-.48A2.43,2.43,0,0,1,183.89,289.48Z"/><path class="cls-2" d="M164.94,219a9.54,9.54,0,0,0-1.24-5.86,9.19,9.19,0,0,0-9.6-3.64,9.68,9.68,0,0,0-7.16,9.51c.12,3.26,2.26,6.38,5.72,8.36a11.39,11.39,0,0,0,5.51,1.6,6.28,6.28,0,0,0,3-.69C163.55,227,164.82,223.89,164.94,219Zm-3-.07c-.12,5-1.59,6.37-2.22,6.71-1.21.66-3.5.3-5.57-.88s-4.11-3.25-4.21-5.85a6.67,6.67,0,0,1,4.85-6.49,5.76,5.76,0,0,1,1.37-.16,6.09,6.09,0,0,1,5,2.52h0A6.77,6.77,0,0,1,161.94,219Z"/><path class="cls-2" d="M172.64,208.51c-2.4-.32-4.62,1.72-5.57,3.89a8,8,0,0,0,.14,6.46,4.55,4.55,0,0,0,2.84,2.59,4.07,4.07,0,0,0,1,.13,5,5,0,0,0,2.56-.76,7.11,7.11,0,0,0,2.2-10.21A4.66,4.66,0,0,0,172.64,208.51Zm1.34,7.15a4.39,4.39,0,0,1-1.92,2.58,1.74,1.74,0,0,1-1.23.31,1.76,1.76,0,0,1-.92-1,5.09,5.09,0,0,1-.09-4c.45-1,1.52-2.12,2.32-2.12h.11a1.74,1.74,0,0,1,1.08.82A4.44,4.44,0,0,1,174,215.66Z"/><path class="cls-2" d="M216.25,234.92a7.58,7.58,0,0,1,1.09-1.42s1.23.33,2.65,5.87l.13.52.44.32c1,.73,2,1.43,3.11,2.08a33.52,33.52,0,0,0,9.43,4.17,20.57,20.57,0,0,0,4.81.56,38.88,38.88,0,0,0,5.74-.54,42.91,42.91,0,0,0,16.57-6.2c1-.63,2-1.3,3-2l-.07,0a1.47,1.47,0,0,1-.73.19,1.5,1.5,0,0,1-.72-2.81,32.41,32.41,0,0,0,2.83-1.79l2.15-11.44a1.17,1.17,0,0,1-.26,0,1.5,1.5,0,0,1-.85-2.74c.17-.11.33-.24.49-.36l-7.65-9.57-.27-.15a78.29,78.29,0,0,0-19-7.29,23.94,23.94,0,0,0-2.84,1.82,1.51,1.51,0,0,1-1.79-2.42l.41-.29a74.43,74.43,0,0,0-7.39-1,76.73,76.73,0,0,0-13.3.05c-.64.53-1.26,1.05-1.83,1.56a1.5,1.5,0,0,1-2.12-.12,1.57,1.57,0,0,1-.37-.92,77.52,77.52,0,0,0-17.06,4.52l-.86.34-2.11,25.23.09.28a14.78,14.78,0,0,0,5.58,7.79,15.26,15.26,0,0,0,16.72,0A15.7,15.7,0,0,0,216.25,234.92Zm-5.68,1.86a12.29,12.29,0,0,1-13.28,0,11.68,11.68,0,0,1-4.33-5.94l1.9-22.76a74,74,0,0,1,60.9,3.76l.21-1.11a1.5,1.5,0,0,1,3,.58l-.62,3.18,5.54,6.93-2.76,14.73c-.79.56-1.6,1.09-2.42,1.59a44.69,44.69,0,0,1-5.42,2.88l-.32,1.69a1.51,1.51,0,0,1-1.48,1.21,1.33,1.33,0,0,1-.28,0,1.49,1.49,0,0,1-1.21-1.58,37.38,37.38,0,0,1-6.72,1.63c-3.2.45-6,.85-9.44,0a30.69,30.69,0,0,1-8.57-3.82c-.84-.51-1.67-1.05-2.46-1.62-1.37-5.09-3-7.44-5.21-7.6-1.84-.14-2.83,1.33-3.78,2.73A12.8,12.8,0,0,1,210.57,236.78Z"/><path class="cls-2" d="M250,241.89a1.49,1.49,0,0,0,1.21,1.58,1.33,1.33,0,0,0,.28,0,1.51,1.51,0,0,0,1.48-1.21l.32-1.69,5.06-26.13.62-3.18a1.5,1.5,0,0,0-3-.58l-.21,1.11L250,241.71C250,241.77,250,241.83,250,241.89Z"/><path class="cls-2" d="M276.37,210.59a29.34,29.34,0,0,1-2.3,11.81,27.9,27.9,0,0,1-9.52,11.5,32.41,32.41,0,0,1-2.83,1.79,1.5,1.5,0,0,0,.72,2.81,1.47,1.47,0,0,0,.73-.19l.07,0a31.65,31.65,0,0,0,13.58-14.67,32.55,32.55,0,0,0,1.13-22A26.21,26.21,0,0,1,276.37,210.59Z"/><path class="cls-2" d="M212.44,202.12c.57-.51,1.19-1,1.83-1.56a55.65,55.65,0,0,1,26.41-12.08c8.66-1.38,20.52-3.26,28.72,4.6a22,22,0,0,1,5.55,8.86c0-.32,0-.63,0-.9a1.5,1.5,0,0,1,1.46-1.54,1.44,1.44,0,0,1,.94.31,24.56,24.56,0,0,0-5.86-8.89c-9.28-8.9-22.52-6.8-31.27-5.4a59,59,0,0,0-29.76,14.36,1.48,1.48,0,0,0-.5,1.2,1.57,1.57,0,0,0,.37.92A1.5,1.5,0,0,0,212.44,202.12Z"/><path class="cls-2" d="M274.94,201c0,.27,0,.58,0,.9a22.88,22.88,0,0,1-2.24,9.61,18.19,18.19,0,0,1,.23,4.57,1.51,1.51,0,0,1-1.5,1.38h-.12a1.5,1.5,0,0,1-1.37-1.62v-.07a21.67,21.67,0,0,1-3.87,3.59c-.16.12-.32.25-.49.36a1.5,1.5,0,0,0,.85,2.74,1.17,1.17,0,0,0,.26,0,1.46,1.46,0,0,0,.59-.22,24.46,24.46,0,0,0,6.39-6.4,23.56,23.56,0,0,0,2.69-5.25,26.21,26.21,0,0,0,1.58-9c0-.21,0-.4,0-.59a1.5,1.5,0,0,0-.6-1.15,1.44,1.44,0,0,0-.94-.31A1.5,1.5,0,0,0,274.94,201Z"/><path class="cls-2" d="M253.26,199.49c2.06.26,12.52,2,15.79,10.07a13.77,13.77,0,0,1,.9,6.25v.07a1.5,1.5,0,0,0,1.37,1.62h.12a1.51,1.51,0,0,0,1.5-1.38,18.19,18.19,0,0,0-.23-4.57,15.79,15.79,0,0,0-.88-3.11c-3.89-9.67-15.84-11.63-18.2-11.93-8.81-1.1-15.74,2.91-18.67,5l-.41.29a1.51,1.51,0,0,0,1.79,2.42,23.94,23.94,0,0,1,2.84-1.82A23.28,23.28,0,0,1,253.26,199.49Z"/><path class="cls-2" d="M26.63,151.09a1.5,1.5,0,0,1-.27,2.1l-.23.17a20.44,20.44,0,0,0,4.58,4.42l.55-.71a1.5,1.5,0,0,1,2.36,1.86l-.31.4a20.47,20.47,0,1,0-8.84-8.48l.06,0A1.5,1.5,0,0,1,26.63,151.09ZM42.44,123.5A17.5,17.5,0,1,1,24.94,141,17.52,17.52,0,0,1,42.44,123.5Z"/><path class="cls-2" d="M42.44,156.5A15.5,15.5,0,1,0,26.94,141,15.51,15.51,0,0,0,42.44,156.5Zm0-28A12.5,12.5,0,1,1,29.94,141,12.51,12.51,0,0,1,42.44,128.5Z"/><path class="cls-2" d="M33.62,158.93a1.5,1.5,0,0,0-2.36-1.86l-.55.71L20.4,170.89a5.33,5.33,0,0,1-6.84-.89,5.27,5.27,0,0,1-.08-6.9l12.65-9.74.23-.17a1.5,1.5,0,0,0-1.83-2.38l-.06,0-12.94,10-.21.2a8.26,8.26,0,0,0,11,12.21l.18-.12,10.82-13.77Z"/><path class="cls-2" d="M89.11,232.7h0a1.5,1.5,0,0,1,2.35-1.79,1.47,1.47,0,0,1,.33.46l-5-11a1.5,1.5,0,1,0-2.73,1.24l5,10.91a3,3,0,0,1-.2,2.33,1.36,1.36,0,0,1-.75.68c-1.59.4-2.51-.15-3.16-1.89a1.68,1.68,0,0,0-.41-.7,5,5,0,0,1-.13,1.34,4.83,4.83,0,0,1-1.28,2.28,4.91,4.91,0,0,0,4.12,2.08,7.27,7.27,0,0,0,1.59-.19,4.26,4.26,0,0,0,2.63-2.13c.07-.11.12-.24.18-.36A6.1,6.1,0,0,1,89.11,232.7Z"/><path class="cls-2" d="M95.21,227.86a1.5,1.5,0,0,1,1.91-2.19l-3.31-7.29a1.5,1.5,0,1,0-2.73,1.24l5,10.91a3,3,0,0,1-.2,2.33,1.36,1.36,0,0,1-.75.68c-1.58.4-2.51-.15-3.16-1.89a2.14,2.14,0,0,0-.12-.28,1.47,1.47,0,0,0-.33-.46,1.5,1.5,0,0,0-2.35,1.79h0A6.1,6.1,0,0,0,91.62,236a5.06,5.06,0,0,0,2.6.68,7.27,7.27,0,0,0,1.59-.19,4.26,4.26,0,0,0,2.63-2.13,5.94,5.94,0,0,0,.65-3.8A6.2,6.2,0,0,1,95.21,227.86Z"/><path class="cls-2" d="M103.92,226.28c.65-3.4-1.32-6.12-3.61-9.26l-.65-.9q-2-2.77-3.89-5.78a1.85,1.85,0,0,0,.33.12,5.35,5.35,0,0,0,5.53-1.54,4.77,4.77,0,0,0,.78-3.81,6.7,6.7,0,0,0-3.23-4.42,55.75,55.75,0,0,1-22.4-23.37,1.49,1.49,0,0,0-1.38-.82,30.6,30.6,0,0,0-12.63,3.16A30,30,0,0,0,53.31,187a1.49,1.49,0,0,0-.23,1.6c6.08,13.4,12.48,26.87,19,40l3,6a5.31,5.31,0,0,0,3.15,3,5.22,5.22,0,0,0,1.69.29,4.55,4.55,0,0,0,2.29-.6,4.5,4.5,0,0,0,.9-.73,4.83,4.83,0,0,0,1.28-2.28,5,5,0,0,0,.13-1.34,5.19,5.19,0,0,0-.74-2.65l-4-8.91a1.49,1.49,0,0,0-2-.76,1.51,1.51,0,0,0-.76,2l4,9a1.18,1.18,0,0,0,.11.19,2.28,2.28,0,0,1,.29,1.77,1.76,1.76,0,0,1-.78,1.13,1.83,1.83,0,0,1-1.48.08,2.25,2.25,0,0,1-1.37-1.33l-.06-.12q-1.5-3-3-6c-6.39-12.85-12.63-26-18.58-39.06a27.2,27.2,0,0,1,7.9-5.93,27.61,27.61,0,0,1,10.44-2.8,58.66,58.66,0,0,0,23.13,23.75,3.62,3.62,0,0,1,1.78,2.38,1.85,1.85,0,0,1-.2,1.41,2.38,2.38,0,0,1-2.26.51l-4.79-2.88a1.5,1.5,0,0,0-2.07,2,121.65,121.65,0,0,0,7.08,11.14l.67.91c2,2.78,3.49,4.8,3.08,6.93-.22,1.13-.65,1.74-1,1.85s-1.45-.2-2.31-1.43a1.46,1.46,0,0,0-.55-.47,1.5,1.5,0,0,0-1.91,2.19,6.2,6.2,0,0,0,3.88,2.67,3.85,3.85,0,0,0,1.82-.1C102.43,229.93,103.5,228.46,103.92,226.28Z"/><path class="cls-2" d="M132.89,245.79l-9.33,22.4a1.5,1.5,0,0,0,.1,1.35,1.48,1.48,0,0,0,1.14.72l19.29,1.87h.14a1.51,1.51,0,0,0,1.41-1l8.71-23a1.52,1.52,0,0,0-1.31-2l-2.51-.16-.71,1.64a1.3,1.3,0,0,1-.25.39.76.76,0,0,1-.09.09,1.83,1.83,0,0,1-.26.21l-.14.06-.27.11-.18,0a1.08,1.08,0,0,1-.19,0h-.16l-9-1a1.5,1.5,0,0,1-1.34-1.49v-.89l-3.56-.24A1.54,1.54,0,0,0,132.89,245.79ZM150.82,249,143.23,269l-16.12-1.56,8.14-19.53Z"/><path class="cls-2" d="M115.3,279.49l31,3h.14a1.51,1.51,0,0,0,1.41-1l14-37a1.52,1.52,0,0,0-1.31-2l-8.3-.55L151,244.87l7.33.49-12.87,34-27.84-2.7,13.8-33.13,6.53.43v-3l-7.4-.5a1.53,1.53,0,0,0-1.48.92l-15,36a1.5,1.5,0,0,0,.1,1.35A1.46,1.46,0,0,0,115.3,279.49Z"/><polygon class="cls-2" points="147.5 245.39 148.65 242.71 148.65 242.72 147.5 245.39"/><path class="cls-2" d="M149.08,248.34l.14-.06Z"/><path class="cls-2" d="M149.57,248a.76.76,0,0,1-.09.09A.76.76,0,0,0,149.57,248Z"/><path class="cls-2" d="M148.63,248.47l.18,0Z"/><path class="cls-2" d="M137.94,245.11V246a1.5,1.5,0,0,0,1.34,1.49l9,1h.16a1.08,1.08,0,0,0,.19,0l.18,0,.27-.11.14-.06a1.83,1.83,0,0,0,.26-.21.76.76,0,0,0,.09-.09,1.3,1.3,0,0,0,.25-.39l.71-1.64.46-1.08,1.25-2.92.58-1.36a1.49,1.49,0,0,0-1.25-2.08l-12-1a1.44,1.44,0,0,0-1.14.39,1.48,1.48,0,0,0-.49,1.1v6.11Zm3-4.48,8.3.69-.59,1.39-1.15,2.68-6.56-.73v-4Z"/><polygon class="cls-2" points="77.93 265.23 81.36 273.9 81.82 273.97 78.22 264.86 77.93 265.23"/><path class="cls-2" d="M78.89,275.81l-.15-.38-5.51,6.95L64,281l-3.43-8.68,5.8-7.31,8.77,1.3-.32-.79A1.51,1.51,0,0,1,75,264l.55-.68L66,261.93a1.51,1.51,0,0,0-1.4.55l-6.87,8.67a1.49,1.49,0,0,0-.22,1.48l4.07,10.29a1.5,1.5,0,0,0,1.17.93l10.94,1.62.22,0a1.51,1.51,0,0,0,1.18-.57l6.33-8-1.31-.19A1.51,1.51,0,0,1,78.89,275.81Z"/><path class="cls-2" d="M94.25,256.45l-10.94-1.63a1.51,1.51,0,0,0-1.39.56l-6.33,8L75,264a1.51,1.51,0,0,0-.22,1.49l.32.79,3.6,9.11.15.38a1.51,1.51,0,0,0,1.17.94l1.31.19L91,278.37h.22a1.5,1.5,0,0,0,1.17-.56l6.88-8.67a1.52,1.52,0,0,0,.22-1.48l-4.07-10.29A1.49,1.49,0,0,0,94.25,256.45Zm-3.66,18.82L81.82,274l-.46-.07-3.43-8.67.29-.37,5.51-6.94L93,259.29,96.39,268Z"/><path class="cls-2" d="M175,73.14l-8.26,12.09a1.49,1.49,0,0,0-.11,1.5L173,99.92a1.52,1.52,0,0,0,1.24.85l14.59,1.1H189a1.5,1.5,0,0,0,1.24-.65l8.25-12.09a1.48,1.48,0,0,0,.11-1.49l-5.79-12.07-.41.59a1.5,1.5,0,0,1-2.47-1.7l.62-.9-14.12-1.07A1.48,1.48,0,0,0,175,73.14Zm14.85,3.38,5.59,11.63-7.27,10.66-12.87-1-5.59-11.63L177,75.55Z"/><path class="cls-2" d="M201.78,59.86a1.51,1.51,0,0,1,.38,2.09l-.51.73,13.92,1.06-.51-1.06a1.49,1.49,0,0,1,.11-1.5l.31-.46-12.82-1-5.59-11.63,7.27-10.66,12.87,1L222.79,50l.4-.59-6.13-12.76a1.49,1.49,0,0,1,0-1.27l-13.34-1a1.51,1.51,0,0,0-1.36.65L194.1,47.14a1.5,1.5,0,0,0-.11,1.5l5.63,11.71.07-.1A1.5,1.5,0,0,1,201.78,59.86Z"/><polygon class="cls-2" points="225.41 51.5 218.14 62.16 218.16 62.2 225.46 51.5 225.41 51.5"/><path class="cls-2" d="M239.35,51.82h-.12l-14.59-1.11a1.49,1.49,0,0,1-1.24-.84l-.21-.43-.4.59-7.31,10.69-.31.46a1.49,1.49,0,0,0-.11,1.5l.51,1.06,5.83,12.13a1.49,1.49,0,0,0,1.24.84l14.59,1.11h.12a1.5,1.5,0,0,0,1.24-.65l8.25-12.09a1.48,1.48,0,0,0,.11-1.49l-6.13-12.77-.23.35A1.5,1.5,0,0,1,239.35,51.82ZM236.6,74.76l-12.87-1L218.15,62.2v0l7.27-10.66h.05l12.82,1,5.6,11.63Z"/><path class="cls-2" d="M217.06,36.68l6.13,12.76.21.43a1.49,1.49,0,0,0,1.24.84l14.59,1.11h.12a1.5,1.5,0,0,0,1.24-.65l.23-.35,8-11.74a1.48,1.48,0,0,0,.11-1.49l-6.34-13.2a1.49,1.49,0,0,0-1.24-.84l-14.59-1.11a1.48,1.48,0,0,0-1.35.65l-8.26,12.09a1.67,1.67,0,0,0-.12.23A1.49,1.49,0,0,0,217.06,36.68ZM227.41,25.5l12.87,1,5.6,11.63L238.6,48.76l-12.87-1-5.59-11.63Z"/><path class="cls-2" d="M275.76,96.57a4.42,4.42,0,0,1,.15-5.33,4.49,4.49,0,1,0-3.64,8.09A4.5,4.5,0,0,1,275.76,96.57ZM271.94,95a1.5,1.5,0,1,1,1.5,1.5A1.5,1.5,0,0,1,271.94,95Z"/><path class="cls-2" d="M275.91,91.24a4.42,4.42,0,0,0-.15,5.33,3.82,3.82,0,0,1,.68-.07,4.54,4.54,0,0,1,2.47.74,4.37,4.37,0,0,1,4.7-1.57,4.4,4.4,0,0,0,.33-1.67,4.48,4.48,0,0,0-8-2.76Zm3.53,1.26a1.5,1.5,0,1,1-1.5,1.5A1.5,1.5,0,0,1,279.44,92.5Z"/><path class="cls-2" d="M277.94,100a4.47,4.47,0,0,1,1-2.76,4.54,4.54,0,0,0-2.47-.74,3.82,3.82,0,0,0-.68.07,4.5,4.5,0,0,0-3.49,2.76,4.4,4.4,0,0,0-.33,1.67,4.48,4.48,0,0,0,8,2.76A4.51,4.51,0,0,1,277.94,100Zm-1.5,2.5a1.5,1.5,0,1,1,1.5-1.5A1.5,1.5,0,0,1,276.44,102.5Z"/><path class="cls-2" d="M278.91,97.24a4.46,4.46,0,0,0,1.06,6.52,4.49,4.49,0,1,0,3.64-8.09,4.37,4.37,0,0,0-4.7,1.57Zm3.53,4.26a1.5,1.5,0,1,1,1.5-1.5A1.5,1.5,0,0,1,282.44,101.5Z"/><path class="cls-2" d="M275.57,79.66a.58.58,0,0,0-.18,0,.52.52,0,0,0-.47.32.55.55,0,0,0,0,.39.48.48,0,0,0,.28.26.47.47,0,0,0,.38,0,.49.49,0,0,0,.26-.27h0a.49.49,0,0,0,0-.38A.51.51,0,0,0,275.57,79.66Z"/><path class="cls-2" d="M278.44,112.46a15.61,15.61,0,0,1-6.59-1,15.5,15.5,0,0,1-.68-28.63,13.69,13.69,0,0,1,1.46-.56,3.83,3.83,0,0,1-.44-.73,3.5,3.5,0,0,1-.2-2.21c-.68.22-1.36.46-2,.75a18.5,18.5,0,0,0,.81,34.18,18.65,18.65,0,0,0,6.68,1.25c.43,0,.85,0,1.28-.07A3.49,3.49,0,0,1,278.44,112.46Z"/><path class="cls-2" d="M281.72,113.16a.53.53,0,0,0-.46.32.46.46,0,0,0,0,.39.48.48,0,0,0,.27.26.5.5,0,0,0,.39,0,.51.51,0,0,0,.26-.28.5.5,0,0,0-.29-.64A.39.39,0,0,0,281.72,113.16Z"/><path class="cls-2" d="M284.11,79.74a18.67,18.67,0,0,0-5.62-1.21l.1.18a3.46,3.46,0,0,1,.06,2.68,1.09,1.09,0,0,1-.08.15,15.82,15.82,0,0,1,4.46,1A15.49,15.49,0,0,1,284,111a3.52,3.52,0,0,1,1.2,2.75,18.5,18.5,0,0,0-1.1-34Z"/><path class="cls-2" d="M272.19,81.54a3.83,3.83,0,0,0,.44.73,3.56,3.56,0,0,0,1.5,1.12,3.44,3.44,0,0,0,1.26.24,3.55,3.55,0,0,0,1.42-.3,3.46,3.46,0,0,0,1.76-1.79,1.09,1.09,0,0,0,.08-.15,3.46,3.46,0,0,0-.06-2.68l-.1-.18a3.46,3.46,0,0,0-1.84-1.67,3.5,3.5,0,0,0-4.53,2c-.05.16-.09.31-.13.47A3.5,3.5,0,0,0,272.19,81.54Zm3.66-1.24h0a.49.49,0,0,1-.26.27.47.47,0,0,1-.38,0,.48.48,0,0,1-.28-.26.55.55,0,0,1,0-.39.52.52,0,0,1,.47-.32.58.58,0,0,1,.18,0,.51.51,0,0,1,.28.26A.49.49,0,0,1,275.85,80.3Z"/><path class="cls-2" d="M284,111a3.48,3.48,0,0,0-1-.63,3.44,3.44,0,0,0-2.67.06,3.49,3.49,0,0,0-1.85,1.94s0,0,0,.06a3.5,3.5,0,0,0,6.55,2.47h0a3.78,3.78,0,0,0,.22-1.14A3.52,3.52,0,0,0,284,111Zm-1.82,2.81a.51.51,0,0,1-.26.28.5.5,0,0,1-.39,0,.48.48,0,0,1-.27-.26.46.46,0,0,1,0-.39.53.53,0,0,1,.46-.32.39.39,0,0,1,.18,0A.5.5,0,0,1,282.19,113.84Z"/><path class="cls-2" d="M267.9,72.34a4.87,4.87,0,0,1,0,.66A4.78,4.78,0,0,0,267.9,72.34Z"/><path class="cls-2" d="M259.41,77.59a5.41,5.41,0,0,0,2.16.83,5.41,5.41,0,0,1-2.15-.84Z"/><path class="cls-2" d="M261.92,75.44l-.07,0Z"/><path class="cls-2" d="M259.59,73.48l.78.91a2.44,2.44,0,0,1-.43-1.39,2.5,2.5,0,0,1,4.79-1l-.6-1.37,1.37-.6c.4-.18.8-.34,1.2-.5A5.5,5.5,0,0,0,256.94,73a5.4,5.4,0,0,0,.52,2.31c.32-.29.65-.59,1-.87Z"/><path class="cls-2" d="M262.44,78.5a6,6,0,0,1-.73,0A5.84,5.84,0,0,0,262.44,78.5Z"/><path class="cls-2" d="M261.41,75.27h0Z"/><path class="cls-2" d="M298,80.43l0,0Z"/><path class="cls-2" d="M295.86,78a5.59,5.59,0,0,0-.84,2.15,5.47,5.47,0,0,1,.85-2.14Z"/><path class="cls-2" d="M300,77.94V75.52a5.44,5.44,0,0,0-1.85.49c.3.29.59.58.87.88Z"/><path class="cls-2" d="M294.94,81a4.62,4.62,0,0,1,.06-.74A6.15,6.15,0,0,0,294.94,81Z"/><path class="cls-2" d="M300,78.54v-.39l-.92.76A2.58,2.58,0,0,1,300,78.54Z"/><path class="cls-2" d="M292.09,119.83c0-.06,0-.12,0-.17S292.07,119.77,292.09,119.83Z"/><path class="cls-2" d="M292.24,120.15l0,0Z"/><path class="cls-2" d="M297.43,118.75l-.89-1.11a2.5,2.5,0,0,1-2.1,3.86,2.47,2.47,0,0,1-1.95-1l.95,1.3-1.47.83c-.34.2-.7.37-1.05.55a5.5,5.5,0,0,0,8.5-6.55c-.27.29-.53.58-.81.87Z"/><path class="cls-2" d="M292,119.44a2.12,2.12,0,0,1-.05-.44A2.12,2.12,0,0,0,292,119.44Z"/><path class="cls-2" d="M295,116.56l0,0Z"/><path class="cls-2" d="M289,119.8a5.29,5.29,0,0,1-.07-.8A5.29,5.29,0,0,0,289,119.8Z"/><path class="cls-2" d="M297.43,114.39a5.37,5.37,0,0,0-2.11-.81,5.49,5.49,0,0,1,2.11.81Z"/><path class="cls-2" d="M289,119.94a5.08,5.08,0,0,0,.2.79h0A5.38,5.38,0,0,1,289,119.94Z"/><path class="cls-2" d="M294.44,113.5a5.55,5.55,0,0,1,.72,0A5.55,5.55,0,0,0,294.44,113.5Z"/><path class="cls-2" d="M300,110.88a26.53,26.53,0,0,1-2.57,3.51h0a5.49,5.49,0,0,0-2.11-.81l-.16,0a5.48,5.48,0,0,0-6.22,5.45,5.29,5.29,0,0,0,.07.8s0,.09,0,.14a5.38,5.38,0,0,0,.2.79h0A26.48,26.48,0,0,1,260.05,117a5.52,5.52,0,0,1-2.27,2,29.39,29.39,0,0,0,33.14,4.25c.35-.18.71-.35,1.05-.55l1.47-.83-.95-1.3-.05-.07a2.14,2.14,0,0,1-.2-.32l0,0c-.05-.1-.09-.19-.13-.29s0-.12,0-.17a2.25,2.25,0,0,1-.05-.22,2.12,2.12,0,0,1-.05-.44,2.5,2.5,0,0,1,2.5-2.5,2.35,2.35,0,0,1,.54.06l0,0a2.43,2.43,0,0,1,1.35.86l.17.2.89,1.11,1.18-1.21c.28-.29.54-.58.81-.87L300,116Z"/><path class="cls-2" d="M257.88,114.54a2.42,2.42,0,0,0,.06-.54A2.48,2.48,0,0,1,257.88,114.54Z"/><path class="cls-2" d="M256.8,116.09a2.48,2.48,0,0,0,1.07-1.51,2.58,2.58,0,0,1-.86,1.35Z"/><path class="cls-2" d="M254.5,108.59l.14,0Z"/><path class="cls-2" d="M260.89,114.72a.88.88,0,0,0,0,.16A.88.88,0,0,1,260.89,114.72Z"/><path class="cls-2" d="M254.79,111.6l.21-.06Z"/><path class="cls-2" d="M253.71,108.78a26.46,26.46,0,0,1,5.7-31.19h0a5.41,5.41,0,0,0,2.15.84l.14,0a6,6,0,0,0,.73,0,5.51,5.51,0,0,0,5.5-5.5,4.87,4.87,0,0,0,0-.66.13.13,0,0,0,0-.06,26.48,26.48,0,0,1,28,5.68h0a5.47,5.47,0,0,0-.85,2.14.77.77,0,0,0,0,.15,4.62,4.62,0,0,0-.06.74A5.51,5.51,0,0,0,300,86.48v-3A2.51,2.51,0,0,1,297.94,81a2.48,2.48,0,0,1,.06-.54l0,0a2.47,2.47,0,0,1,.85-1.35l.21-.17.92-.76v-.21l-1-1c-.28-.3-.57-.59-.87-.88a29.45,29.45,0,0,0-31.45-6.48c-.4.16-.8.32-1.2.5l-1.37.6.6,1.37h0a2.5,2.5,0,0,1-2.29,3.5,2.24,2.24,0,0,1-.52-.06l-.07,0a2.28,2.28,0,0,1-.44-.15h0a2.64,2.64,0,0,1-.85-.65l-.18-.22-.78-.91-1.14,1c-.34.28-.67.58-1,.87a29.42,29.42,0,0,0-6.24,35.17A5.54,5.54,0,0,1,253.71,108.78Z"/><path class="cls-2" d="M254.33,111.78l.28-.13Z"/><path class="cls-2" d="M254.29,111.8a1.76,1.76,0,0,0-.37.23l.05,0A1.55,1.55,0,0,1,254.29,111.8Z"/><path class="cls-2" d="M260.05,117a5.54,5.54,0,0,0,.82-2.11.88.88,0,0,1,0-.16,5.81,5.81,0,0,0,.05-.72,5.51,5.51,0,0,0-5.5-5.5,5.29,5.29,0,0,0-.8.07l-.14,0a5.35,5.35,0,0,0-.79.19,5.54,5.54,0,0,0-2.49,1.7,5.45,5.45,0,0,0-1.28,3.52,5.51,5.51,0,0,0,5.5,5.5,5.39,5.39,0,0,0,2.34-.53A5.52,5.52,0,0,0,260.05,117Zm-2.18-2.41a2.48,2.48,0,0,1-1.07,1.51,2.42,2.42,0,0,1-1.36.41,2.49,2.49,0,0,1-1.52-4.47,1.76,1.76,0,0,1,.37-.23l0,0,.28-.13.18-.05.21-.06a3.27,3.27,0,0,1,.44,0,2.5,2.5,0,0,1,2.5,2.5,2.42,2.42,0,0,1-.06.54S257.87,114.57,257.87,114.58Z"/><polygon class="cls-2" points="125.45 28.68 127.08 26.16 118.82 20.14 117.15 22.64 125.45 28.68"/><polygon class="cls-2" points="136.95 37.04 138.61 34.54 129.51 27.93 127.88 30.45 136.95 37.04"/><polygon class="cls-2" points="147.01 44.36 148.64 41.84 141.04 36.31 139.38 38.8 147.01 44.36"/><polygon class="cls-2" points="159.4 53.37 161.06 50.87 151.07 43.6 149.44 46.13 159.4 53.37"/><path class="cls-2" d="M156.19,58.17a1.5,1.5,0,0,0,.42,2.08,1.52,1.52,0,0,0,.83.25,1.48,1.48,0,0,0,1.25-.67l8-12a1.5,1.5,0,0,0-2.5-1.66l-3.13,4.7-1.66,2.5Z"/><path class="cls-2" d="M134.19,41.17a1.5,1.5,0,0,0,.42,2.08,1.52,1.52,0,0,0,.83.25,1.48,1.48,0,0,0,1.25-.67l2.69-4,1.66-2.5,3.65-5.48a1.5,1.5,0,1,0-2.5-1.66l-3.58,5.37L137,37Z"/><path class="cls-2" d="M145.18,47.19a1.5,1.5,0,1,0,2.52,1.62l1.74-2.68,1.63-2.53,2.13-3.29a1.5,1.5,0,1,0-2.52-1.62l-2,3.15L147,44.36Z"/><path class="cls-2" d="M123.18,32.19a1.5,1.5,0,1,0,2.52,1.62l2.18-3.36,1.63-2.53,1.69-2.61a1.5,1.5,0,1,0-2.52-1.62l-1.6,2.47-1.63,2.52Z"/><path class="cls-2" d="M121.27,13.75a1.5,1.5,0,0,0-2.08.42l-8,12a1.5,1.5,0,0,0,.42,2.08,1.52,1.52,0,0,0,.83.25,1.48,1.48,0,0,0,1.25-.67l3.46-5.19,1.67-2.5,2.87-4.31A1.5,1.5,0,0,0,121.27,13.75Z"/><path class="cls-2" d="M89.65,121.2h0Z"/><path class="cls-2" d="M112.05,76.55h0Z"/><path class="cls-2" d="M89.34,121l-.06-.07Z"/><path class="cls-2" d="M112.44,76.51h0Z"/><path class="cls-2" d="M89,119.66a1.5,1.5,0,0,1,1.75-1.2l2,.38,20.48-39-1.2-.38a1.5,1.5,0,0,1-1-1.88,1.52,1.52,0,0,1,1-1l-37,10a1.53,1.53,0,0,0-1,.82,1.56,1.56,0,0,0,0,1.27l15,31.94s0,0,0,0A1.46,1.46,0,0,1,89,119.66Zm20.55-39.32-19,36.23L77.56,89Z"/><path class="cls-2" d="M90.05,121.38l-.1,0Z"/><path class="cls-2" d="M130.44,129a1.52,1.52,0,0,0,1.33-.79l20-37.5a1.51,1.51,0,0,0,.06-1.28,1.49,1.49,0,0,0-.94-.86l-38-12a1.15,1.15,0,0,0-.37-.06h-.08a1.47,1.47,0,0,0-.36,0H112a1.52,1.52,0,0,0-1,1,1.5,1.5,0,0,0,1,1.88l1.2.38,35.08,11.08-18.63,34.93-36.93-7-2-.38a1.5,1.5,0,0,0-1.75,1.2,1.46,1.46,0,0,0,.14,1,1.78,1.78,0,0,0,.17.27l.06.07a2.09,2.09,0,0,0,.28.24h0a1.4,1.4,0,0,0,.3.15l.1,0,.11,0,40,7.56Z"/><path class="cls-2" d="M41.53,248.37a6.46,6.46,0,0,0,4.16-2.9c1.47-2.56.73-6.05-2.08-9.84a37.52,37.52,0,0,0-11.34-9.57,37.64,37.64,0,0,0-14-4.94c-4.69-.51-8.08.62-9.54,3.18a6.69,6.69,0,0,0-.15,5.83L0,245.13v6l11.94-20.84-.31-.69c-.49-1.12-1-2.7-.29-3.85s2.38-1.79,4.8-1.79a16.45,16.45,0,0,1,1.81.1,34.54,34.54,0,0,1,12.83,4.57,34.43,34.43,0,0,1,10.42,8.75c2,2.73,2.71,5.12,1.89,6.56a3.89,3.89,0,0,1-2.81,1.6l-.68.13L14.9,288.82,16.47,300h3L18,289.42Z"/><path class="cls-2" d="M5.86,281.05a9.07,9.07,0,0,0,4.18,1,9.68,9.68,0,0,0,7.2-3.22A9.8,9.8,0,0,0,17.87,267c-.15-.21-3.36-4.8-8.73-4.17a9.49,9.49,0,0,0-7.63,6.38C.11,273.18,1.36,278.72,5.86,281.05ZM4.34,270.17a6.48,6.48,0,0,1,5.15-4.39,4.54,4.54,0,0,1,.63,0c3.21,0,5.24,2.88,5.27,2.92a6.77,6.77,0,0,1-.4,8.19,6.49,6.49,0,0,1-7.75,1.54C4.18,276.8,3.37,273,4.34,270.17Z"/><path class="cls-2" d="M0,297.06a20.75,20.75,0,0,1,2.48.8c.39.15.79.33,1.22.53L3.93,300H7l-.5-3.59-.7-.35a23.26,23.26,0,0,0-2.18-1A21.28,21.28,0,0,0,0,294Z"/><path class="cls-2" d="M39.67,78.72A27.19,27.19,0,0,1,27.35,82.5a1.5,1.5,0,0,0-1.33,2l3,9a1.5,1.5,0,0,0,1.38,1h1a34.58,34.58,0,0,0,14.63-3.15C48.82,90.09,62.65,83,64.93,68.23a27.81,27.81,0,0,0-1.06-12.68,1.48,1.48,0,0,0-1.43-1h-9A1.51,1.51,0,0,0,52,56.1,23.84,23.84,0,0,1,51,64.57,25.53,25.53,0,0,1,39.67,78.72ZM53.88,65.43A26.45,26.45,0,0,0,55,57.5h6.32A24.57,24.57,0,0,1,62,67.77C59.92,81,47.32,87.48,44.81,88.64a31.47,31.47,0,0,1-13.28,2.87l-2.07-6.19a29.78,29.78,0,0,0,11.76-4A28.48,28.48,0,0,0,53.88,65.43Z"/><path class="cls-2" d="M233.18,298.7a8.13,8.13,0,0,1,5.12-7.13l50-20.62.47-.2L300,251.17v-6l-13.31,23.24-49.54,20.42a11.23,11.23,0,0,0-7,9.72,10.58,10.58,0,0,0,0,1.49h3A9.38,9.38,0,0,1,233.18,298.7Z"/><path class="cls-2" d="M287.94,290.24h.2a4.84,4.84,0,0,0,3.7-1.68c1.69-2.05.94-5.09-.46-7.05s-4.12-3.58-6.38-2.71h0a5.23,5.23,0,0,0-2.92,3.87,6.23,6.23,0,0,0,1.32,5.7A6.32,6.32,0,0,0,287.94,290.24ZM285,283.32a2.45,2.45,0,0,1,1.08-1.73h0a.87.87,0,0,1,.28,0,4,4,0,0,1,2.58,1.7c.66.93,1.23,2.62.58,3.41a2,2,0,0,1-1.48.58,3.3,3.3,0,0,1-2.45-.92A3.39,3.39,0,0,1,285,283.32Z"/><path class="cls-2" d="M274.38,286.86l-21.79,9a5.48,5.48,0,0,0-3.35,4.17h3.1a2.51,2.51,0,0,1,1.39-1.4l20-8.23a30.24,30.24,0,0,0,8.08,4.88,21,21,0,0,0,11,1.45,20.3,20.3,0,0,1,7.14.36V294a23.76,23.76,0,0,0-7.38-.27,18.26,18.26,0,0,1-9.65-1.23,26.37,26.37,0,0,1-7.88-5Z"/><path class="cls-2" d="M22,39.52a8.15,8.15,0,0,1-3.57,8,8.14,8.14,0,0,1-8.78.33L0,42.35V45.8l8.17,4.68A11.3,11.3,0,0,0,25,39.11L19.5,0h-3Z"/><path class="cls-2" d="M8.13,29.77a2.56,2.56,0,0,1-3.8,2.58L0,29.87v3.45L2.84,35a5.47,5.47,0,0,0,2.76.74,5.56,5.56,0,0,0,5.5-6.34L7,0h-3Z"/><path class="cls-2" d="M235.84,9.05,300,45.8V42.35L237.33,6.44A8.11,8.11,0,0,1,233.19,0h-3A11.23,11.23,0,0,0,235.84,9.05Z"/><path class="cls-2" d="M291.71,3.72a3.86,3.86,0,0,0-3.16,2.61,4,4,0,0,0,1.81,4.84,3.69,3.69,0,0,0,1.74.42,4,4,0,0,0,2.95-1.32,4,4,0,0,0,.27-4.85h0A4,4,0,0,0,291.71,3.72Zm1.09,4.56a.9.9,0,0,1-1.05.23,1,1,0,0,1-.37-1.19.92.92,0,0,1,.68-.62h.06a1.09,1.09,0,0,1,.73.43A1,1,0,0,1,292.8,8.28Z"/><path class="cls-2" d="M251.94,5.79,300,33.32V29.87L253.43,3.18A2.48,2.48,0,0,1,252.15.8a2.67,2.67,0,0,1,.19-.8h-3.1a6,6,0,0,0-.09.61A5.53,5.53,0,0,0,251.94,5.79Z"/><path class="cls-2" d="M190.27,76.54a1.49,1.49,0,0,0,2.09-.38l.41-.59,8.88-12.89.51-.73a1.5,1.5,0,1,0-2.47-1.7l-.07.1-9.11,13.21-.62.9A1.49,1.49,0,0,0,190.27,76.54Z"/><path class="cls-2" d="M213.56,55.92l-9-.83a1.5,1.5,0,0,0-.28,3l9,.83h.15a1.5,1.5,0,0,0,.13-3Z"/></g></g></svg>