<svg xmlns="http://www.w3.org/2000/svg" xmlns:xlink="http://www.w3.org/1999/xlink" viewBox="0 0 300 300"><defs><style>.cls-1{fill:none;}.cls-2{clip-path:url(#clip-path);}.cls-3{fill:#fff;}</style><clipPath id="clip-path"><rect class="cls-1" width="300" height="300"/></clipPath></defs><title>we heart teachers</title><g id="Layer_2" data-name="Layer 2"><g id="Layer_2-2" data-name="Layer 2"><g class="cls-2"><path class="cls-3" d="M89,320.91a16,16,0,0,1-5.15-.85A15.21,15.21,0,0,1,75,312.5c-2.73-5.42-.7-11.1.51-14.13-3.25-.92-9-2.64-11.61-7.89A15.16,15.16,0,0,1,63,278.91a16.06,16.06,0,0,1,7.3-9h0a17.77,17.77,0,0,1,11.4-2.11c3.39.39,10.41,2.23,17.08,4.48,3.45,1.17,6.47,2.33,8.73,3.37,4,1.83,5,3,5.45,3.88s.77,2.38-.13,6.68c-.51,2.43-1.37,5.56-2.48,9-2.16,6.75-4.84,13.51-6.51,16.43a17.52,17.52,0,0,1-8.48,7.91A15.89,15.89,0,0,1,89,320.91ZM71.83,272.48a13,13,0,0,0-5.94,7.35,12.23,12.23,0,0,0,.67,9.3c2.12,4.2,7.25,5.64,10,6.42.49.14,1.06.3,1.43.43l1.41.5-.49,1.41c-.11.31-.28.73-.44,1.12-1,2.48-3.07,7.63-.8,12.13a12.23,12.23,0,0,0,7.08,6.08,13.12,13.12,0,0,0,9.45-.41,14.76,14.76,0,0,0,7.08-6.67c1.58-2.75,4.15-9.27,6.25-15.84,1.08-3.39,1.91-6.42,2.4-8.75.74-3.49.52-4.45.39-4.71s-.7-1-4-2.51a90.2,90.2,0,0,0-8.44-3.24c-6.49-2.19-13.26-4-16.46-4.35a14.87,14.87,0,0,0-9.57,1.74Z"/><path class="cls-3" d="M296.55,185.22a13.54,13.54,0,0,1-3.4-.43c-5.26-1.35-7.92-6-9.29-8.64-2.59,1.67-7.12,4.43-12.21,3.12a13.83,13.83,0,0,1-8.43-6.35,14.57,14.57,0,0,1-1.81-10.41,16,16,0,0,1,5.37-9.06A94.59,94.59,0,0,1,280,144.52c2.84-1.65,5.42-3,7.47-3.93,3.64-1.64,5-1.64,6-1.4s2.12.9,4.52,4.1c1.35,1.79,3,4.23,4.67,7.05,3.3,5.48,6.3,11.3,7.28,14.18a15.91,15.91,0,0,1,.35,10.52,14.6,14.6,0,0,1-6.61,8.25A13.94,13.94,0,0,1,296.55,185.22ZM284.43,172.5a1.52,1.52,0,0,1,1.31.76c.14.24.32.59.48.92,1.1,2.17,3.34,6.59,7.67,7.7a10.89,10.89,0,0,0,8.21-1.18,11.59,11.59,0,0,0,5.24-6.56,13.12,13.12,0,0,0-.31-8.65,93.82,93.82,0,0,0-7-13.6c-1.65-2.73-3.2-5.08-4.49-6.8-1.95-2.59-2.7-2.94-2.88-3s-.95-.14-4,1.23a78.29,78.29,0,0,0-7.19,3.78,91.57,91.57,0,0,0-12.67,8.56,13.2,13.2,0,0,0-4.45,7.43h0a11.58,11.58,0,0,0,1.44,8.27,10.85,10.85,0,0,0,6.61,5c4,1,8-1.55,10.15-2.94.39-.26.84-.55,1.15-.72A1.41,1.41,0,0,1,284.43,172.5Zm-21.55-9.7h0Z"/><path class="cls-3" d="M284.43,218.82h-.22a5.74,5.74,0,0,1-3.79-1.64h0a6.19,6.19,0,0,1-1.78-3.59,31.13,31.13,0,0,1-.09-5.33c.06-1.09.15-2,.27-2.8a3,3,0,0,1,3.51-3.19c.75-.05,1.72-.06,2.81,0a32.07,32.07,0,0,1,5.3.57,6.08,6.08,0,0,1,3.42,2.1,5.68,5.68,0,0,1,1.29,3.92,5.48,5.48,0,0,1-1.77,3.77,5.3,5.3,0,0,1-3.67,1.29,5.27,5.27,0,0,1-1.59,3.51A5.48,5.48,0,0,1,284.43,218.82Zm-1.9-3.77a2.68,2.68,0,0,0,1.79.77,2.42,2.42,0,0,0,1.78-.63,3.44,3.44,0,0,0,.66-2.49c0-.17,0-.37,0-.5l.1-1.49,1.49.09.4,0a3.4,3.4,0,0,0,2.6-.45,2.42,2.42,0,0,0,.79-1.71,2.67,2.67,0,0,0-.61-1.86,3.13,3.13,0,0,0-1.84-1.09,28,28,0,0,0-4.67-.48c-1,0-1.85,0-2.51,0l-.62.06c0,.14-.07.33-.12.61-.1.64-.18,1.51-.23,2.49a27,27,0,0,0,.06,4.69,3.2,3.2,0,0,0,.92,1.94Z"/><path class="cls-3" d="M58.89,247.79h-.6c-1.59,0-3.66-.21-6-.49a67,67,0,0,1-11.1-2.16A11.78,11.78,0,0,1,35,240.58,10.73,10.73,0,0,1,33.27,233a10.18,10.18,0,0,1,3.89-6.72c2.94-2.25,6.56-1.92,8.69-1.55.23-2.22.86-5.75,3.7-7.93a10.19,10.19,0,0,1,7.51-2,10.68,10.68,0,0,1,6.82,3.67h0a11.88,11.88,0,0,1,2.78,7.17,66.2,66.2,0,0,1-.79,11.26c-.33,2.31-.7,4.34-1.08,5.88-.58,2.31-1.15,3.51-2,4.15C62.16,247.46,61.23,247.79,58.89,247.79ZM43,227.49a6.48,6.48,0,0,0-4,1.2,7.21,7.21,0,0,0-2.74,4.76,7.7,7.7,0,0,0,1.27,5.44,8.71,8.71,0,0,0,4.7,3.42,66.05,66.05,0,0,0,10.48,2c2.21.27,4.17.43,5.67.47a6.65,6.65,0,0,0,2.63-.21h0a6.87,6.87,0,0,0,.88-2.48,56.28,56.28,0,0,0,1-5.58,66.27,66.27,0,0,0,.77-10.63,8.78,8.78,0,0,0-2.07-5.43h0a7.69,7.69,0,0,0-4.92-2.65,7.21,7.21,0,0,0-5.3,1.4c-2.18,1.66-2.45,4.74-2.61,6.58,0,.37-.07.74-.11,1l-.23,1.47L47,228l-.77-.14A16.52,16.52,0,0,0,43,227.49Z"/><path class="cls-3" d="M144.86,242.39c-.93,0-2.08-.4-4.47-2.19-1.45-1.08-3.24-2.6-5.18-4.38a75.37,75.37,0,0,1-8.81-9.29,13,13,0,0,1-2.68-8.18,12,12,0,0,1,3.3-8,11.37,11.37,0,0,1,7.9-3.59c4.26-.14,7.39,2.68,9.06,4.41,1.62-1.86,4.55-4.85,8.67-5a11.37,11.37,0,0,1,8.11,3.06,12,12,0,0,1,3.81,7.78h0a13.16,13.16,0,0,1-2.13,8.34,76.61,76.61,0,0,1-8.15,9.85c-1.82,1.91-3.5,3.54-4.87,4.71-2.5,2.13-3.61,2.45-4.45,2.48Zm-9.64-32.64H135a8.36,8.36,0,0,0-5.82,2.65,9,9,0,0,0-2.48,6,10.05,10.05,0,0,0,2.13,6.39,74.58,74.58,0,0,0,8.39,8.81c1.87,1.72,3.58,3.17,4.94,4.19,2.11,1.58,2.68,1.59,2.69,1.59h0s.61-.06,2.6-1.76c1.29-1.1,2.9-2.66,4.64-4.49a74.65,74.65,0,0,0,7.77-9.36,10.23,10.23,0,0,0,1.71-6.51h0a9,9,0,0,0-2.87-5.83,8.39,8.39,0,0,0-6-2.27c-3.19.1-5.52,2.81-6.9,4.43-.26.3-.54.62-.74.83l-1,1.06-1.07-1c-.17-.16-.4-.41-.61-.64C141,212.38,138.56,209.75,135.22,209.75Z"/><path class="cls-3" d="M214.43,27.3c-2,0-2.87-.34-3.44-.73-.83-.56-1.57-1.58-2.54-4.74-.56-1.85-1.15-4.29-1.7-7.07A81.21,81.21,0,0,1,205,1.17a13.82,13.82,0,0,1,2.84-8.71,12.76,12.76,0,0,1,7.87-4.8,12.12,12.12,0,0,1,9,1.88c3.8,2.6,4.67,7,5,9.6,2.54-.57,7-1.37,10.68,1.14a12.07,12.07,0,0,1,5,7.72,12.7,12.7,0,0,1-1.62,9.07,14,14,0,0,1-7.07,5.81,81,81,0,0,1-13.28,3.36,72,72,0,0,1-7.19,1C215.6,27.28,215,27.3,214.43,27.3ZM218-9.54a9.85,9.85,0,0,0-1.7.15,9.74,9.74,0,0,0-6,3.67A10.87,10.87,0,0,0,208,1.22a80.14,80.14,0,0,0,1.67,13c.53,2.68,1.09,5,1.63,6.77.83,2.72,1.31,3.11,1.36,3.14s.55.36,3.43.14a69.16,69.16,0,0,0,6.88-.94,79.23,79.23,0,0,0,12.66-3.18,11,11,0,0,0,5.66-4.6h0a9.74,9.74,0,0,0,1.23-6.94,9.09,9.09,0,0,0-3.78-5.82c-2.87-2-6.77-1-8.87-.56-.41.1-.85.2-1.15.25l-1.48.24L227,1.21C227,1,226.93.62,226.89.3c-.26-2.17-.75-6.17-3.83-8.28A9.07,9.07,0,0,0,218-9.54Z"/><path class="cls-3" d="M124.78,136.31a8.68,8.68,0,0,1-7-3.65h0a9.49,9.49,0,0,1-1.71-5.92,50.88,50.88,0,0,1,1.4-8.71,44.64,44.64,0,0,1,1.26-4.5c.63-1.83,1.19-2.77,2-3.24s1.81-.59,3.76-.37c1.24.14,2.83.42,4.61.8a50.84,50.84,0,0,1,8.48,2.46,9.4,9.4,0,0,1,4.62,4.09,8.61,8.61,0,0,1,.87,6.19,8.22,8.22,0,0,1-3.61,5.13,8.61,8.61,0,0,1-6.74.72,8.62,8.62,0,0,1-3.49,5.74A8.17,8.17,0,0,1,124.78,136.31Zm-4.58-5.38a5.61,5.61,0,0,0,3.4,2.25,5.27,5.27,0,0,0,4-.67c1.67-1,2.07-3.32,2.32-4.67,0-.28.1-.58.15-.77l.36-1.45,1.45.35.59.17c1.25.37,3.55,1,5.36-.09a5.27,5.27,0,0,0,2.29-3.27,5.65,5.65,0,0,0-.57-4,6.41,6.41,0,0,0-3.23-2.82,51.54,51.54,0,0,0-7.88-2.26c-1.68-.36-3.17-.62-4.31-.75a8.62,8.62,0,0,0-1.82-.06,7.78,7.78,0,0,0-.73,1.67c-.37,1.08-.78,2.53-1.17,4.2a50.52,50.52,0,0,0-1.32,8.08,6.53,6.53,0,0,0,1.16,4.14Z"/><path class="cls-3" d="M219.28,160.06a6.52,6.52,0,0,1-4.11-1.47,5.94,5.94,0,0,1-.84-8.6,6.13,6.13,0,0,1-2.36-4,6.2,6.2,0,0,1,1.33-4.54,6.48,6.48,0,0,1,4-2.39,7.09,7.09,0,0,1,4.53.79,36,36,0,0,1,5.13,3.61,32.88,32.88,0,0,1,2.48,2.21,4.31,4.31,0,0,1,1.57,2.49,4.41,4.41,0,0,1-1,2.77c-.48.75-1.15,1.68-1.95,2.69a36.28,36.28,0,0,1-4.22,4.65,7,7,0,0,1-4.26,1.75Zm-.8-18.07a3.59,3.59,0,0,0-.64,0h0a3.5,3.5,0,0,0-2.19,1.29,3.23,3.23,0,0,0-.7,2.36c.13,1.17,1.33,2.06,2.05,2.58l.46.35,1.15,1-1,1.15-.3.34c-.56.61-1.61,1.75-1.47,3a3.24,3.24,0,0,0,1.2,2.15,3.52,3.52,0,0,0,2.41.79A4.05,4.05,0,0,0,222,156a33.61,33.61,0,0,0,3.77-4.19c.74-.94,1.35-1.78,1.78-2.45.25-.41.39-.67.47-.83a7.79,7.79,0,0,0-.64-.71c-.56-.55-1.33-1.24-2.25-2a33.78,33.78,0,0,0-4.6-3.27A4.38,4.38,0,0,0,218.48,142Z"/><path class="cls-3" d="M39.56,164.7a3.89,3.89,0,0,1-2.29-.53c-.66-.46-1.1-1.26-1.58-2.87a38.56,38.56,0,0,1-.88-3.77,43.31,43.31,0,0,1-.86-7.26,8,8,0,0,1,1.68-5,7.31,7.31,0,0,1,4.57-2.74,7,7,0,0,1,5.24,1.14,7.19,7.19,0,0,1,2.77,4.77,7.18,7.18,0,0,1,5.39.9,7,7,0,0,1,2.89,4.51,7.39,7.39,0,0,1-1,5.24h0a8.05,8.05,0,0,1-4.07,3.3,42.73,42.73,0,0,1-7.1,1.74c-1.48.25-2.8.42-3.83.49C40.17,164.69,39.85,164.7,39.56,164.7Zm-.55-3a6.49,6.49,0,0,0,1.31,0,34.78,34.78,0,0,0,3.53-.46,41.4,41.4,0,0,0,6.48-1.56A5.19,5.19,0,0,0,53,157.56h0a4.35,4.35,0,0,0,.57-3.11,4.08,4.08,0,0,0-1.65-2.61c-1.24-.85-3-.45-4.07-.22l-.65.14L45.7,152l-.24-1.47c0-.13,0-.31-.06-.48-.12-1.06-.34-2.94-1.67-3.87a4.09,4.09,0,0,0-3-.65A4.39,4.39,0,0,0,38,147.15a5,5,0,0,0-1,3.19,40.94,40.94,0,0,0,.81,6.63,35.58,35.58,0,0,0,.81,3.48A7.58,7.58,0,0,0,39,161.67Z"/><path class="cls-3" d="M250.05,249.42a1.88,1.88,0,0,1-.47,0,4,4,0,0,1-2.16-1.68c-.5-.61-1.11-1.46-1.75-2.43a33.59,33.59,0,0,1-2.79-4.94,6.51,6.51,0,0,1-.29-4.22,6,6,0,0,1,2.57-3.49,5.73,5.73,0,0,1,4.3-.78,5.63,5.63,0,0,1,3.39,2.42,5.66,5.66,0,0,1,4-.83,5.74,5.74,0,0,1,3.6,2.49,6,6,0,0,1,.91,4.23h0a6.6,6.6,0,0,1-2,3.73,33.94,33.94,0,0,1-4.55,3.36,28.68,28.68,0,0,1-2.6,1.5A5,5,0,0,1,250.05,249.42Zm-1.78-14.72a2.81,2.81,0,0,0-1.5.44,3.07,3.07,0,0,0-1.29,1.75,3.45,3.45,0,0,0,.2,2.34,30.58,30.58,0,0,0,2.49,4.38c.59.89,1.13,1.64,1.57,2.18.23.28.39.45.5.56.14,0,.36-.15.67-.3.63-.32,1.43-.78,2.32-1.35a30.24,30.24,0,0,0,4.07-3,3.47,3.47,0,0,0,1.13-2.06h0a3,3,0,0,0-.45-2.11,2.72,2.72,0,0,0-1.72-1.2c-1-.21-2,.54-2.66,1-.16.11-.32.23-.44.3l-1.27.78-.79-1.28-.2-.36c-.36-.63-1-1.8-2.07-2A2.74,2.74,0,0,0,248.27,234.7Z"/><path class="cls-3" d="M70.78,105.72h-.22a5.27,5.27,0,0,1-3.64-1.65,5.13,5.13,0,0,1-1.29-3.43,5,5,0,0,1-3.3-1.49,5.25,5.25,0,0,1-1.41-3.73,5.5,5.5,0,0,1,1.53-3.66h0A5.88,5.88,0,0,1,65.87,90a29.7,29.7,0,0,1,5-.15c1,0,2,.12,2.65.22a3,3,0,0,1,3.13,3.36c.06.7.07,1.62,0,2.66a29.92,29.92,0,0,1-.48,5,5.83,5.83,0,0,1-2,3.3A5.46,5.46,0,0,1,70.78,105.72Zm-3.79-8h.31l1.5.08-.09,1.51c0,.09,0,.23,0,.36a3.17,3.17,0,0,0,.43,2.39,2.27,2.27,0,0,0,1.57.7,2.47,2.47,0,0,0,1.69-.58,2.9,2.9,0,0,0,1-1.7,28.11,28.11,0,0,0,.39-4.4c0-.94,0-1.76,0-2.36,0-.23,0-.4,0-.53l-.52-.09c-.61-.09-1.42-.15-2.35-.19a26.51,26.51,0,0,0-4.41.11,3,3,0,0,0-1.77.86,2.49,2.49,0,0,0-.69,1.65,2.25,2.25,0,0,0,.6,1.61,3.19,3.19,0,0,0,2.3.57Z"/><path class="cls-3" d="M199,282a10.09,10.09,0,0,1-5-1.4,53.51,53.51,0,0,1-7.3-5.53,48.15,48.15,0,0,1-3.52-3.35c-1.36-1.45-1.94-2.42-2-3.33s.35-1.93,1.49-3.6c.73-1.07,1.76-2.4,3-3.84a53.31,53.31,0,0,1,6.39-6.59,9.69,9.69,0,0,1,6-2.23,8.85,8.85,0,0,1,6.07,2.2,8.52,8.52,0,0,1,2.93,5.79,9,9,0,0,1-2.65,6.55c1.41,1.18,3.38,3.16,3.59,6a8.47,8.47,0,0,1-2,6.16,9,9,0,0,1-5.67,3.09h0A10.9,10.9,0,0,1,199,282Zm-14.82-13.84a7.48,7.48,0,0,0,1.19,1.52c.82.88,2,2,3.3,3.13a52.79,52.79,0,0,0,6.79,5.17,6.77,6.77,0,0,0,4.4,1h0a5.94,5.94,0,0,0,3.77-2.05,5.5,5.5,0,0,0,1.33-4c-.16-2.07-2.05-3.56-3.18-4.45-.23-.18-.48-.38-.63-.52l-1.11-1,1-1.12.43-.45c1-1,2.72-2.78,2.56-5a5.53,5.53,0,0,0-1.91-3.75,6,6,0,0,0-4-1.47,6.82,6.82,0,0,0-4.21,1.61,53.92,53.92,0,0,0-5.93,6.15c-1.15,1.37-2.12,2.62-2.79,3.6A7.31,7.31,0,0,0,184.15,268.17Z"/><path class="cls-3" d="M156.1,57a5.34,5.34,0,0,1-2.54-.93,34.42,34.42,0,0,1-2.88-1.91,38.73,38.73,0,0,1-5-4.19,7.25,7.25,0,0,1-2-4.32A6.69,6.69,0,0,1,145,41a6.14,6.14,0,0,1,8.88-1.19,6.07,6.07,0,0,1,8.79-1.47,6.72,6.72,0,0,1,2.63,4.08h0a7.31,7.31,0,0,1-.63,4.72,37.07,37.07,0,0,1-3.54,5.48,34.2,34.2,0,0,1-2.18,2.67,4.57,4.57,0,0,1-2.5,1.72A1.88,1.88,0,0,1,156.1,57ZM150,41.39a2.11,2.11,0,0,0-.35,0,3.48,3.48,0,0,0-2.23,1.36,3.69,3.69,0,0,0-.73,2.59,4.31,4.31,0,0,0,1.23,2.6,35.84,35.84,0,0,0,4.55,3.77c1,.73,1.91,1.33,2.62,1.74A8.51,8.51,0,0,0,156,54a8.48,8.48,0,0,0,.75-.73,30.38,30.38,0,0,0,2-2.43,35.34,35.34,0,0,0,3.22-4.94,4.35,4.35,0,0,0,.41-2.85h0a3.64,3.64,0,0,0-1.46-2.26,3.36,3.36,0,0,0-2.53-.64c-1.25.18-2.13,1.49-2.65,2.26l-.35.5L154.45,44l-1.18-.91-.33-.27A5,5,0,0,0,150,41.39Z"/><path class="cls-3" d="M140.15,279.28a9.2,9.2,0,0,1-1.74-.21,33.7,33.7,0,0,1-3.34-.89,38,38,0,0,1-6.09-2.36,7.33,7.33,0,0,1-3.27-3.46,6.77,6.77,0,0,1-.25-4.85,6.15,6.15,0,0,1,8-4,6.07,6.07,0,0,1,7.85-4.2,6.73,6.73,0,0,1,3.8,3h0a7.35,7.35,0,0,1,.92,4.66,37.83,37.83,0,0,1-1.6,6.33,33.7,33.7,0,0,1-1.22,3.24,4.5,4.5,0,0,1-1.81,2.42A2.8,2.8,0,0,1,140.15,279.28Zm-8.93-13.11a2.59,2.59,0,0,0-1.22.27,3.43,3.43,0,0,0-1.69,2,3.73,3.73,0,0,0,.14,2.69,4.29,4.29,0,0,0,2,2.07,35.75,35.75,0,0,0,5.51,2.12c1.18.36,2.24.65,3,.81a7,7,0,0,0,1,.15,8.52,8.52,0,0,0,.47-.92,31,31,0,0,0,1.11-2.94,36.3,36.3,0,0,0,1.46-5.71,4.32,4.32,0,0,0-.52-2.84h0a3.7,3.7,0,0,0-2.11-1.67,3.4,3.4,0,0,0-2.6.2c-1.12.58-1.54,2.09-1.78,3-.06.19-.12.42-.17.57l-.48,1.41-1.42-.47-.44-.17A6.63,6.63,0,0,0,131.22,266.17Z"/><path class="cls-3" d="M16.46,77.68a4.52,4.52,0,0,1-.52,0h0a7.33,7.33,0,0,1-4.36-1.9,38.24,38.24,0,0,1-4.29-4.92,32.6,32.6,0,0,1-2-2.84,4.58,4.58,0,0,1-1-2.88A4.45,4.45,0,0,1,6,62.61a32.27,32.27,0,0,1,2.63-2.24,37.48,37.48,0,0,1,5.42-3.66,7.27,7.27,0,0,1,4.7-.72,6.72,6.72,0,0,1,4.13,2.56,6.39,6.39,0,0,1,1.27,4.72,6.46,6.46,0,0,1-2.58,4.15,6.07,6.07,0,0,1-1,8.84A6.69,6.69,0,0,1,16.46,77.68Zm-.29-3a3.71,3.71,0,0,0,2.58-.77,3.46,3.46,0,0,0,1.31-2.26c.16-1.25-.84-2.45-1.45-3.17-.13-.16-.28-.34-.37-.47l-.88-1.2,1.19-.89.35-.24c.78-.52,2.13-1.43,2.31-2.79a3.39,3.39,0,0,0-.68-2.52,3.77,3.77,0,0,0-2.29-1.42,4.28,4.28,0,0,0-2.85.47,35.3,35.3,0,0,0-4.87,3.32c-1,.77-1.81,1.47-2.4,2a7.08,7.08,0,0,0-.71.76,6.45,6.45,0,0,0,.48.92c.43.7,1,1.59,1.79,2.58a36,36,0,0,0,3.86,4.46,4.36,4.36,0,0,0,2.63,1.18Z"/><path class="cls-3" d="M248.6,54.51c-.78,0-1.68,0-2.66-.1a36.85,36.85,0,0,1-6.47-.88,7.29,7.29,0,0,1-4-2.6,6.72,6.72,0,0,1-1.37-4.66A6.13,6.13,0,0,1,241,40.54a6.37,6.37,0,0,1,2-4.39,6.45,6.45,0,0,1,4.65-1.53,6.76,6.76,0,0,1,4.4,2.06h0A7.27,7.27,0,0,1,254,41a37.22,37.22,0,0,1-.08,6.53c-.11,1.33-.26,2.51-.43,3.42a4.57,4.57,0,0,1-1.2,2.79,4.55,4.55,0,0,1-2.92.76Zm-8.17-11a3.26,3.26,0,0,0-2.16.66,3.42,3.42,0,0,0-1.17,2.34,3.69,3.69,0,0,0,.76,2.58,4.32,4.32,0,0,0,2.43,1.55,36.26,36.26,0,0,0,5.85.77c1.24.08,2.33.11,3.15.08a8.28,8.28,0,0,0,1-.09,8.87,8.87,0,0,0,.25-1c.15-.81.28-1.89.38-3.12a35.49,35.49,0,0,0,.1-5.89,4.43,4.43,0,0,0-1.17-2.64,3.75,3.75,0,0,0-2.44-1.14,3.44,3.44,0,0,0-2.48.81c-1,.82-1,2.39-1,3.33,0,.25,0,.46,0,.6l-.14,1.49-1.49-.14-.46-.06A10,10,0,0,0,240.43,43.52Z"/><path class="cls-3" d="M84.53,159.33h-.2A5,5,0,0,1,81,157.88a4.83,4.83,0,0,1-1.48-3.39,4.65,4.65,0,0,1,1.15-3.07,4.59,4.59,0,0,1-1.27-3A4.89,4.89,0,0,1,80.71,145,5.07,5.07,0,0,1,84,143.43h0a5.43,5.43,0,0,1,3.43.92,25.93,25.93,0,0,1,3.48,2.94c.68.66,1.25,1.27,1.66,1.76a3.56,3.56,0,0,1,1,2.14,3.47,3.47,0,0,1-1,2.17,23.57,23.57,0,0,1-1.59,1.82,27.44,27.44,0,0,1-3.36,3.1A5.48,5.48,0,0,1,84.53,159.33Zm-.11-12.92h-.18a2.12,2.12,0,0,0-1.35.64,1.87,1.87,0,0,0-.53,1.33c0,.65.72,1.28,1.14,1.65l.33.3,1,1.06-1.06,1.06-.25.23c-.39.36-1.11,1-1.09,1.74a1.85,1.85,0,0,0,.57,1.3,2,2,0,0,0,1.38.59A2.39,2.39,0,0,0,86,155.8a23.77,23.77,0,0,0,2.88-2.68c.57-.6,1-1.15,1.39-1.59l.21-.28-.22-.28c-.35-.42-.84-.94-1.44-1.53a24.79,24.79,0,0,0-3-2.56A2.62,2.62,0,0,0,84.42,146.41Zm6.27,5.13Z"/><path class="cls-3" d="M142.49,29.14a18,18,0,1,1,6.79-1.34A18,18,0,0,1,142.49,29.14Zm0-33A15,15,0,0,0,136.68,25,15,15,0,0,0,156.32,5.49h0a15,15,0,0,0-13.86-9.31Z"/><path class="cls-3" d="M134.43,13.41a1.5,1.5,0,0,1-1.39-.93,3.85,3.85,0,0,1,7.13-2.92,1.5,1.5,0,1,1-2.77,1.14.87.87,0,0,0-.46-.46.85.85,0,0,0-.66,0,.91.91,0,0,0-.46.46.84.84,0,0,0,0,.65,1.5,1.5,0,0,1-.82,2A1.44,1.44,0,0,1,134.43,13.41Z"/><path class="cls-3" d="M143.19,20.63a8,8,0,0,1-5.08-1.84,1.5,1.5,0,1,1,1.92-2.3,4.9,4.9,0,0,0,5.15.71,5.22,5.22,0,0,0,2.75-3.94,1.5,1.5,0,0,1,3,.28,8.21,8.21,0,0,1-4.47,6.38A7.68,7.68,0,0,1,143.19,20.63Z"/><path class="cls-3" d="M145.32,9A1.5,1.5,0,0,1,143.93,8,3.87,3.87,0,0,1,146,3a3.87,3.87,0,0,1,5,2.11,1.5,1.5,0,1,1-2.77,1.13.88.88,0,0,0-.46-.45.81.81,0,0,0-.66,0,.87.87,0,0,0-.46.46.83.83,0,0,0,0,.65,1.51,1.51,0,0,1-.82,2A1.44,1.44,0,0,1,145.32,9Z"/><path class="cls-3" d="M104.44,44.25a4.5,4.5,0,1,1,4.5-4.5A4.51,4.51,0,0,1,104.44,44.25Zm0-6a1.5,1.5,0,1,0,1.5,1.5A1.5,1.5,0,0,0,104.44,38.25Z"/><path class="cls-3" d="M115.44,157.25a5.5,5.5,0,1,1,5.5-5.5A5.51,5.51,0,0,1,115.44,157.25Zm0-8a2.5,2.5,0,1,0,2.5,2.5A2.5,2.5,0,0,0,115.44,149.25Z"/><path class="cls-3" d="M233.44,274.25a5.5,5.5,0,1,1,5.5-5.5A5.51,5.51,0,0,1,233.44,274.25Zm0-8a2.5,2.5,0,1,0,2.5,2.5A2.5,2.5,0,0,0,233.44,266.25Z"/><path class="cls-3" d="M138.44,98.25a4.5,4.5,0,1,1,4.5-4.5A4.51,4.51,0,0,1,138.44,98.25Zm0-6a1.5,1.5,0,1,0,1.5,1.5A1.5,1.5,0,0,0,138.44,92.25Z"/><path class="cls-3" d="M167.44,255.25a5.5,5.5,0,1,1,5.5-5.5A5.51,5.51,0,0,1,167.44,255.25Zm0-8a2.5,2.5,0,1,0,2.5,2.5A2.5,2.5,0,0,0,167.44,247.25Z"/><path class="cls-3" d="M263.44,197.25a5.5,5.5,0,1,1,5.5-5.5A5.51,5.51,0,0,1,263.44,197.25Zm0-8a2.5,2.5,0,1,0,2.5,2.5A2.5,2.5,0,0,0,263.44,189.25Z"/><path class="cls-3" d="M13.94,142.25a4,4,0,1,1,4-4A4,4,0,0,1,13.94,142.25Zm0-5a1,1,0,1,0,1,1A1,1,0,0,0,13.94,137.25Z"/><path class="cls-3" d="M50.94,12.25a4,4,0,1,1,4-4A4,4,0,0,1,50.94,12.25Zm0-5a1,1,0,1,0,1,1A1,1,0,0,0,50.94,7.25Z"/><path class="cls-3" d="M167.94,289.25a4,4,0,1,1,4-4A4,4,0,0,1,167.94,289.25Zm0-5a1,1,0,1,0,1,1A1,1,0,0,0,167.94,284.25Z"/><path class="cls-3" d="M54.94,271.25a4,4,0,1,1,4-4A4,4,0,0,1,54.94,271.25Zm0-5a1,1,0,1,0,1,1A1,1,0,0,0,54.94,266.25Z"/><path class="cls-3" d="M28.44,203.25a7.5,7.5,0,1,1,7.5-7.5A7.52,7.52,0,0,1,28.44,203.25Zm0-12a4.5,4.5,0,1,0,4.5,4.5A4.5,4.5,0,0,0,28.44,191.25Z"/><path class="cls-3" d="M150.94,190.25a4,4,0,1,1,4-4A4,4,0,0,1,150.94,190.25Zm0-5a1,1,0,1,0,1,1A1,1,0,0,0,150.94,185.25Z"/><path class="cls-3" d="M285.94,78.25a4,4,0,1,1,4-4A4,4,0,0,1,285.94,78.25Zm0-5a1,1,0,1,0,1,1A1,1,0,0,0,285.94,73.25Z"/><path class="cls-3" d="M188.45,26.24a3.49,3.49,0,1,1,1.74-.46A3.54,3.54,0,0,1,188.45,26.24Zm0-4a.57.57,0,0,0-.25.06.5.5,0,0,0,.5.87.52.52,0,0,0,.19-.69A.5.5,0,0,0,188.44,22.25Z"/><path class="cls-3" d="M304.12,40.19c-.94-1-2.56-.18-3.52.28-2.2,1.12-4.23,2.58-6.38,3.82-2.37,1.35-4.61,2.75-7,4.05a16.27,16.27,0,0,0-3.95,2.57A61,61,0,0,0,280,45c-1-1.35-2.83-2.69-3.5-.38-.85,3,.8,7.05,2.11,9.7a5.26,5.26,0,0,0,2.6,2.81c1.49.56,3.62-.78,4.84-1.49,2.15-1.24,4.06-2.78,6.09-4.1,2.64-1.75,5.3-3.44,7.91-5.24C301.71,45.15,306.54,42.65,304.12,40.19ZM278.49,45a.35.35,0,0,0-.19,0,2.46,2.46,0,0,1-.42-.32h0C278,44.62,278.24,44.73,278.49,45Z"/><path class="cls-3" d="M250.6,137.08,159,93.92l22.15-47a5.48,5.48,0,0,1,7.3-2.63l81.66,38.48a5.51,5.51,0,0,1,2.63,7.31ZM163,92.48l86.16,40.61L270,88.8a2.5,2.5,0,0,0,.09-1.9,2.47,2.47,0,0,0-1.28-1.41L187.19,47a2.51,2.51,0,0,0-3.31,1.19Z"/><path class="cls-3" d="M250.72,143.44a2.28,2.28,0,0,1-1-.23L154.85,98.5a2.33,2.33,0,0,1-1.2-1.32,2.3,2.3,0,0,1,.09-1.78l1.57-3.33A2.32,2.32,0,0,1,158.39,91l94.89,44.72a2.28,2.28,0,0,1,1.19,1.32,2.31,2.31,0,0,1-.08,1.77l-1.57,3.33a2.34,2.34,0,0,1-2.1,1.34Zm-94-47.37,93.65,44.14,1-2.1L157.73,94Zm94.93,41.42ZM156.45,96.68h0Z"/><path class="cls-3" d="M235.74,115.1a18.07,18.07,0,1,1,16.37-10.37h0A18.1,18.1,0,0,1,235.74,115.1Zm0-33.15a15.07,15.07,0,1,0,13.61,21.5h0a15.09,15.09,0,0,0-7.21-20.06A14.91,14.91,0,0,0,235.79,82Z"/><path class="cls-3" d="M236.27,98.64l-23.65-4.37a1.51,1.51,0,0,1,.55-3l22.09,4.09L249.7,80.79a1.51,1.51,0,0,1,2.12,0,1.49,1.49,0,0,1,0,2.12Z"/><path class="cls-3" d="M204,83.81a11.37,11.37,0,0,1-4.67-1A13.67,13.67,0,0,1,194.38,79c-2.3,1.25-4.7,1.86-6.77,1-5.12-2.22-4.45-12.43-4.36-13.59a1.5,1.5,0,1,1,3,.24c-.24,3,.07,9.52,2.56,10.6.9.39,2.32.11,4-.79a6.54,6.54,0,0,1-.34-4.82c1.16-3.3,5.31-4.93,7.82-5.21,1.61-.18,2.7.16,3.24,1s.8,2.24-2.25,5.81a29.34,29.34,0,0,1-4.37,4.13,10.61,10.61,0,0,0,3.63,2.78c4.69,2.11,9.43-1,9.63-1.18a1.5,1.5,0,0,1,1.69,2.48A15.13,15.13,0,0,1,204,83.81Zm-3.57-14.48c-1.64.26-4.48,1.41-5.11,3.22a3.31,3.31,0,0,0,.08,2.12A23.45,23.45,0,0,0,200.41,69.33Z"/><path class="cls-3" d="M196.51,95.73a1.41,1.41,0,0,1-.45-.07L179,90.23a1.5,1.5,0,1,1,.91-2.86L197,92.8a1.5,1.5,0,0,1-.46,2.93Z"/><path class="cls-3" d="M94.17,239.77a1.49,1.49,0,0,1-1.35-.84L65,181.83a8,8,0,0,1,14.39-7l27.79,57.09a1.51,1.51,0,0,1-.26,1.7,1.53,1.53,0,0,1-1.68.34,7.26,7.26,0,0,0-5.54-.07,7.5,7.5,0,0,0-4.1,4.77,1.52,1.52,0,0,1-1.31,1.1Zm-22-66.44a4.84,4.84,0,0,0-2.18.51,5,5,0,0,0-2.31,6.68L94.15,234.8a9.72,9.72,0,0,1,9-4.39L76.71,176.14A5,5,0,0,0,72.21,173.33Z"/><path class="cls-3" d="M71.1,188.3l-2.9-.76a10,10,0,0,1,13.74-6.69l-1.19,2.76a7.26,7.26,0,0,0-5.54-.07A7.52,7.52,0,0,0,71.1,188.3Z"/><path class="cls-3" d="M74.17,194.6l-2.9-.77a10.43,10.43,0,0,1,5.85-6.76,10.3,10.3,0,0,1,7.88.08l-1.19,2.75a7.32,7.32,0,0,0-5.54-.06A7.47,7.47,0,0,0,74.17,194.6Z"/><rect class="cls-3" x="86.4" y="187.31" width="3" height="47.62" transform="translate(-43.41 135.53) rotate(-25.96)"/><path class="cls-3" d="M111,258.28a1.52,1.52,0,0,1-1.12-.49L93.06,239.28l2.22-2,13.07,14.41-4-18.78,2.93-.62,5.11,24.2a1.49,1.49,0,0,1-1.46,1.81Z"/><path class="cls-3" d="M101.74,246.61a5.49,5.49,0,0,1,6.42-3.12q1.4,6.64,2.81,13.29Z"/><path class="cls-3" d="M5.53,117.07l-1.35-2.68a10.32,10.32,0,0,0,5.09-6,10.63,10.63,0,0,0-1.46-8.79l2.45-1.73a13.51,13.51,0,0,1,1.87,11.4A13.39,13.39,0,0,1,5.53,117.07Z"/><path class="cls-3" d="M57.65,126.18q-3,0-6-.12a160.56,160.56,0,0,1-62.1-15.28,8,8,0,0,1-4.78-3.6,8,8,0,0,1-.93-6,7.92,7.92,0,0,1,3.64-4.92,7.93,7.93,0,0,1,5.91-1,184.84,184.84,0,0,1,62,15.32h0a182.12,182.12,0,0,1,22,11.66,1.51,1.51,0,0,1-.61,2.77A158.57,158.57,0,0,1,57.65,126.18Zm-66-28.13a5,5,0,0,0-2.59.73,5,5,0,0,0-2.27,3.08,5,5,0,0,0,.58,3.77,5,5,0,0,0,3.07,2.28,1.31,1.31,0,0,1,.28.09,157.69,157.69,0,0,0,61.08,15.06,155.44,155.44,0,0,0,20.34-.56,178.79,178.79,0,0,0-17.9-9.19A181.8,181.8,0,0,0-6.93,98.24l-.25,0A4.85,4.85,0,0,0-8.37,98.05Z"/><path class="cls-3" d="M33.44,99.25a1.46,1.46,0,0,1-.66-.16A57.65,57.65,0,0,0,6.31,93.22l-2.58,4.3A1.5,1.5,0,0,1,1.16,96l3-5a1.48,1.48,0,0,1,1.23-.72,60.12,60.12,0,0,1,13.33,1A60.64,60.64,0,0,1,34.1,96.4a1.5,1.5,0,0,1-.66,2.85Z"/><path class="cls-3" d="M188.44,239.25a1.52,1.52,0,0,1-1.38-.91l-18-42a1.51,1.51,0,0,1,.9-2l4.18-1.41a1.5,1.5,0,1,1,1,2.84l-2.65.9,16.81,39.22L214,227.33a1.53,1.53,0,0,1,1,0,9.57,9.57,0,0,0,6,0,9.69,9.69,0,0,0,5.18-4.32,1.47,1.47,0,0,1,.72-.65c4.36-1.84,9.29-3.71,14-5.52,4.22-1.6,8.57-3.25,12.52-4.88L236.6,175.49l-1.44.25c-.85.15-1.9.33-2.3.46a1.5,1.5,0,0,1-1-2.84,20.64,20.64,0,0,1,2.76-.57,22.43,22.43,0,0,0,2.3-.47,1.52,1.52,0,0,1,1.85.8l18,39a1.51,1.51,0,0,1-.78,2c-4.36,1.84-9.29,3.71-14.06,5.52-4.57,1.73-9.3,3.53-13.49,5.29a12.68,12.68,0,0,1-6.55,5.22,12.4,12.4,0,0,1-7.46.16l-25.54,8.84A1.37,1.37,0,0,1,188.44,239.25Z"/><path class="cls-3" d="M222.06,224.67a1.5,1.5,0,0,1-1.35-.85l-19-39a1.5,1.5,0,0,1,2.7-1.31l19,39a1.51,1.51,0,0,1-.69,2A1.55,1.55,0,0,1,222.06,224.67Z"/><path class="cls-3" d="M192.44,233.25l-.2,0a1.5,1.5,0,0,1-1.15-.84l-20-42a1.49,1.49,0,0,1,.19-1.59,26.4,26.4,0,0,1,17-9.54,26.07,26.07,0,0,1,14.83,2.6A32.51,32.51,0,0,1,218,172.31a32.13,32.13,0,0,1,13.63-1.05,1.52,1.52,0,0,1,1.17.86l17,37a1.51,1.51,0,0,1-1.35,2.13,31.61,31.61,0,0,0-10.5,1.9,32.55,32.55,0,0,0-14.34,10.52,1.51,1.51,0,0,1-1.59.52,27.42,27.42,0,0,0-15.17,0,27.84,27.84,0,0,0-13.28,8.53A1.49,1.49,0,0,1,192.44,233.25ZM174.21,190l18.64,39.14a30.41,30.41,0,0,1,29-8.07,35.38,35.38,0,0,1,15-10.7,34.05,34.05,0,0,1,9.22-2l-15.72-34.22a29.27,29.27,0,0,0-11.56,1.05,29.69,29.69,0,0,0-14.27,9.52,1.49,1.49,0,0,1-1.89.35,22.71,22.71,0,0,0-28.5,4.92Z"/><path class="cls-3" d="M169,179.45a7.33,7.33,0,0,1-1.91-.26,1.17,1.17,0,0,1-.2-.06l-25.73-10.94a1.51,1.51,0,0,1-.42-.27,5.77,5.77,0,0,1-1.72-2.8,6.2,6.2,0,0,1,1.21-5.23l13.74-23.55V122.75a1.38,1.38,0,0,1,.13-.6,5.3,5.3,0,0,1,6.86-2.82l27.84,8a5.14,5.14,0,0,1,2.74,1.41,5.23,5.23,0,0,1,1.42,4.23l-1,12a1.6,1.6,0,0,1-.18.6l-15.95,28.9a7.88,7.88,0,0,1-5,4.82A7,7,0,0,1,169,179.45Zm-1-3.13a4.14,4.14,0,0,0,2.1,0,5,5,0,0,0,3-3.05,1.15,1.15,0,0,1,.1-.23L189,144.3l1-11.68a2.29,2.29,0,0,0-.57-1.82,2.16,2.16,0,0,0-1.16-.57l-.19,0-28-8-.17-.06a2.29,2.29,0,0,0-2.92,1v13.65a1.53,1.53,0,0,1-.2.75l-14,24a1.37,1.37,0,0,1-.15.21,3.22,3.22,0,0,0-.7,2.66,2.74,2.74,0,0,0,.67,1.16Zm-12.49-39.57h0Z"/><path class="cls-3" d="M181.07,142.07a1.32,1.32,0,0,1-.39-.06l-19.13-6.09a1.3,1.3,0,0,1-.91-1.24v-7a1.33,1.33,0,0,1,.5-1,1.32,1.32,0,0,1,1.13-.23l20,5.22a1.3,1.3,0,0,1,1,1.4l-.87,7.83a1.31,1.31,0,0,1-1.3,1.16Zm-17.82-8.34L180,139l.57-5.12-17.27-4.51Z"/><path class="cls-3" d="M167.94,170.6a1.34,1.34,0,0,1-.51-.11l-19.8-8.1a1.32,1.32,0,0,1-.77-.83,1.36,1.36,0,0,1,.14-1.13l11.7-18.9a1.36,1.36,0,0,1,1.57-.57l18.9,6.3a1.37,1.37,0,0,1,.77,1.91l-10.8,20.7A1.36,1.36,0,0,1,167.94,170.6Zm-17.81-10.1,17.18,7,9.5-18.21-16.38-5.46Z"/><path class="cls-3" d="M162.54,167.89a1.32,1.32,0,0,1-.64-.16,1.34,1.34,0,0,1-.54-1.83L172,146.35a1.35,1.35,0,1,1,2.37,1.29l-10.66,19.55A1.35,1.35,0,0,1,162.54,167.89Z"/><path class="cls-3" d="M167.94,158a1.44,1.44,0,0,1-.5-.1l-12.91-5.19a1.35,1.35,0,0,1,1-2.5l12.92,5.18a1.35,1.35,0,0,1-.51,2.61Z"/><path class="cls-3" d="M164.34,163.4a1.53,1.53,0,0,1-.5-.1l-12.91-5.19a1.35,1.35,0,0,1,1-2.5l12.92,5.18a1.35,1.35,0,0,1-.51,2.61Z"/><path class="cls-3" d="M170.64,152.6a1.42,1.42,0,0,1-.45-.08l-12-4.29a1.35,1.35,0,1,1,.9-2.54l12,4.28a1.36,1.36,0,0,1-.46,2.63Z"/><path class="cls-3" d="M158.49,160.25a1.44,1.44,0,0,1-.63-.16,1.35,1.35,0,0,1-.56-1.83l7.2-13.5a1.35,1.35,0,1,1,2.38,1.27l-7.2,13.5A1.34,1.34,0,0,1,158.49,160.25Z"/><path class="cls-3" d="M128.68,193.66a13.94,13.94,0,0,0-1.79-4.6c-.75-1.51-1.57-3-2.38-4.47,2.14-1.2,4.3-2.37,6.45-3.59a.52.52,0,0,0,.65-.39.52.52,0,0,0-.38-.82c-.46-.62-1-1.22-1.52-1.79a.36.36,0,0,0-.62.18c-2.18.92-4.4,1.76-6.62,2.59-.43-.85-.84-1.7-1.24-2.57h0a.44.44,0,0,0,0-.37l-.07-.12h0l-.26-.44a18.83,18.83,0,0,0-1-2.79.54.54,0,0,0-.55-.75,16.87,16.87,0,0,0-4.89,1.1l-.12.08a.41.41,0,0,0-.5.51,61.06,61.06,0,0,0,3.69,7.2c-3,1.11-6,2.26-9,3.56h0l-.8.35a.55.55,0,0,0-.06,1,9.05,9.05,0,0,0,1.52,3.5c.47.72,1.32,2.05,2.32,2a.39.39,0,0,0,.47,0,60.46,60.46,0,0,1,8-5.68c.62,1.28,1.23,2.57,1.86,3.84.18.37,2,5.12,3,4.22a.54.54,0,0,0,.23.11c.54.12,1.2-.34,1.64-.6s.91-.56,1.33-.87C128.17,194.35,128.71,194,128.68,193.66Zm-18.52-6.94a.47.47,0,0,0-.12.19.55.55,0,0,0-.37.22.81.81,0,0,0-.41,0l0,0C109.53,187,109.84,186.83,110.16,186.72Zm1.48,5.32-.24-.22a1.8,1.8,0,0,0,.52,0Zm6.84-9.81c-.73-1.35-1.48-2.69-2.23-4q.38.58.81,1.14c.46,1,1,1.92,1.45,2.87Z"/><path class="cls-3" d="M300.39,321.31h-.85c-8.36-.3-20.64-4.91-29.22-14.56-9.15-10.28-12.45-20.76-9.29-29.51a23.87,23.87,0,0,1,13.91-13.9,18.85,18.85,0,0,1,8.24-.88,14.26,14.26,0,0,0,7.66-1.08,12.9,12.9,0,0,0,5.22-4.12,18.66,18.66,0,0,1,5.66-4.82c5.51-3,14.25-4.52,21.38-1,11.62,5.68,12.54,21.92,12.84,27.26.93,16.42-7.66,35-16.4,35.58-.35,0-.75,0-1.21,0a11.53,11.53,0,0,0-5.28.86,11.37,11.37,0,0,0-3.95,3.06c-.23.25-.43.47-.61.65C306.81,320.46,304,321.31,300.39,321.31Zm-19.66-56a13.76,13.76,0,0,0-4.79.82,21,21,0,0,0-12.09,12.1c-2.77,7.66.33,17.06,8.71,26.49,7.95,8.93,19.62,13.29,27.08,13.55,3.12.11,5.58-.48,6.75-1.63.15-.14.31-.32.49-.52a13.54,13.54,0,0,1,11.52-4.9h1c5.79-.36,14.54-15.66,13.59-32.42-.3-5.42-1.11-19.82-11.16-24.74-6.13-3-13.94-1.6-18.61,1a15.4,15.4,0,0,0-4.83,4.14,15.76,15.76,0,0,1-6.29,4.92h0a17.1,17.1,0,0,1-9.06,1.32C282.24,265.39,281.5,265.34,280.73,265.34Z"/><path class="cls-3" d="M286.44,258.25a1.58,1.58,0,0,1-.76-.21,1.47,1.47,0,0,1-.69-.93c-.16-.62-3.65-15.21,6.38-25.42a26.13,26.13,0,0,1,15.92-7.44,1.5,1.5,0,0,1,1.64,1.3,30,30,0,0,1-3.16,17.9c-5.63,10.52-15.92,13.95-18.94,14.75A1.74,1.74,0,0,1,286.44,258.25Zm19.67-30.82a22.81,22.81,0,0,0-12.6,6.37c-7.18,7.3-6.5,17.22-5.91,21A27.6,27.6,0,0,0,303.12,242,26.82,26.82,0,0,0,306.11,227.43Z"/><path class="cls-3" d="M286.36,258.43a1.66,1.66,0,0,1-.32,0l-10.75-2.32a1.51,1.51,0,0,1-1-.83,7.44,7.44,0,0,1,.1-6.43,7.57,7.57,0,0,1,6-3.87,1.43,1.43,0,0,1,1.17.45l5,5.18a1.4,1.4,0,0,1,.4.79l.9,5.31a1.47,1.47,0,0,1-.44,1.33A1.49,1.49,0,0,1,286.36,258.43Zm-9.63-5.11,7.78,1.68-.45-2.67-4.16-4.28a4.12,4.12,0,0,0-3.17,5.27Z"/><path class="cls-3" d="M298.44,314.25l-.17,0A32.13,32.13,0,0,1,285.68,310a32.56,32.56,0,0,1-11.53-11.53,1.5,1.5,0,1,1,2.58-1.53,29.55,29.55,0,0,0,10.47,10.47,29.25,29.25,0,0,0,11.42,3.81,1.5,1.5,0,0,1-.18,3Z"/><path class="cls-3" d="M.39,321.31H-.46c-8.36-.3-20.63-4.91-29.22-14.56C-38.83,296.45-42.13,286-39,277.23a23.87,23.87,0,0,1,13.91-13.9,18.85,18.85,0,0,1,8.24-.88,14.26,14.26,0,0,0,7.66-1.08h0a12.9,12.9,0,0,0,5.22-4.12,18.66,18.66,0,0,1,5.66-4.82c5.51-3,14.25-4.52,21.38-1,11.62,5.68,12.54,21.92,12.84,27.26.93,16.42-7.66,35-16.4,35.58-.35,0-.75,0-1.21,0a11.53,11.53,0,0,0-5.28.86,11.37,11.37,0,0,0-4,3.06c-.23.25-.43.47-.61.65C6.81,320.46,4,321.31.39,321.31Zm-19.66-56a13.76,13.76,0,0,0-4.79.82,21,21,0,0,0-12.09,12.1c-2.77,7.65.33,17.06,8.71,26.49,8,8.93,19.62,13.29,27.09,13.55,3.1.11,5.57-.48,6.74-1.63.15-.14.31-.32.49-.52a14.44,14.44,0,0,1,5-3.77,14.33,14.33,0,0,1,6.57-1.13h1c5.79-.36,14.54-15.66,13.59-32.42-.3-5.42-1.11-19.82-11.16-24.74-6.13-3-13.94-1.6-18.61,1a15.4,15.4,0,0,0-4.83,4.14,15.76,15.76,0,0,1-6.29,4.92h0A17.1,17.1,0,0,1-17,265.44C-17.76,265.39-18.5,265.34-19.27,265.34Z"/><path class="cls-3" d="M-13.56,258.25a1.58,1.58,0,0,1-.76-.21,1.47,1.47,0,0,1-.69-.93c-.16-.62-3.65-15.21,6.38-25.42a26.13,26.13,0,0,1,15.92-7.44,1.5,1.5,0,0,1,1.64,1.3,30,30,0,0,1-3.16,17.9C.14,254-10.15,257.4-13.17,258.2A1.74,1.74,0,0,1-13.56,258.25ZM6.11,227.43a22.81,22.81,0,0,0-12.6,6.37c-7.18,7.3-6.5,17.22-5.91,21A27.6,27.6,0,0,0,3.12,242,26.82,26.82,0,0,0,6.11,227.43Z"/><path class="cls-3" d="M-13.64,258.43a1.66,1.66,0,0,1-.32,0l-10.75-2.32a1.51,1.51,0,0,1-1-.83,7.44,7.44,0,0,1,.1-6.43,7.57,7.57,0,0,1,6-3.87,1.43,1.43,0,0,1,1.17.45l5,5.18a1.4,1.4,0,0,1,.4.79l.9,5.31a1.47,1.47,0,0,1-.44,1.33A1.49,1.49,0,0,1-13.64,258.43Zm-9.63-5.11,7.78,1.68-.45-2.67-4.16-4.28A4.4,4.4,0,0,0-23,250.2,4.36,4.36,0,0,0-23.27,253.32Z"/><path class="cls-3" d="M-1.56,314.25l-.17,0A32.13,32.13,0,0,1-14.32,310a32.56,32.56,0,0,1-11.53-11.53,1.51,1.51,0,0,1,.53-2.06,1.5,1.5,0,0,1,2.05.53A29.55,29.55,0,0,0-12.8,307.45a29.25,29.25,0,0,0,11.42,3.81,1.49,1.49,0,0,1,1.31,1.66A1.5,1.5,0,0,1-1.56,314.25Z"/><path class="cls-3" d="M300.39,21.31h-.85c-8.36-.3-20.64-4.91-29.22-14.56C261.17-3.54,257.87-14,261-22.77a23.87,23.87,0,0,1,13.91-13.9,18.85,18.85,0,0,1,8.24-.88,14.28,14.28,0,0,0,7.66-1.08,12.9,12.9,0,0,0,5.22-4.12,18.53,18.53,0,0,1,5.66-4.82c5.51-3,14.26-4.52,21.38-1,11.62,5.68,12.54,21.92,12.84,27.26.93,16.42-7.66,35-16.4,35.58-.35,0-.75,0-1.21,0a11.53,11.53,0,0,0-5.28.86,11.37,11.37,0,0,0-3.95,3.06c-.23.25-.43.47-.61.65C306.81,20.46,304,21.31,300.39,21.31Zm-19.66-56a13.76,13.76,0,0,0-4.79.82,21,21,0,0,0-12.09,12.09c-2.77,7.67.33,17.07,8.71,26.5,7.95,8.93,19.61,13.29,27.08,13.55,3.12.11,5.58-.48,6.75-1.63.15-.14.31-.32.49-.52a13.47,13.47,0,0,1,11.52-4.9h1c5.79-.36,14.54-15.66,13.59-32.42-.3-5.42-1.11-19.82-11.16-24.74-6.12-3-13.94-1.6-18.61,1a15.4,15.4,0,0,0-4.83,4.14,15.76,15.76,0,0,1-6.29,4.92h0A17.09,17.09,0,0,1,283-34.56C282.24-34.61,281.5-34.66,280.73-34.66Z"/><path class="cls-3" d="M286.44-41.76a1.57,1.57,0,0,1-.76-.2,1.47,1.47,0,0,1-.69-.93c-.16-.62-3.65-15.21,6.38-25.42a26.13,26.13,0,0,1,15.92-7.44,1.52,1.52,0,0,1,1.64,1.3,30,30,0,0,1-3.16,17.9C300.14-46,289.85-42.6,286.83-41.81A1.31,1.31,0,0,1,286.44-41.76Zm19.67-30.81a22.78,22.78,0,0,0-12.6,6.37c-7.18,7.3-6.5,17.22-5.91,21A27.6,27.6,0,0,0,303.12-58,26.82,26.82,0,0,0,306.11-72.57Z"/><path class="cls-3" d="M286.36-41.57a1.66,1.66,0,0,1-.32,0l-10.75-2.33a1.47,1.47,0,0,1-1-.82,7.44,7.44,0,0,1,.1-6.43,7.55,7.55,0,0,1,6-3.87,1.49,1.49,0,0,1,1.18.45l5,5.18a1.4,1.4,0,0,1,.4.79l.9,5.31a1.47,1.47,0,0,1-.44,1.33A1.49,1.49,0,0,1,286.36-41.57Zm-9.63-5.11L284.51-45l-.45-2.67-4.16-4.28A4.4,4.4,0,0,0,277-49.8,4.36,4.36,0,0,0,276.73-46.68Z"/><path class="cls-3" d="M298.44,14.24h-.17A32.18,32.18,0,0,1,285.68,10,32.56,32.56,0,0,1,274.15-1.49a1.51,1.51,0,0,1,.53-2.06,1.5,1.5,0,0,1,2.05.53A29.55,29.55,0,0,0,287.2,7.45a29.12,29.12,0,0,0,11.42,3.8,1.5,1.5,0,0,1-.18,3Z"/><path class="cls-3" d="M.39,21.31H-.46C-8.82,21-21.1,16.39-29.68,6.74-38.83-3.55-42.13-14-39-22.77a23.87,23.87,0,0,1,13.91-13.9,18.85,18.85,0,0,1,8.24-.88,14.28,14.28,0,0,0,7.66-1.08h0a12.9,12.9,0,0,0,5.22-4.12,18.53,18.53,0,0,1,5.66-4.82c5.51-3,14.25-4.52,21.38-1,11.62,5.68,12.54,21.92,12.84,27.26.93,16.42-7.66,35-16.4,35.58-.35,0-.75,0-1.21,0a11.53,11.53,0,0,0-5.28.86,11.37,11.37,0,0,0-4,3.06c-.23.25-.43.47-.61.65C6.81,20.46,4,21.31.39,21.31Zm-19.66-56a13.76,13.76,0,0,0-4.79.82A21,21,0,0,0-36.15-21.75c-2.77,7.66.33,17.07,8.71,26.5C-19.49,13.68-7.82,18-.35,18.3c3.1.11,5.57-.48,6.74-1.63.15-.14.31-.32.49-.52a14.56,14.56,0,0,1,5-3.78,14.43,14.43,0,0,1,6.57-1.12h1c5.79-.36,14.54-15.66,13.59-32.42-.3-5.42-1.11-19.82-11.16-24.74-6.12-3-13.94-1.6-18.61,1A15.4,15.4,0,0,0-1.66-40.8a15.76,15.76,0,0,1-6.29,4.92h0A17.09,17.09,0,0,1-17-34.56C-17.76-34.61-18.5-34.66-19.27-34.66Z"/><path class="cls-3" d="M-13.56-41.76a1.57,1.57,0,0,1-.76-.2,1.47,1.47,0,0,1-.69-.93c-.16-.62-3.65-15.21,6.38-25.42A26.13,26.13,0,0,1,7.29-75.75a1.52,1.52,0,0,1,1.64,1.3,30,30,0,0,1-3.16,17.9C.14-46-10.15-42.6-13.17-41.81A1.31,1.31,0,0,1-13.56-41.76ZM6.11-72.57A22.78,22.78,0,0,0-6.49-66.2c-7.18,7.3-6.5,17.22-5.91,21A27.6,27.6,0,0,0,3.12-58,26.82,26.82,0,0,0,6.11-72.57Z"/><path class="cls-3" d="M-13.64-41.57a1.66,1.66,0,0,1-.32,0l-10.75-2.33a1.47,1.47,0,0,1-1-.82,7.44,7.44,0,0,1,.1-6.43,7.55,7.55,0,0,1,6-3.87,1.49,1.49,0,0,1,1.18.45l5,5.18a1.4,1.4,0,0,1,.4.79l.9,5.31A1.47,1.47,0,0,1-12.61-42,1.49,1.49,0,0,1-13.64-41.57Zm-9.63-5.11L-15.49-45l-.45-2.67-4.16-4.28A4.4,4.4,0,0,0-23-49.8,4.36,4.36,0,0,0-23.27-46.68Z"/><path class="cls-3" d="M-1.56,14.24h-.17A32.18,32.18,0,0,1-14.32,10,32.56,32.56,0,0,1-25.85-1.49a1.51,1.51,0,0,1,.53-2.06A1.5,1.5,0,0,1-23.27-3,29.55,29.55,0,0,0-12.8,7.45a29.12,29.12,0,0,0,11.42,3.8A1.5,1.5,0,0,1-.07,12.92,1.49,1.49,0,0,1-1.56,14.24Z"/><path class="cls-3" d="M84.44,124.25a1.51,1.51,0,0,1-.53-2.91,47,47,0,0,0,20.36-14.53,55.54,55.54,0,0,0,7.6-13,21.39,21.39,0,0,1-2.2.46c-3.63.56-12.6,1.14-17.45-5.61-4.1-5.71-3.56-14.4,1.18-19a13.67,13.67,0,0,1,10-3.53,16.27,16.27,0,0,1,11.16,4.59c3.49,3.73,4.3,9.74,2.37,17.43,5.28-3.61,8.55-9.26,10.23-12.16,6.48-11.17,5.8-23,4.82-29a1.5,1.5,0,1,1,3-.49c1.05,6.44,1.76,19-5.18,31-2.1,3.62-6.48,11.19-14.12,14.87a59,59,0,0,1-9,16.31A50,50,0,0,1,85,124.15,1.61,1.61,0,0,1,84.44,124.25Zm18.48-55.12a10.58,10.58,0,0,0-7.44,2.7c-3.73,3.58-4.1,10.47-.82,15,3.88,5.4,11.47,4.87,14.55,4.39a17.74,17.74,0,0,0,4-1.11c.19-.6.37-1.2.54-1.79,1.94-7,1.44-12.55-1.4-15.59a13.35,13.35,0,0,0-9-3.64Z"/><path class="cls-3" d="M72,77.47h-.29l-32.67-2.1A4.5,4.5,0,0,1,36,73.84a4.44,4.44,0,0,1-1.11-3.26L37.75,25.7a4.5,4.5,0,0,1,4.78-4.2L75.2,23.6a4.5,4.5,0,0,1,4.2,4.78L76.52,73.26A4.5,4.5,0,0,1,72,77.47Zm-29.79-53a1.48,1.48,0,0,0-1,.38,1.45,1.45,0,0,0-.5,1L37.86,70.77a1.51,1.51,0,0,0,1.4,1.6l32.67,2.1h0a1.5,1.5,0,0,0,1.6-1.4l2.88-44.88A1.5,1.5,0,0,0,76,27.1a1.53,1.53,0,0,0-1-.51l-32.67-2.1Z"/><path class="cls-3" d="M41.6,75.52h-.1a1.51,1.51,0,0,1-1.4-1.6l3.27-50.86a1.5,1.5,0,1,1,3,.19L43.09,74.12A1.5,1.5,0,0,1,41.6,75.52Z"/><path class="cls-3" d="M67.15,44.47h-.1l-15-1a1.51,1.51,0,0,1-1-.5,1.54,1.54,0,0,1-.37-1.09,1.49,1.49,0,0,0-1.4-1.59,1.51,1.51,0,0,1-1.4-1.6l.31-4.86a1.51,1.51,0,0,1,.51-1,1.46,1.46,0,0,1,1.09-.37,1.5,1.5,0,0,0,1.59-1.4,1.47,1.47,0,0,1,1.59-1.4l15,1a1.51,1.51,0,0,1,1.4,1.6,1.47,1.47,0,0,0,.37,1.08,1.53,1.53,0,0,0,1,.51,1.5,1.5,0,0,1,1.4,1.59l-.31,4.87a1.52,1.52,0,0,1-1.59,1.4,1.5,1.5,0,0,0-1.6,1.4A1.5,1.5,0,0,1,67.15,44.47Zm-13.7-3.88,12.55.8a4.54,4.54,0,0,1,2.92-2.56l.15-2.38a4.39,4.39,0,0,1-1.61-1.17,4.31,4.31,0,0,1-.95-1.74L54,32.73A4.53,4.53,0,0,1,51,35.29l-.16,2.38A4.56,4.56,0,0,1,53.45,40.59Z"/><path class="cls-3" d="M67.17,48.56h-.1l-15.6-1a1.5,1.5,0,0,1,.19-3l15.6,1a1.5,1.5,0,0,1-.09,3Z"/><path class="cls-3" d="M-3.45,185.22a13.54,13.54,0,0,1-3.4-.43c-5.26-1.35-7.92-6-9.29-8.64-2.64,1.7-7.14,4.42-12.2,3.12a13.82,13.82,0,0,1-8.44-6.35,14.56,14.56,0,0,1-1.81-10.41h0a16,16,0,0,1,5.37-9.06A94.59,94.59,0,0,1-20,144.52c2.84-1.65,5.42-3,7.47-3.93,3.64-1.64,5-1.64,6-1.4s2.12.9,4.53,4.1c1.35,1.8,3,4.24,4.66,7.05,3.3,5.48,6.3,11.31,7.28,14.18A15.91,15.91,0,0,1,10.21,175a14.6,14.6,0,0,1-6.61,8.25A13.94,13.94,0,0,1-3.45,185.22ZM-15.56,172.5a1.51,1.51,0,0,1,1.3.76c.15.26.33.63.51,1,1.07,2.12,3.31,6.54,7.64,7.65A10.89,10.89,0,0,0,2.1,180.7a11.59,11.59,0,0,0,5.24-6.56A13.12,13.12,0,0,0,7,165.49a92.8,92.8,0,0,0-7-13.6c-1.65-2.73-3.2-5.08-4.49-6.8-1.95-2.59-2.7-2.94-2.88-3s-1-.14-4,1.23a79.61,79.61,0,0,0-7.19,3.78,91.57,91.57,0,0,0-12.67,8.56,13.2,13.2,0,0,0-4.45,7.43h0a11.58,11.58,0,0,0,1.44,8.27,10.85,10.85,0,0,0,6.61,5c4,1,8-1.55,10.15-2.94.42-.28.86-.56,1.15-.73A1.54,1.54,0,0,1-15.56,172.5Z"/><path class="cls-3" d="M142.49,329.14a18,18,0,1,1,6.79-1.34A18,18,0,0,1,142.49,329.14Zm0-33a15,15,0,1,0,13.86,9.31h0a15,15,0,0,0-13.86-9.31Z"/><path class="cls-3" d="M134.43,313.41a1.5,1.5,0,0,1-1.39-.93,3.85,3.85,0,0,1,7.13-2.92,1.5,1.5,0,1,1-2.77,1.14.87.87,0,0,0-.46-.46.9.9,0,0,0-.66,0,.91.91,0,0,0-.46.46.84.84,0,0,0,0,.65,1.5,1.5,0,0,1-.82,2A1.44,1.44,0,0,1,134.43,313.41Z"/><path class="cls-3" d="M143.2,320.63a8,8,0,0,1-5.09-1.84,1.5,1.5,0,1,1,1.92-2.3,4.88,4.88,0,0,0,5.15.71,5.22,5.22,0,0,0,2.75-3.94,1.5,1.5,0,0,1,3,.28,8.21,8.21,0,0,1-4.47,6.38A7.67,7.67,0,0,1,143.2,320.63Z"/><path class="cls-3" d="M145.32,309a1.5,1.5,0,0,1-1.39-.93,3.85,3.85,0,0,1,5-5,3.78,3.78,0,0,1,2.08,2.09,1.5,1.5,0,1,1-2.77,1.13.88.88,0,0,0-.46-.45.81.81,0,0,0-.66,0,.87.87,0,0,0-.46.46.83.83,0,0,0,0,.65,1.51,1.51,0,0,1-.82,2A1.44,1.44,0,0,1,145.32,309Z"/><path class="cls-3" d="M214.43,327.3c-2,0-2.87-.34-3.44-.73-.83-.56-1.57-1.58-2.54-4.74-.56-1.85-1.15-4.29-1.7-7.07A81.21,81.21,0,0,1,205,301.17a13.82,13.82,0,0,1,2.84-8.71,12.76,12.76,0,0,1,7.87-4.8,12,12,0,0,1,9,1.89c3.8,2.59,4.67,7,5,9.59,2.52-.57,7-1.37,10.68,1.14a12.07,12.07,0,0,1,5,7.72,12.7,12.7,0,0,1-1.62,9.07h0a14,14,0,0,1-7.07,5.81,81,81,0,0,1-13.28,3.36,72.38,72.38,0,0,1-7.19,1C215.6,327.28,215,327.3,214.43,327.3ZM218,290.46a9.85,9.85,0,0,0-1.7.15,9.74,9.74,0,0,0-6,3.67,10.87,10.87,0,0,0-2.23,6.94,80.14,80.14,0,0,0,1.67,13c.53,2.68,1.09,5,1.63,6.77.83,2.72,1.31,3.11,1.36,3.14s.55.36,3.43.14a66.69,66.69,0,0,0,6.88-1,78.81,78.81,0,0,0,12.67-3.17,11.06,11.06,0,0,0,5.65-4.6,9.74,9.74,0,0,0,1.23-6.94,9.09,9.09,0,0,0-3.78-5.82c-2.87-2-6.62-1.08-8.87-.56-.39.09-.85.2-1.15.25l-1.48.24-.24-1.47c-.05-.24-.09-.59-.13-.91-.26-2.17-.75-6.17-3.83-8.28A9,9,0,0,0,218,290.46Z"/><path class="cls-3" d="M305.53,117.07l-1.35-2.68a10.32,10.32,0,0,0,5.09-6,10.63,10.63,0,0,0-1.46-8.79l2.45-1.73a12.94,12.94,0,0,1-4.73,19.16Z"/><path class="cls-3" d="M357.65,126.18q-3,0-6-.12a160.56,160.56,0,0,1-62.1-15.28,8,8,0,0,1,3.84-15.53,184.84,184.84,0,0,1,62,15.32h0a182.12,182.12,0,0,1,22.05,11.66,1.51,1.51,0,0,1-.61,2.77A158.57,158.57,0,0,1,357.65,126.18Zm-66-28.13a5,5,0,0,0-2.59.73,5,5,0,0,0-1.69,6.85,5,5,0,0,0,3.07,2.28,1.31,1.31,0,0,1,.28.09,157.69,157.69,0,0,0,61.08,15.06,155.39,155.39,0,0,0,20.34-.56,178.79,178.79,0,0,0-17.9-9.19,181.8,181.8,0,0,0-61.15-15.07l-.25,0A4.85,4.85,0,0,0,291.63,98.05Z"/><path class="cls-3" d="M333.44,99.25a1.46,1.46,0,0,1-.66-.16,57.65,57.65,0,0,0-26.47-5.87l-2.58,4.3A1.5,1.5,0,1,1,301.16,96l3-5a1.48,1.48,0,0,1,1.23-.72A60.39,60.39,0,0,1,334.1,96.4a1.5,1.5,0,0,1-.66,2.85Z"/><path class="cls-3" d="M4.12,40.19c-.94-1-2.56-.18-3.52.28-2.2,1.12-4.23,2.58-6.38,3.82-2.37,1.35-4.61,2.75-7,4.05a16.27,16.27,0,0,0-3.95,2.57A61,61,0,0,0-20,45c-1-1.35-2.83-2.69-3.5-.38-.85,3,.8,7.05,2.11,9.7a5.26,5.26,0,0,0,2.6,2.81c1.49.56,3.62-.78,4.84-1.49,2.15-1.24,4.06-2.78,6.09-4.1,2.64-1.75,5.3-3.44,7.91-5.24C1.71,45.15,6.54,42.65,4.12,40.19ZM-21.51,45a.35.35,0,0,0-.19,0,2.46,2.46,0,0,1-.42-.32h0C-22,44.62-21.76,44.73-21.51,45Z"/><path class="cls-3" d="M89,20.91a16,16,0,0,1-5.15-.85A15.21,15.21,0,0,1,75,12.5c-2.73-5.42-.7-11.1.51-14.13-3.25-.92-9-2.64-11.61-7.89A15.16,15.16,0,0,1,63-21.09a16.06,16.06,0,0,1,7.3-9h0a17.77,17.77,0,0,1,11.4-2.11c3.39.39,10.41,2.23,17.08,4.48,3.45,1.17,6.47,2.33,8.73,3.37,4,1.83,5,3,5.45,3.88s.77,2.38-.13,6.68c-.51,2.43-1.37,5.56-2.48,9-2.16,6.75-4.84,13.51-6.51,16.43a17.52,17.52,0,0,1-8.48,7.91A15.89,15.89,0,0,1,89,20.91ZM71.83-27.52a13,13,0,0,0-5.94,7.35,12.23,12.23,0,0,0,.67,9.3c2.12,4.2,7.25,5.64,10,6.42.49.14,1.06.3,1.43.43l1.41.5-.49,1.41c-.11.31-.28.73-.44,1.12-1,2.48-3.07,7.63-.8,12.13a12.23,12.23,0,0,0,7.08,6.08,13.06,13.06,0,0,0,9.45-.41,14.76,14.76,0,0,0,7.08-6.67c1.58-2.75,4.15-9.27,6.25-15.84,1.08-3.39,1.91-6.42,2.4-8.75.74-3.49.52-4.45.39-4.71s-.7-1-4-2.51a90.2,90.2,0,0,0-8.44-3.24c-6.49-2.19-13.26-4-16.46-4.35a14.86,14.86,0,0,0-9.57,1.74Z"/></g></g></g></svg>