<svg
  id="Layer_1"
  data-name="Layer 1"
  xmlns="http://www.w3.org/2000/svg"
  viewBox="0 0 151.59 56.78"
>
  <defs>
    <style>
      .cls-2 {
        fill: #fff;
      }
    </style>
  </defs>
  <rect
    x="3.07"
    y="2.11"
    width="145.46"
    height="52.56"
    rx="26.28"
    fill="#f48183"
  />
  <path
    class="cls-2"
    d="M22.59 44.4v-32h11.52a28.27 28.27 0 014.73.37A12.1 12.1 0 0142.69 14a7 7 0 012.58 2.44 7.35 7.35 0 011 3.92 7.58 7.58 0 01-.29 2.09 10.15 10.15 0 01-.81 2 7.43 7.43 0 01-1.26 1.7 4.47 4.47 0 01-1.68 1.09v.19a8.39 8.39 0 013.92 2.49 7.26 7.26 0 011.6 5 8.51 8.51 0 01-1 4.27A8.6 8.6 0 0144 42.16a11.85 11.85 0 01-4 1.7 21.47 21.47 0 01-4.88.54zm8.47-19.51h2.86A4.46 4.46 0 0037 24a3 3 0 001-2.37 2.34 2.34 0 00-1-2.12 5.77 5.77 0 00-3-.64h-2.94zm0 13h3.45c3.28 0 4.93-1.18 4.93-3.55a2.72 2.72 0 00-1.21-2.51 7.36 7.36 0 00-3.72-.74h-3.45zM51.85 44.4v-32h20.69v7.09H60.32v5h10.45v7.09H60.32v5.72H73v7.1zM84.47 44.4V19.47H76v-7.09h25.42v7.09h-8.48V44.4zM99.25 44.4l9.75-32h10.25l9.75 32h-9l-1.58-6.8h-9l-1.57 6.8zm12.31-15.57l-.56 2.22h5.91l-.54-2.22c-.39-1.54-.79-3.21-1.18-5s-.79-3.52-1.18-5.12h-.2q-.54 2.46-1.11 5.14c-.36 1.77-.7 3.44-1.14 4.98z"
  />
</svg>
