<svg width="17" height="15" viewBox="0 0 17 15" fill="none" xmlns="http://www.w3.org/2000/svg">
<g clip-path="url(#clip0_223_197)">
<path d="M17.0002 3.98438C17.0002 4.63154 16.4716 5.15625 15.8197 5.15625C15.8123 5.15625 15.8062 5.15254 15.7989 5.15243L14.3079 13.294C14.2259 13.7373 13.8363 14.0625 13.3789 14.0625H3.62155C3.16527 14.0625 2.77391 13.7385 2.69246 13.2929L1.20171 5.15332C1.19433 5.15332 1.18813 5.15625 1.15419 5.15625C0.502227 5.15625 -0.0263672 4.63154 -0.0263672 3.98438C-0.0263672 3.33721 0.52879 2.8125 1.15419 2.8125C1.77959 2.8125 2.33475 3.33721 2.33475 3.98438C2.33475 4.24799 2.23083 4.4792 2.08279 4.6749L4.72812 6.77549C5.19769 7.14844 5.89392 6.9965 6.16279 6.4626L7.86279 3.0876C7.5292 2.88105 7.29309 2.52949 7.29309 2.10938C7.29309 1.46221 7.84795 0.9375 8.50021 0.9375C9.15246 0.9375 9.6542 1.46221 9.6542 2.10938C9.6542 2.52949 9.41918 2.88105 9.08458 3.08789L10.7846 6.46289C11.0535 6.99668 11.75 7.14844 12.2193 6.77578L14.8646 4.6752C14.7424 4.47949 14.6391 4.22168 14.6391 3.98438C14.6391 3.33691 15.1674 2.8125 15.8197 2.8125C16.4719 2.8125 17.0002 3.33691 17.0002 3.98438Z" fill="#FFBC42"/>
</g>
<defs>
<clipPath id="clip0_223_197">
<rect width="17" height="15" fill="white"/>
</clipPath>
</defs>
</svg>
