<svg width="14" height="14" viewBox="0 0 14 14" fill="none" xmlns="http://www.w3.org/2000/svg">
    <path d="M10.5 11.083h-7a.585.585 0 0 1-.583-.583v-7c0-.32.262-.583.583-.583h2.917c.32 0 .583-.263.583-.584a.585.585 0 0 0-.583-.583h-3.5c-.648 0-1.167.525-1.167 1.167v8.166a1.17 1.17 0 0 0 1.167 1.167h8.166a1.17 1.17 0 0 0 1.167-1.167v-3.5A.585.585 0 0 0 11.667 7a.585.585 0 0 0-.584.583V10.5c0 .32-.262.583-.583.583zm-2.333-8.75c0 .321.262.584.583.584h1.51L4.936 8.242a.58.58 0 1 0 .823.823l5.325-5.326V5.25c0 .32.263.583.584.583.32 0 .583-.262.583-.583V2.333a.585.585 0 0 0-.583-.583H8.75a.585.585 0 0 0-.583.583z" fill="#0AF"/>
</svg>
